<mxfile host="app.diagrams.net" agent="Mozilla/5.0 (Windows NT 10.0; Win64; x64) AppleWebKit/537.36 (KHTML, like Gecko) Chrome/136.0.0.0 Safari/537.36" version="27.0.6">
  <diagram name="Página-1" id="wDKXEAalhFX1wF3SLVNK">
    <mxGraphModel dx="1358" dy="746" grid="1" gridSize="10" guides="1" tooltips="1" connect="1" arrows="1" fold="1" page="1" pageScale="1" pageWidth="4000" pageHeight="1200" math="0" shadow="0">
      <root>
        <mxCell id="0" />
        <mxCell id="1" parent="0" />
        <mxCell id="2qO8lxWROJ69_FPcfv2y-22" style="edgeStyle=orthogonalEdgeStyle;rounded=0;orthogonalLoop=1;jettySize=auto;html=1;exitX=1;exitY=0.5;exitDx=0;exitDy=0;" edge="1" parent="1" source="2qO8lxWROJ69_FPcfv2y-13" target="2qO8lxWROJ69_FPcfv2y-19">
          <mxGeometry relative="1" as="geometry" />
        </mxCell>
        <mxCell id="2qO8lxWROJ69_FPcfv2y-13" value="&lt;div&gt;&lt;span style=&quot;background-color: transparent; color: light-dark(rgb(0, 0, 0), rgb(255, 255, 255)); font-size: 16px;&quot;&gt;Usuário Service&lt;/span&gt;&lt;/div&gt;&lt;div&gt;&lt;span style=&quot;background-color: transparent; color: light-dark(rgb(0, 0, 0), rgb(255, 255, 255)); font-size: 16px;&quot;&gt;&lt;br&gt;&lt;/span&gt;&lt;/div&gt;&lt;div&gt;&lt;span style=&quot;background-color: transparent; color: light-dark(rgb(0, 0, 0), rgb(255, 255, 255)); font-size: 16px;&quot;&gt;&lt;br&gt;&lt;/span&gt;&lt;/div&gt;" style="whiteSpace=wrap;html=1;" vertex="1" parent="1">
          <mxGeometry x="830" y="378" width="160" height="100" as="geometry" />
        </mxCell>
        <mxCell id="2qO8lxWROJ69_FPcfv2y-12" value="&lt;div&gt;&lt;span style=&quot;background-color: transparent; color: light-dark(rgb(0, 0, 0), rgb(255, 255, 255)); font-size: 16px;&quot;&gt;Motos Service&lt;/span&gt;&lt;/div&gt;&lt;div&gt;&lt;span style=&quot;background-color: transparent; color: light-dark(rgb(0, 0, 0), rgb(255, 255, 255)); font-size: 16px;&quot;&gt;&lt;br&gt;&lt;/span&gt;&lt;/div&gt;&lt;div&gt;&lt;span style=&quot;background-color: transparent; color: light-dark(rgb(0, 0, 0), rgb(255, 255, 255)); font-size: 16px;&quot;&gt;&lt;br&gt;&lt;/span&gt;&lt;/div&gt;" style="whiteSpace=wrap;html=1;" vertex="1" parent="1">
          <mxGeometry x="830" y="149" width="160" height="91" as="geometry" />
        </mxCell>
        <mxCell id="2qO8lxWROJ69_FPcfv2y-11" value="" style="shape=cylinder3;whiteSpace=wrap;html=1;boundedLbl=1;backgroundOutline=1;size=15;" vertex="1" parent="1">
          <mxGeometry x="1180" y="154.5" width="60" height="80" as="geometry" />
        </mxCell>
        <mxCell id="2qO8lxWROJ69_FPcfv2y-23" style="edgeStyle=orthogonalEdgeStyle;rounded=0;orthogonalLoop=1;jettySize=auto;html=1;exitX=1;exitY=0.5;exitDx=0;exitDy=0;entryX=0;entryY=0.5;entryDx=0;entryDy=0;" edge="1" parent="1" source="2qO8lxWROJ69_FPcfv2y-7" target="2qO8lxWROJ69_FPcfv2y-12">
          <mxGeometry relative="1" as="geometry" />
        </mxCell>
        <mxCell id="2qO8lxWROJ69_FPcfv2y-24" style="edgeStyle=orthogonalEdgeStyle;rounded=0;orthogonalLoop=1;jettySize=auto;html=1;exitX=1;exitY=0.5;exitDx=0;exitDy=0;entryX=0;entryY=0.5;entryDx=0;entryDy=0;endArrow=classic;endFill=1;" edge="1" parent="1" source="2qO8lxWROJ69_FPcfv2y-7" target="2qO8lxWROJ69_FPcfv2y-13">
          <mxGeometry relative="1" as="geometry" />
        </mxCell>
        <mxCell id="2qO8lxWROJ69_FPcfv2y-7" value="&lt;div&gt;&lt;br&gt;&lt;/div&gt;&lt;div&gt;&lt;br&gt;&lt;/div&gt;&lt;div&gt;&lt;br&gt;&lt;/div&gt;&lt;div&gt;&lt;br&gt;&lt;/div&gt;&lt;div&gt;&lt;br&gt;&lt;/div&gt;&lt;div&gt;&lt;br&gt;&lt;/div&gt;&lt;div&gt;&lt;br&gt;&lt;/div&gt;&lt;div&gt;&lt;br&gt;&lt;/div&gt;&lt;div&gt;&lt;font style=&quot;font-size: 16px;&quot;&gt;Front End&lt;/font&gt;&lt;/div&gt;" style="whiteSpace=wrap;html=1;" vertex="1" parent="1">
          <mxGeometry x="530" y="231" width="170" height="160" as="geometry" />
        </mxCell>
        <mxCell id="2qO8lxWROJ69_FPcfv2y-8" style="edgeStyle=orthogonalEdgeStyle;rounded=0;orthogonalLoop=1;jettySize=auto;html=1;entryX=0;entryY=0.5;entryDx=0;entryDy=0;" edge="1" parent="1">
          <mxGeometry relative="1" as="geometry">
            <mxPoint x="390" y="300" as="sourcePoint" />
            <mxPoint x="530" y="300" as="targetPoint" />
          </mxGeometry>
        </mxCell>
        <mxCell id="2qO8lxWROJ69_FPcfv2y-1" value="Usuário" style="sketch=0;outlineConnect=0;fontColor=#232F3E;gradientColor=none;fillColor=#232F3D;strokeColor=none;dashed=0;verticalLabelPosition=bottom;verticalAlign=top;align=center;html=1;fontSize=16;fontStyle=0;aspect=fixed;pointerEvents=1;shape=mxgraph.aws4.user;" vertex="1" parent="1">
          <mxGeometry x="310" y="272" width="78" height="78" as="geometry" />
        </mxCell>
        <mxCell id="2qO8lxWROJ69_FPcfv2y-2" value="" style="shape=image;verticalLabelPosition=bottom;labelBackgroundColor=default;verticalAlign=top;aspect=fixed;imageAspect=0;image=data:image/png,iVBORw0KGgoAAAANSUhEUgAABAAAAAQACAYAAAB/HSuDAAAAGXRFWHRTb2Z0d2FyZQBBZG9iZSBJbWFnZVJlYWR5ccllPAAAM+9JREFUeNrs3U9uG8faL+BOcOeHdwVpr+DIgCYcuTXRNPIKQq0g9gpsr8D2CsSswMqUEzEjTQiIWYGZFVydHdwusZjQjv5STbKq63kAonPw4Zu8gNz1/uqt6qoCAAAAAAAAAAAAAAAAAAAAAAAAAAAAAAAAAAAAAAAAAAAAAAAAAAAAAAAAAAAAAAAAAAAAAAAAAAAAAAAAAAAAAAAAAAAAAAAAAAAAAAAAAAAAAAAAAAAAAAAAAAAAAAAAAAAAAAAAAAAAAAAAAAAAAAAAAAAAAAAAAAAAAAAAAAAAAAAAAAAAAAAAAAAAAAAAAAAAAAAAAAAAAAAAAAAAAAAAAAAAAAAAAAAAAAAAAAAAAAAAAAAAAAAAAAAAAAAAAAAAAAAAAAAAAAAAAAAAAAAAAAAAAAAAAAAAAAAAAAAAAAAAAAAAAAAAAAAAAAAAAAAAAAAAAAAAAAAAAAAAAAAAAAAAAAAAAAAAAAAAAAAAAAAAAAAAAAAAAAAAAAAAAAAAAAAAAAAAAAAAAAAAAAAAAAAAAAAAAAAAAAAAAAAAAAAAAAAAAAAAAAAAAAAAAAAAAAAAAAAAAAAAAAAAAAAAAAAAAAAAAAAAAAAAAAAAAAAAAAAAAAAAAAAAAAAAAAAAAAAAAAAAAAAAAAAAAAAAAAAAAAAAAAAAAAAAAAAAAAAAAAAAAAAAAAAAAAAAAAAAAAAAAAAAAAAAAAAAAAAAAAAAAAAAAAAAAAAAAAAAAAAAAAAAAAAAAAAAAAAAAAAAAAAAAAAAAAAAAAAAAAAAAAAAAAAAAAAAAAAAAAAAAAAAAAAAAAAAAAAAAAAAAAAAAAAAAAAAAAAAAAAAAAAAAAAAAAAAAAAAAAAAAAAAAAAAAAAAAAAAAAAAAAAAAAAAAAAAAAAAAAAAAAAAAAAAAAAAAAAAAAAAAAAAAAAAAAAAAAAAAAAAAAAAAAAAAAAAAAAAAAAAAAAAAAAAAAAAAAAAAAAAAAAAAAAAAAAAAAAAAAAAAAAAAAAAAAAAAAAAAAAAAAAAAAAAAAAAAAAAAAAAAAAAAAAAAAAAAAAAAAAAAAAAAAAAAAAAAAAAAAAAAAAAAAAAAAAAAAAAAAAAAAAAAAAAAAAAAAAAAAAAAAAAAAAAAAAAAAAAAAAAAAAAAAAAAAAAAAAAAAAAAAAAAAAAAAAAAAAAAAAAAAAAAAAAAAAAAAAAAAAAAAAAAAAAAAAAAAAAAAAAAAAAAAAAAAAAAAAAAAAAAAAAAAAAAAAAAAAAAAAAAAAAAAAAAAAAAAAAAAAAAAAAAAAAAAAAAAAAAAAAAAAAAAAAAAAAAAAAAAAAAAAAAAAAAAAAAAAAAAAAAAAAAAAAAAAAAAAAAAAAAAAAAAAAAAAAAAAAAAAAAAAAAAAAAAAAAAAAAAAAAAAAAAAAAAAAAAAAAAAAAAAAAAAAAAAAAAAAAAAAAAAAAAAAAAAAAAAAAAAAAAAAYIt+UAKA9FweHx60j4FKAJm6Hk5mc2UAEAAA9K1ZD436Qfyf6/8d/NT+6u/+XxpVA7gx/e5/L9rfX2v/O4QI16v/Hk5m10oGIAAA2FZzv9qJr+PvP2sNvkYeYD+mawHB/6plcBB+Jg8ABAAADzb5dWzsf1pr9mvVAcjSYu33VwwKFsIBQAAAUE6j36w19q80+QBFhwN/rP57OJlNlQUQAADk2eivzuGHhv+n+N8HKgPAPebxFyYGQiDgzgFAAACQYMPfxAb/VXzWqgJABxYxFPgjBgJTJQEEAAC7a/bD7n6z1uw3qgLADk3XQoGpKQFAAADQXcNfrzX84VmrCgAJWcRQYBUILJQEEAAAPK7hH3zX8Du7D0BO5t8FAiYEAAEAwFrTH5r8k7WmHwD6YhUGnPsMISAAAEps+Fe7/D/Hxn+gKgAUIEwDnLe/3yvTAYAAAOhx019/1/QDQOnWw4CFcgACACD3pj80+79UzvIDwH3C8YDfquVRAWEAIAAANP0AIAwAEAAA+2v6B7Hp/1XTDwCdhwGfYxjgzgBAAADsrfFf7fQ70w8A2xfuDPhtOJmdKwUgAAB20fQfxKZ/VLm9HwD2IUwCjGMY4NOCgAAA6LTpN+IPAGlyRAAQAACdNP4HsekfqQYAJG8cwgBTAYAAAHhs02+3HwDyZioAEAAA9zb+dfXPbr+z/QCQv9VdAZ99ThAQAACh8W9i4+8mfwDor/MYBEyVAgQAQHmN/6gy5g8ApZnHIGCsFCAAAPrd9IfR/lXjX6sIABRrUS3vCRi7JwAEAED/Gv83sfF3vh8AWLmOQcAnQQAIAACNPwAgCAAEAIDGHwAQBAACAEDjDwAIAgABAKDxBwAEAYAAAND4AwCCAEAAAMU3/6P28VHjDwDsOAh4O5zMxkoBAgBg+43/SWz8a9UAAPZkEYOAc6UAAQDQfePftI937a9RDQAgEdP292E4mU2VAgQAwPMb/zo2/iPVAAASNY5BwEIpQAAAbNb8v69c8AcA5OHmosDhZPZeKUAAADy+8XfOHwDI1aJyPwAIAIAHG//Q8J9VzvkDAPmbtr9TxwIgHT8qASTT/L9vH181/wBAT4Q1zde4xgESYAIA9t/4h5dj2PWvVQMA6KlFtZwGmCoFCACgxMY/XOwXzvmPVAMAKMS4Wt4PcK0UIACAUpr/cMlf2PV3uz8AUJrQ/J+6JBAEAND3xr+ulrv+J6oBABQuBABvXRIIu+MSQNhd8/+mfVxp/gEAboQ10VVcIwE7YAIAtt/415VP+wEA3Gfa/l67GwC2ywQAbLf5v0m2Nf8AAPcKa6Wvce0EbIkJANhO4x8u9wu7/l5iAABPE+4GODUNAAIAyKH5b9rHl8oN/wAAmwrNfzgSMFUK6I4jANBt8x9u+L/Q/AMAPEtYS13EtRXQERMA0E3jf1AtR/4PVAMAoFPzankkYK4U8DwmAOD5zf+oWu76a/4BALoX1lgXcc0FPIMJANi88Q+jaWEszcsIAGA3xu3vrQsCQQAAu2z+jfwDAOyHIwGwIUcA4OnN/6gy8g8AsC+OBMCGTADA05r/sOvvZQMAkIbxcDI7VQYQAECXjX/dPr5Udv0BAFITjgIcuRcAHuYIADzc/Dft40rzDwCQpLBG+xrXbIAAADZu/kfV8rz/QDUAAJIV1mruBYAHOAIAdzf/zvsDAOTHvQAgAIBHN/43CXJl5B8AIFfuBYBbOAIA3zb/oel33h8AIG83a7q4tgMEAPCv5v+kWu7816oBAJC9sKa7iGs8oHIEAFbN/6h9nKkEAEAvnQ4ns7EyIAAAzb/L/gAA+s/lgAgAlICCG/9w2d9HzT8AQDkhQPt763JABABQXvPvpn8AgPL4QgACAND8AwAgBAABAPSl+T+Izf9ANQAAinYdQ4C5UiAAAM0/AABCABAAgOYfAAAhAOTjRyWggOZ/1D6uNP8AANwirBGv4poRes0EACU0/2cqAQDAI5wOJ7OxMiAAAM0/AABCABAAgOYfAAAhAAgAQPMPAIAQAAQAoPkHAEAIAAIA0PwDACAEAAEAaP4BABACgAAAzT8AAAgBEAAoAZp/AAAQAiAAAM0/AAAIARAAwN6a/4P2caUSAADswcvhZDZXBnLzoxKQafN/oRIAAOzJRVyTQlZMAJBr8z9QDQAA9ui6/R2ZBEAAANtp/kPT/1XzDwBAQiHAi+Fkdq0U5MARAHJq/u38AwCQkps1alyrggAAOmz+nbMCACA17qdCAAAd+qj5BwAg5RDg8vjQ56lJnjsASFr8h3SkEgAAZGA8nMxOlYFUmQAg5eZ/pPkHACAjo7iGhSSZACDV5v+kfXxRCQAAMvR6OJmdKwMCAHi4+V9dpOI2VUq3iL+7hE8O/alMwI7994F39IF3ONy8o4+Gk9lcKRAAwN3Nf1gwXLW/WjXoqXlcFITn/9b++2axYKEA9PDdvh4INPH5U3zX19759Nii/b1s3+3XSkEq/o8SkJgLCwF60uSHl/6f1T+7+HMLAKBE3wWb0ztCglUQsAoLXgkH6IE6rm1fKgWpMAFAMtz4T4ZWu/d/rDX5dvABul0fNLGR+m8MCBpVITO+DIAAAL57uYfG37dTSd10reEPzf5CSQD2sm44iGHAq/g8UBUSd9quG8bKgAAAL/Flsn+hEiTa8Idmf9q+tKfKAZDsWiIcG2hiINAIBEjUkfUEAgC8sKvqa+W2YNIwj03/717QAL0IBH6Oz1pVSEA4OvjCnUAIACj5BR1u/JfSs0/hG72/V8td/oVyAPRyvbG6O+AX6w72LBwhdCkgAgCKfBm79I99uF41/e0L+Fw5AIpbf4TpgJNqOR1woiLsgUsBEQBQ3Ms3NP4u/UPTD4AwgBK5FBABAMW8bMPoXbj0z7l/tm3V9HvBAvCYMGBUOSbAboTNiSOfD0YAQAkv1wsvVrYovEh/q5bjdS7ZAWCT9UrdPn6tllMBtYqwxTXLkfUKAgD6/EJ17p9tWI34f5akA9Dx2iWEAL9UjgiwHe4DQABAb1+gofF37p8uLULTX9ntB2D765i6Wk4FhPWMY4x0yX0ACADo3UvTuX+6NK2Wu/0u9ANgH+uaEAK8qxwPoBvuA0AAQO9elFeVc/8837j9fWhfkAulACCB9U0Tg4BGNXimebu+eakMCADow8vxY/t4oxJsaHW+X+MPQKprnbDJsToeAJv61K513ioDAgByfiE21XL0HzZp/D/Hl6Hz/QDksO6pq+VEgCCATYWjAFNlQABAji/BcN7/a+XcPxp/AAQB8Nh10AtrILblRyVgi840/zzROL703nvxAZCrcGQtftrtRXy3wWMNKl/NYotMALAV8Zu5X1SCJzT+zvgD0Nd1UVO5LJCnee1rRwgAyOUlZ/Sfx5q2v7c+ewNAQUFA2N2tVYMHOArAVjgCwDZ80fzzgEW1TLZ98xaAYoTL3dpfOBbwNjZ4cJdBZZqWLTABQKcujw/D5/4+qgR3uLngL5zxVwoACl8zhQYvHAvwqWTuEyYlPykDAgBSfJHV7eOqsvvP7c7jS2yhFADw9/rpoFpunjSqwS3C5slL6ye64ggAXfqo+ecW4YUVxv1fe3kBwLfCUbhwJK79z9PKsQD+bVCZrqVDJgDohFv/uUMYWfvgAhsAeNR6avUJuBPV4Du+CoAAgKReVm79Z1242O/UBX8AsNHaqql8LYBv+SoAnXAEgC4Y/Wdd2PF/qfkHgM2ErwW0j5fVcpIOqspRADpiAoBniQn1hUpQ/XPWX+MPAN2utXximZWjGBDBRkwA8FxnSkC13KGw6w8AHYvN3otq+TUdsPbmWUwAsLHL48P31fL7tZQrnEM7dSkNAOxk7TWqHL1kedzyvTIgAGCXL6C6Wl78R7mm1XLk32U0ALDbNVg4EnCgGsUKa6+XPq/MJhwBYFPGj8oWkucjzT8A7FZo+sJlu5ULAks2sBZnUyYAeLLL48PwbdovKlGk0PC/dvkMACSzJjurHAko1WvHMHkqEwBswidIyhQu+Huh+QeANMTm7yi+o7EmBwEA3YoX/9UqUZxxGDc08g8AyYUA8xgCjFWjOHVcm8OjOQLAU5r/0PhfVcbMShNu+beoAID012pvKrvCpXEhIE9iAoCneKf5L/KFovkHgAy07+xwMeBRfIdThkHls9w8gQkAHuXy+LBpHxcqUYwwTvhamgwAWa7bwicCw+WAPhVYjiP3NPEYJgB4LMliOabxJaL5B4AMrd0L4HJAa3X4hgkAHuSzf0UJl/2dKgMA9GYdFyYBRipRBJ8F5EEmAHgMl8mU4ZPmHwD6Jb7bxyphzQ4CAB50eXw4qnz2rwThpv+3ygAAvQ0BhPz9V8e1O9zJEQDua/7DraJfKzf/l9D8j5UBAHq/tgvN4ZlK9Fr4AsSLdm3nSxDcygQA93mj+e/9C+K15h8AyhDf+SYB+m0Q1/BwKxMA3MrufxHN/1G8JRgAKGudFz4PeGGd1+t1nikAbmUCgLvY/df8AwA9tPaZQA1iP5kC4E4mAPgXu/+afwCgiDWfSYB+r/lMAfAvJgC4jd1/zT8A0HMmAXrNFAC3MgHAN+z+a/4BgOLWfyYB+rv+MwXAN0wA8D27/5p/AKAgJgF6yxQA/2ICgL/Z/e+tU5/6AwAesRY8aR9fVKJXTAHwDRMArLP7r/kHAArVrhnOw9pBJXrFFADfMAHADbv/mn8AgLguHLWPM5XoDVMA/M0EACt2//vlk+YfANhEXEN8UIneMAXA30wAYPe/f8bti9v4HgDw3DVimAIYqUQvmALghgkAghPNf29MNf8AQBfimuJcJXphENf8CACgeqcEvRA+4fNaGQCADp3GNQbW/AgAyF285KVWieyFca5TY10AQJfi2uIorjXIWx3X/ggAKNivStALr9sXtHQeABACcJ9flEAAQKEujw+b9nGgEtkLO/9TZQAAthgChI2GtyqRvSb2AAgAKJDd//yNfe4PANhRCBDWHJ9UInumAArmM4CFujw+rKvlp//I17x9Eb9UBgBgx+vIi/bRqETWwicBF8pQHhMA5bL7n7dwBs+N/wDAPoQ1iOZRL0CGTAAU6PL4MHwHNOz+D1QjW0fO/QMAe1xPhnukrlQiW2Ez6YUvSJXHBECZTjT/Wfug+QcA9smlgNkbxJ4AAQAFMPKTr2n7wn2vDABAAiFAuBDwXCX0BAgASFQc1/Lpvzw59w8ApOa0ch9Arg5ib4AAgB6T9GX8gnVOCwBISVybnKqE3gABAImJl/8565OnT+0L1ogdAJBiCDBtHx9UIksnsUdAAEAf/8Arl//laOGlCgAkHgK8bx9zlciODUIBAD1mxCdPRv8BgCzWLEqgR0AAQAJc/pctn/wDALLg04DZchmgAIAe+kUJsjP3yT8AILMQIHwacKoSegUEAOzXSAmyI0EHAHLkKIBeAQEA+3J5fOjyv/x8MvoPAOSoXcMsKhcY52YQewYEAPSAkZ68eGkCALmHAO8rXwXQMyAAYLfidz2leXl569Z/AKAPaxolyMpJ7B0QAJDzH7ISZOW8bf7PlQEAyF08zvhJJfQOCADYHaM8+Qi7/pJyAKBPPsQ1DnoHBABs0+XxYd0+GpXIxud4aQ4AQC/EY402OPLRxB4CAQAZMsKTj0W8LAcAoG8hwLh9TFVCD4EAgO0ywpMPyTgA0Ge+cKSHIAE/KEE/xdGdryqRhelwMjtSBgCg5+vTs/YxUoksvHA0tZ9MAPSX0Z182P0HAEpgCkAvgQCALTG6k4fxcDKbKwMA0HdxR1kIoJdAAECXLo8PB+3jQCWy4CUIAJTkU+WzgDk4iD0FAgAyYGQnkxegs1UAQEniZwE/q4SeAgEA3flZCZIXXn52/wGAEpkC0FMgAKALcVRHWpe+zzEBBwAoSlwDuQQ5fSeOAQgASF+jBMkLL71PygAAFBwCjNvHQiX0FggAeB6jOumz+w8A4Dik3gIBAM/WKEHS7P4DAFSmAPQWCAB4lsvjw/Dpv1olkmb3HwDgH78pQdLq2GMgACBBjRIkb6wEAAB/80UAPQYCADbkjE7izf9wMlsoAwDAUpyM/KwSegwEADxB/ERHoxJJc9ENAMC/uR8pbY3PAQoASPAPUwmSdm73HwDg3+IUwFgl9BoIAHi8V0qQNKNtAAB3Mymp10AAwBM0SpCsxXAymyoDAMDt4qSk9ZJeAwEAD4lncnyeI10SbQCAh5mYTNeBewAEAKSjUYJkhTNt58oAAHC/4WQW1kwLldBzIADgfs7kpOs8XmwDAMDDflMCPQcCAO7XKEGyjP8DADzeWAn0HAgAuIPz/0mb+/QfAMDjxbWT45Npcg+AAIAENEqQLBfZAAA8nWMAeg8EANzBWZw0ufwPAGAD8TJAdyjpPRAAcAvj/2ly+R8AwObGSqD3QADAvzVKkKTflQAAYGOOAeg9EACw7vL40B9gmhZxdA0AgA20a6l5WFOphB4EAQD/MIKTJs0/AMDzuVBZD4IAgDX/VYIkGVkDAHg+myp6EAQArJG+pWcRR9YAAHiGdk21aB/WVXoQBABcHh8O/PElSVINANAdk5UJBgCxF0EAwC7/8JTASwoAoOdsruhFEADgjy5J18b/AQC6E48BLFRCL4IAoHQu30iPhBoAwBpLL4IAgM5J3dLzuxIAAFhj6UUQAOCPrueGk5l0GgCg+zXWtH1cq4ReBAFAkS6PD/3BpUfzDwBgraUnQQBA5/yxpecPJQAAsNbSkyAAoGu1EiRnqgQAANZaehIEAHTtlRIkZeHzfwAA2xM/B2i9pSdBAFCkgRIkZaoEAADWXHoSBABsg/M2aXEmDQDAmktPggCAbrltM0lTJQAAsObSmyAAoGtGbdKyiGfSAADYonbNdV25B0BvggCgMI0SJMVLCADA2ktvggCArfiPEiTFWTQAAGsvvQkCALbCOZu0SKEBAKy99CYIANiKWgnSMZzMpqoAALCztZcAQG+CAMAfGXuh+QcAsAbTmyAAoHuXx4f+wNIigQYA2D33AOhREAAUwR9XWv5UAgCAnVsogR4FAYA/Lrx8AAD6zxSmHgUBgD8udssFgAAAe1mDCQD0KAgAiuA7m+nw4gEAsBZDjyIAYGt8ZzMdCyUAABAAoEcRAED/uQAQAGB//lICEAD0nXQtHVJnAABrMfQoAgC2ZqAEybhWAgCAvVkogR4FAQDshC8AAADsdS1mAgAEAP11eXzYqEIy7P4DAFiToVcRAEABJM4AANZkIACAAkibAQD2b6EEIADoq0YJkuETgAAA++dTgHoVBAAAAEABTGWCAAC2bqoEAAB75w4AEAD01k9KAAAA6FUQAPRfrQTJWCgBAMDemQDQqyAAgO0aTmYCAACA/a/J3AEAAgAAAABAAADPY9QMAMDaDAQAbNWBEiTBqBkAgLUZehUBAFs1UAIAAECvggAAAAAAEABAR5wzAwCwNgMBABTgf0oAAGBtBgIAAAAAQAAAAAAACAAAAAAAAQAAAAAgAAAAAAAEAAAAACAAAAAAAAQA7Nfl8WGtCgAAAAgAem44mS1UAQAAAAEAAAAAIAAAAAAAAQAAAAAgAAAAAAAEAAAAAIAAAAAAABAAQH5+UgIAgGT8RwlAAADbUisBAEAyDpQABAAAAACAACBL10oAAADoVRAA9N9cCZJQKwEAgLUZehUBAHjJAABgbQYCAAAAAEAAAFm4PD502ywAwP7XZLUqgACgrxZKkIyBEgAA7J0AQK+CAKC3/lICAQAAAOhVEADA7jgCAACwf40SgAAAAAAAEABka6oEyXilBAAAe/dfJdCrIACAbXMHAACANRkIAKAA7gAAALAmAwEA2zGczKaqkA7fnQUA2DsTAHoVBACwEwIAAIA9uTw+bFQBBAB9d60EyTByBgCwP7US6FEQAPTdXAmS8ZMSAAAIANCjCACg/0wAAADsj08AggCg96RrAgAAAEwA6FEQABTgf0qQjIEvAQAA7I3NGD0KAoDeWyhBUgQAAAA75gsAehQEAP642AcvHwCA3auVQI+CAMAfF7vm8hkAAGswPQoCALo3nMz8caWlUQIAgJ1z/l+PggCgGP7A0uEiQACA3WuUQG+CAMAfGfsggQYA2BEXAOpNEACUxnc20/JKCQAAdsbmi94EAUBRfGczLY0SAADsjM0XvQkCgKJMlSApB5fHhwNlAADYzdpLCfQmCABKcq0EyWmUAABgu+Lly7VK6E0QABRjOJk5Z5Meo2gAANvXKIHeBAFAifyheRkBAJTGpoueBAFAkYzapMU9AAAA29cogZ4EAUCJ/lCC5JwoAQDAdlweH4bL/2qV0JMgACjRQgmSYyQNAGB7GiXQkyAAKJXzNukxAQAAsD02W/QkCADK5LbNJA3iaBoAAN2z2aInQQBQNH9w6flFCQAAunV5fKj514sgAPBHpwTJaZQAAKBzPyuBXgQBQOn+VILkhM8B1soAANApEwB6EQQAxZO6eUEBAPRavGNpoBJ6EQQA/uhIkXsAAACsrfQiCADoznAyu/aHlyTHAAAAumO6MsHmP/YiCADY9R+fEnhRAQD0URz/r1VCD4IAgCWXb6TpVyUAAHg24/96EAQArJG+pamOiTUAAJszVakHQQDAynAym6pCsiTWAAAbujw+DM1/rRJ6EAQAfMsfYJpGSgAAsLGflUDvgQCAfzOCk6ZBTK4BAHiCdg01qIz/6z0QAHCrP5QgWY4BAAA8XWj+B8qg90AAwL9NlSDdl9fl8WGtDAAAT+KLSnoPBADcZjiZXVdGcVI2UgIAgMeJX1LyNaU0zWPvgQCAPZsqQbIcAwAAeDy7/3oOBAA8wFmcdNWXx4cjZQAAuJ/L//QcCAB4nKkSJM0UAADAw1z+p+dAAMBD3AOQvOby+LBRBgCAe71TgmQ5/y8AIDFTJUiaKQAAgDvEzZJaJfQaCAB4HGdy0jbySUAAgDvZ/ddrIADgCaZKkDy32gIAfCdukjQqoddAAMAjxTM5/jDTNoq32wIA8A+7/4k3/87/CwBI0+9KkLTQ/L9RBgCApbj7P1IJPQYCAJ5uqgTJ+9UUAADA3zT/egwEAGxiOJmFTwEuVCJppgAAAKqb3f+wLnJHUtoWscdAAECipkqQPFMAAADLTRFrIr0FAgCewRmd9JkCAACKZvdfb4EAgG5MlSALpgAAgJLZ/ddbIADgueInOs5VInmmAACAItn9z8a5z/8JAMiDUZ08/Bo/fQMAUJJ3ld1/PQUCADpjAiAPg/gCBAAoQtz8MAWpp0AAQFfiqI7PdeRh1L4ID5QBACiEzY88zI3/CwDIy29KkI2PSgAA9F3c9BiphF4CAQDdM7KTj6Z9IZ4oAwDQczY99BIIANiG4WS2qBwD8EIEAEhA3OxoVCIL89hLIAAgM0Z38lG3L8b3ygAA9JTNDj0EAgC2zOhOXnwWEADonbjJYY2jh0AAwDbF0Z2pSmQjfBZQOg4A9Kn5D43/ryqRjanxfwEAeTPCk5cTFwICAD0SNjcGyqB3QADAbhjhyfBFeXl86EUJAGQtbmrY2NA7IABgV4aT2bU/5OzU7e+dMgAAGTf/jjZm2PzH3gEBAJkzypOfN+2Ls1EGACBTYTOjVgY9A2n5QQnK0DaT/69y/io3i/b3UhILAGS27mzax4VKZOW6XXP+X2XoPxMA5RgrQXbqylEAACA/Rv/1CggA2DMjPXlyFAAAyEa7bnnfPg5UQq9AmhwBKOsf5Cv/IGdpUTkKAACkv9ZsKqP/OZq368yXylAGEwBl+awEWaoro3QAQNrNf7hr6kwl9AgIAEhH+BygXeQ8jeK3dAEAUuTW/zz5ZLgAgL6KI+T+wPN1dnl86MUKACQlblK8UYksnTtmKgCg34z45MtoHQCQWvNvfaI3QABAqoaT2bx9zFUiW028XRcAIAVfquUmBfmZx94AAQA9J+nL2zv3AQAA+xY3JRqV0BMgACBtLgPMn/sAAIB9Nv+h8X+nEtlyN5gAgFLEiz7GKpG1MGr3JZ67AwDYZfNfV8vRf/I1dvmfAICyGPnJ30H7+6gMAMCOOfevF0AAQE6Gk9miMgXQB6PL48ORMgAAu9CuO8KN/wcqkbVx7AUQAFCY35SgF87iOTwAgG02/6P2MVIJPQD5+kEJiv+H/KqS4vZBOMN15FMuAMCW1oxN+7hQieyFT/+9VIZymQDA+Z9+COfwzlwKCABsofkPm0Uu/bP2RwBA7oaT2bh9LFSiF8LLWTIPAHTZ/N9sMlQu/euDRVz7IwCgcB+UoD8hQLycBwCgC2FzwXFRa34EAPTIebU8Q04/hC8D+DwgAPAsbvzvleu45kcAQOmGk1n4B8F5oH554/OAAMAzmv+wmWAt0R+f45ofAQDc+FSZAuibMyEAALBB8x/WD29Uojeu41ofBAAsmQLodQhwogwAwBOaf/cJ9YvdfwQA3MoUQH9DAOf3AADNf3ns/iMA4HamAHorfLbnQggAANzT/Id1gkuE+8fuPwIA7mUKQAgAAJTX/F/E9QL9YfcfAQD3MwUgBAAANP/0gt1/BAA8iikAIQAAoPknX3b/EQDwOKYAhAAAgOafrNn9RwDAk5gCEAIAAJp/8mP3HwEAT2MKoKgQYKQUAFBM8z/S/Pee3X8EAGzEFEAZIcCZEAAAimn+zzT/vWb3HwEAm4nJ4VuVKIIQAADKaP7pt7d2/7nPD0rAI14YX9tHrRJFGLcvjVNlAIBereU+to83KtF7i3Yd90IZuI8JAB7DFEA5Ru0iIUwDGA0EgH40/2eaf2t2WDEBwGNfHuGymEYlijFvf0dGyAAg27VbCPO/WL8VY9qu246UgYeYAOCxPihBUcLnga58JhAAsmz+62p507/m31odBAA83XAym7aPsUoU5Wbx0C4iTpQCALJp/m9C/GoZ5lOGcVyrgwCAToVk0Uh4WW7GB9vFhLODAJB+8z+Kzb+7fMpxXdn9RwDANgwns0X7+KwSRfrockAASLr5D5f9+cxfeT7HNTo8iksA2eQF47OA5QqXA562L5q5UgBAEuuyEM6H8/5G/svjs388mQkANuETI+UKiwv3AgBAGs1/0z6+av6tyUEAwNYMJ7Pz9jFViWKt7gX4qBQAsLfm/3213Pl3PK9M07gmhydxBIBNXzp1tUycKZsjAQCw2zXYTRBf+cRf6V44+88mTACwkfgPjhtHWR0JGCkFAGy9+Q9H8L5q/ov3QfPPpkwA8NwXkQsBWQljaGEawKciAaDb9VbY9X/X/nyWFxf/8SwmAHiuUyUgutmVcEEgAHTa/IdpuyvNP9bedMEEAF28mMI3Z0cqwZpP1XI8zTQAAGy+xnpfLXf+IRi3aysBAM9iAoAuhE+QaPRYF3YprkwDAMBGjf9B+7vS/LPmuvLZPzpgAoCuXlSh0fuiEtzC3QAA8Lj1lLP+3OW1z/7RBRMAdCL+g+QfJW6zuhtgpBQAcGfzH96Xzvpzm3PNP10xAUCXL646vrgGqsEdpu3vbfsSmysFAPy9fvpYLQNz+F6YoHxhkhIBAKm+xN7ElxjcxyWBAFg3LS/5+7WyecLdwsbJJ2VAAEDKL7OL9tGoBA+4ji+1sVIAUNhaKez2hw2TWjW4x7RdJx0pAwIAUn+phRT7ayXN5nEW1fKSwKlSANDzNVJTLS/5a1SDBxj9RwBAVi84XwXgqUIA4H4AAPq4Lqpj4z9SDR7Jrf8IAMjuZRcCABfa8FTjank/wEIpAMh8LRSmIT9q/HmicOv/a2VAAECOLz1HARAEAFDiGihcjOyCP57K6D8CALJ+ATbt40IlEAQAoPGHBx25FwkBALm/DD/GlyEIAgDo41qnrpZn/E80/jzDp3ad81YZEADQhxfjVfs4UAk6EC7E+SwdByCB9U1Y24Td/pFq8Ezzdm3zUhkQANCnF2Q4CiAVpyshAPitfVmOlQKAHa9rTmLj36gGHQjn/Y98CQkBAH17WY7ax5lK0LFFCAKq5dicC3MA2NY6JmxijGLjX6sIHTq1oYEAgL6+PM8qY3JsT3h5/uZ4AAAdrl1WY/7O97OVtUu7bjlVBgQA9PUlGl6c4SiA+wDYpkX7+1wtv6O7UA4ANlivjCq7/WxXGPk/MsGIAIC+v1TdB8AuhUsDfzdaB8Aj1iih6f+5Wu72wzY5948AgOJesO4DYNcv2lUYcK4cAMQ1ycla029zgl1x7h8BAMW9cN0HgDAAAE0/pXHuHwEAxb6Aryr3AbD/MGAawoBqeWeAc3gA/Vtv1NXyk33G+9m3ebvWeKkMCAAo9YUcUvevlfSdhF7MMQyY+poAQNZrjNDov4qNv80GUhA2GV7YbEAAQOkv6PBSvlIJEhWOCPxRLRN7gQBAuuuJJjb7q6YfUvPSpX8IAKByKSBZma4CgWo5JSDFB9j9uqGulrv6dvjJhUv/EADAdy9zlwKSo0UMA/6M4cCifcEvlAWgs/XBQWzw69jwh/92dJCcuPQPAQDc8ZJ3KSB9MY3hwF/xv6+N/QHc+f4frDX54fff+LQmIHcu/UMAAA8sAK7iSx/6KBwZmMfnn6vFQfzflXsGgB6+29d37Ff//VN81w80+fTYolqe+3dcEAEAPLBQuKiM98EqLLjPH8oE7NirB/7vdSXIh/AOPzL9hwAAHhcChE/3fFEJAAAy9Lpt/s+VgdT8qASkKP6D6bIUAAByc6r5RwAATw8Bxu1jrBIAAGTik8/9kTJHAEiezwMCAJABn/tDAAAdhQA+DwgAQKp87o8sOAJALo6qh29DBwCAnTf/ca0KyTMBQDYujw/DZwG/Vj4PCABAGsLn/l4MJ7NrpSAHJgDIRvyH9Sj+QwsAAPtu/o80/+TEBADZuTw+DHcBXFQmAQAA2G/z74gqAgDYUQhwpRIAAOzBS80/OXIEgCzFf3B9ZgUAgF071fyTKxMAZO3y+HDUPs5UAgCAHTX/Y2VAAABCAAAANP8gAAAhAAAAmn8QAIAQAAAAzT8IAEAIAACA5h8EACAEAABA8w8CAIQAAACg+UcAAEIAAADQ/CMAACEAAACafxAAgBAAAADNPwgAIJkQ4KB9XLS/gWoAALDmuv0dtc3/XCkQAIAQAAAAzT8IAEAIAACA5h8EAJBiCDCIIcCBagAAFGkem/9rpUAAAEIAAAA0/yAAgB6FAB/b30g1AACKMG4b/1NlQAAA5QYBZ0IAAIDe+9Q2/2+VAQEACAFCAHCmEgAAvXTaNv9jZUAAAKxCgJMYAvhCAABAP1zH5v9cKUAAAN+HAOFSwC/tr1YNAICsLdrfa5/5AwEA3BcC+EIAAEDe3PQPAgB4UhDgckAAgPy46R8EALBRCBACAJcDAgDkwWV/IACAZ4UATbW8F8DlgAAAaQqj/uG8/1QpQAAAzw0B3AsAAJAm5/1BAABbCQLcCwAAkA7n/eEJflQCeLz4ggk/CTMAwP6Etdip5h+exgQAbODy+DAcBQjTAI4EAADs1jw2/3OlgKcxAQAbiC+co/Y3Vg0AgJ0Ja68jzT9sxgQAPFP8VODHylcCAAC2JYz8v/WJPxAAQAohgCMBAADbYeQfBACQZBAQJgHeqAQAQCc+tY3/W2UAAQCkGgI07eNL5UgAAMCmwsj/67b5nyoFdMclgNCx+KJ60f7OVQMA4MnCGuqF5h+6ZwIAtujy+PCkWt4NYBoAAOB+Ydc/nPW3iQICAMg2BAjNfzgS0KgGAMCtptVy5P9aKUAAAH0IAsLlgO8q0wAAACuh4f/QNv6flAIEANC3EKBuH+FLASeqAQAULoz6v22b/4VSgAAA+hwEuBsAACiVs/6wJ74CAHsQX3jhSwFj1QAAChLWPi80/7AfJgBgzy6PD5tqOQ1QqwYA0FOLarnrP1UKEACAIOD48H21vCQQAKBPwiV/75UBBADAtyFAXS2nARrVAAAyN62Wu/4LpQABAHB3EBAuCQxfC6hVAwDITGj43zrnDwIA4GlBwPv28WvlawEAQPrC7f6fjfuDAADYPASoq+XdACPVAAASNa6WZ/0XSgECAOD5QUATg4BGNQCARExj4z9VChAAAN0HAe4HAAD2bVE55w8CAGBnQcAoBgHuBwAAduU6Nv5jpQABALDbECA0/28qFwUCANtv/D+3v09t83+tHCAAAAQBAIDGHxAAAIIAAEDjDwgAAEEAAKDxBwQAgCAAAND4AwIAQBAAAGj8AQEAsBYEjGIQUKsIABRrERv/scYfBABA/8OAVRBwoBoAUIx5aPzbpn+sFCAAAMoLApoYBJyoBgD01nls/KdKAQIAQBBQxyBgVLknAAD6IIz2j2Pjv1AOQAAAfB8EhOb/pHI8AABydTPm3/7One8HBADAY8OAg+qf4wGmAgAgXaHRX435z5UDEAAAmwYBpgIAIE12+wEBALC1MCAEAL9U7goAgH1Zne3/zW4/IAAAdhUGnMQwwBcEAGD7zmPTf64UgAAA2FcQ4IgAAGzHNDT9lRF/QAAAJBgG1DEM+EUYAAAbma81/QvlAAQAgDAAADT9AAIAIMkwoGl/P1fuDACAIJzl/739TTX9gAAA6GsYMPguDPA1AQBKcP1d0+9MPyAAAIoLBA5iEPAqBgMA0BfT9vdHtRzt98k+QAAAsBYGrKYDVmGAuwMAyMl8rem3yw8IAACeEAjUa4HAgUAAgAQb/vlaw79QEkAAANBNIDD4LhBoVAWAHZp+1/Db4QcEAAA7DAWaGAasQoFaVQDowCI2/H+Gpr9t9qdKAggAANIKBAbVP9MBP1WODgDwsNUo/1+x6Z/b3QcEAAD5BgMhEKjj79XafwNQjkX8/RGfc7fzAwIAgHKCgdWxgfD8aS0YEA4A5N3kh1/Y0Q8N/kKjDwgAAHgoHBisBQL/qf45TtCoEMBeTOMzNPT/W2v2rzX5AAIAgG2GBIO1UGD9v4PVRMG6RtUAvmnkV0IT/9fa/w7N/OocvjP5AAIAgP5ZmzwAyJGdeAAAAAAAAAAAAAAAAAAAAAAAAAAAAAAAAAAAAAAAAAAAAAAAAAAAAAAAAAAAAAAAAAAAAAAAAAAAAAAAAAAAAAAAAAAAAAAAAAAAAAAAAAAAAAAAAAAAAAAAAAAAAAAAAAAAAAAAAAAAAAAAAAAAAAAAAAAAAAAAAAAAAAAAAAAAAAAAAAAAAAAAAAAAAAAAAAAAAAAAAAAAAAAAAAAAAAAAAAAAAAAAAAAAAAAAAAAAAAAAAAAAAAAAAAAAAAAAAAAAAAAAAAAAAAAAAAAAAAAAAAAAAAAAAAAAAAAAAAAAAAAAAAAAAAAAAAAAAAAAAAAAAAAAAAAAAAAAAAAAAAAAAAAAAAAAAAAAAAAAAAAAAAAAAAAAAAAAAAAAAAAAAAAAAAAAAAAAAAAAAAAAAAAAAAAAAACA/88eHBAAAAAACPn/uiEBAAAAAAAAAAAAAAAAAAAAAAAAAAAAAAAAAAAAAAAAAAAAAAAAAAAAAAAAAAAAAAAAAAAAAAAAAAAAAAAAAAAAAAAAAAAAAAAAAAAAAAAAAAAAAAAAAAAAAAAAAAAAAAAAAAAAAAAAAAAAAAAAAAAAAAAAAAAAAAAAAAAAAAAAAAAAAAAAAAAAAAAAAAAAAAAAAAAAAAAAAAAAAAAAAAAAAAAAAAAAAAAAAAAAAAAAAAAAAAAAAAAAAAAAAAAAAAAAAAAAAAAAAAAAAAAAAAAAAAAAAAAAAAAAAAAAAAAAAAAAAAAAAAAAAAAAAAAAAAAAAAAAAAAAAAAAAAAAAAAAAAAAAAAAAAAAAAAAAAAAAAAAAAAAAAAAAAAAAAAAAAAAAAAAAAAAAAAAAAAAAAAAAAAAAAAAAAAAAAAAAAAAAAAAAAAAAAAAAAAAAAAAAAAAAAAAAAAAAAAAAAAAAAAAAAAAAAAAAAAAAAAAAAAAAAAAAAAAAAAAAAAAAAAAAAAAAAAAAAAAAAAAAAAAAAAAAAAAAAAAAAAAAAAAAAAAAAAAAAAAAAAAAAAAAAAAAAAAAAAAAAAAAAAAAAAAAAAAAAAAAAAAAAAAAAAAAAAAAAAAAAAAAAAAAAAAAAAAAAAAAAAAAAAAAAAAAAAAAAAAAAAAAAAAAAAAAAAAAAAAAAAAAAAAAAAAAAAAAAAAAAAAAAAAAAAAAAAAAAAAAAAAAAAAAAAAAAAAAAAAAAAAAAAAAAAAAAAAAAAAAAAAAAAAAAAAAAAAAAAAAAAAAAAAAAAAAAAAAAAAAAAAAAAAAAAAAAAAAAAAAAAAAAAAAAAAAAAAAAAAAAAAAAAAAAAAAAAAAAAAAAAAAAAAAAAAAAAAAAAAAAAAAAAAAAAAAAAAAAAAAAAAAAAAAAAAAAAAAAAAAAAAAAAAAAAAAACAmwQYAASIulYlj2AwAAAAAElFTkSuQmCC;" vertex="1" parent="1">
          <mxGeometry x="1180" y="174.5" width="60" height="60" as="geometry" />
        </mxCell>
        <mxCell id="2qO8lxWROJ69_FPcfv2y-3" value="" style="shape=image;verticalLabelPosition=bottom;labelBackgroundColor=default;verticalAlign=top;aspect=fixed;imageAspect=0;image=data:image/png,iVBORw0KGgoAAAANSUhEUgAAAgAAAAIACAYAAAD0eNT6AAAACXBIWXMAAAsTAAALEwEAmpwYAAAgAElEQVR4nO3deZgcVbn48Q4ElEUwmVMzBFkUcRdQJlUTFh2magKoKCqOehWFpE9VIFxEXHC7PwNuFxUXVFC84nZdMG4gimLInNMJBC4GEQwq4sYmIluY6kkIkPTveauHJZBllq4+1d3fz/Oc/2BS51R1vafO8p5SCQAAAAAAAAAAAAAAAAAAAAAAAAAAAAAAAAAAAAAAAAAAAAAAAAAAAAAAAAAAAAAAAAAAAAAAAAAAAAAAAAAAAAAAAAAAAAAAAAAAAAAAAAAAAAAAAAAAAAAAAAAAAAAAAAAAAAAAAAAAAAAAAAAAAAAAAAAAAAAAAAAAAAAAAB2k1t8/3fU1AACAJhs9rK+PTgAAAB3m7iODXUajvsT1dQAAgCZLI/9rawZ796LhAQDoIGnY9+Y08n/q+joAAECTpwHSMFiXDgQhDQ8AQAdJw2BFGvm/qw0Nbev6WgAAQJOkof+JahTUqoN+TKMDANAhRsPZr5YOQBr5t9X6+5/q+noAAEATrBk4aO9sBEA6AWHfKTQ6AAAdoFYqTauGwer6KEBwR+2o3h1dXxMAAGiCauRf99goQPBOGh0AgA6Qhv7PH+0ARP4/SBEMAEAHSMPgm490ALJOwKD/RtfXBAAAclaN/C9u1AGI/KtodAAA2lwa+Z98fAcgK+GcA11fFwAAyFE1Cs56Ugcg8r9IowMA0MaqYXD2k0cA/HtIDAQAQActAnzclsAh19cGAACasA1w41GA4Ac0OgAAHZAI6AnrANLanDk7uL4+AADQYLXe3u3SMFi36Q5AUBsd6HsNjQ4AQJtJ585+8eaC/9g0wDmurxEAADRYGva9eSsdgBtpdAAA2kwa+p/YYgcgCmprDp+9p+vrBAAADZSGwdVb6wCkkf9WGh0AgDaRzj2oOw2D9VvrAFRD/7OurxUAADRINQrmbzX417cDLqPRAQBoE9XQ/9E4OwAjtVJpmuvrBQAAU3T3kcEukuhnfB2AoFY9oncWjQ4AQItLI//kcQf/KKiNhMHLXF8zAACYomoUrJpIB6Aa+sfT6AAAtLA0DAYmFPzr5QOurxsAAExBNfJ/OPEOgP85Gh0AgBaVhn37j2vv/5NTAn/H9bUDAIBJSqPgZ5MY/pdsgD+l0QEAaEGjYW+QRsGGSXYAfuH6+gEAwCRUI394MsF/bApgCY0OAECLGQmDN0w6+NMBAACg9dw72LtrGvm3TaUDIGsHXNcDAABMQBr6503p679eFtPoAAC0CEnhO9mFfxuNAIT++a7rAgAAxuHO/v6dq2FwYwO+/qUD8AkaHQCAFpCGwTcbEfzHtgG+w3V9AADAVqSR/9ZGBX8pI1HfMTQ6AAAFtnqg99nV0L+/kR2AdHDOfq7rBQAANqM2Z84OaeRf09DgHwUbakf17kijAwBQQLVSaVo18r/XyOA/Nv//d9d1AwAAm1EN/Q81OviPFXIAAABQRKNRcPSkjvkdTwn997muHwAAeILqQHBANfLTnL7+a2nUdxiNDgBAgaw5fPaeaRjckl/w99fKwkLX9QQAAGNG+ntVNQr+lFfwrxd/KQ0OAECB0vymYXB1vsFf5v+D01zXFQAAyHa/I/d9Shr5l+Yd/GX//9q5wbNodAAAHKv19m6Xhv6FuX/51+f/r3JdXwAAOl5taGjbahhc0IzgP9YBeFfHNzoAAM6Dfw5Z/rY0/L9m4KC9uesAADhS6++f3swv/6wDEAYruOEAADhSG3rh9tXQ/1Ezg39WBvrmcdMBAHC32v+ipgf/MPh3rb//qdx0AACarDZ3/52qYbCk6cG/vvjvDG44AABNtvrQQ2fIHLyT4B8G66pH9M7ipgMA0ESjgwfvnkb+71wE/3oHwP8WNxwAgCZKB+fsl0b+bc6CfxRsqIZzDuSmAwDQJHLkbjUMVrsK/vXi/5AbDgBAk4wMzn69HLvrMvinof/wyGDfC7jpAAA0QRr2nZKGwXq3X/7Z4r+vcsMBAMhZrVSalkb+6a4Df33u31+75vDZe3LTAQDIO7tfE/P6j2P4/1PccAAAcnRf/wFPr0b+sOug/9jXf3CHXBM3HQCAnKwe6H12NfT/4Drob9QBGPTfwg0HACAnI4f1HiI59l0H/I1K6BtZi8BNBwAgB9UomJ+l2C3Sl38YPHD/wOznccMBAGjjlf5P/voPPswNBwCgwe7s79/ZyVG+4yr+DXLUMDe9TtpCDmCiPQAAUzIaznlGGvkr3Qf6TQ79r6vO9V/SSbf43sHeXUfD3iCNZr+pOui/P438r6SRf2k1ClZVw+Bu6ajJIUyurxMA0MIkuKaRf6vrQL+Fof/TSm1KtjOmYTAwEs1eWI38L1XD4LI09G/fQnvcxS4IAMCUyRdmGvlrChz8bW1RaZt2CfYjg32HZqmUI//bMq0xkZTKaRhczFc/AGDKi/2qof++IuT030LwX71m4KC9W3Yx5YD/otHQP6EaBt9Jw+CWybZDGgb/HA3917muEwCgxdWO6t1RjtF1HuDbKOFPrb9/+uhhfX1p6L87W0gZBnc3pA3C4Jss9gMATJkMIadh8BvXwX0cX//nFv12j/T3qjQMhsaG8+9taOdHvvqj4GjXdQQAtIFqNPulUxmKbtqXfxhcW5szZ4dSwchahPrKfP8M6UTlNX2SRv7X7z4y2MV1fQEAbSAd9N+YhsGo6+C+9eLfu3Zu8KxSQdSGhratDgSHp1HwjdzTIofBv0fD4LWu6wwAaKPMfmkUbGiBL//11XD2K0oFIAv40ig4U4bim1T3X7HCHwDQELW5+++URsFPXAf2cQfByD/D5a2XHQeyM6IaBjc2sc5rZFsgBxwBABqX2S8Mfus6qI+7hMGPXez3l7n2kUH/xDQMrm56hyf0r1zdP2ffZtcZANCm0rBv/zQMbnYe1McdCINrZbSimW00Mtj3gmoYnF2N/LTp9Y38h2R6odbbu10z6wwAaGPVyD+yGvr3uw7q4w+GwR1rDp+9Z/NW8fuvq4bB5c7qHAZ/HB30ZzejvgCADjEa9SXydek6qE/gS3jt6GAwJ+92kS2Fo2GwoBr6f3Za39A/r4jbGwEALSrbqhYG57gO6BML/sGGvDP9ybRCdSB4TzX073Rc3/tGwuANedYVANBh7uzv31kOiXEd0CdRPpBXm9SO3Pcp2WhIk7bwbaWj839ro9n75FVXAEAHarmV/o8ExTD4al4jIXL4jqwrcF9H/+E0DD4qZwTkUVcAQIeShWRF+MKdxBfxzyRQN7o9JFtfNQx+X5A63pGGwUCj6wgA6HASXFpppf9jX8XBbxq93e/+gdnPSyP/F67r9mgJfVM9ondWI+sIAEBJFpOlYfCA80A38cD453TuQd2NuoWyh16y9slOgqIsapS8AuztBwA0XDX0j2+lbX6PBUf/trX9fc9sVDuMHNZ7SDUKVhWncxPcXR3oe2Wj6gcAwKPqX7vFP9BnE+UuybrXiFspe+irkf+lIrWDpPNdM9i7F48qACCP0/w+7TrQTe7L2L9/dKCvt1Gn81Uj/zrndXp88I/8b5PYBwDQcLJaPg39810HukkGxzUjA/7Lp9wGpdK0sT39o4Wpm6zBGPTjxtxlAACekMxGTshrzeAfPFgdDF7ViJP60si/qGAdm1tHD+vr42EFADScBL5q6C93Hewm93XsP5wO+m+cahvIMbmFWugnRe5Jv79bY+4yAABPzF8fBRXnwW5SX8fBBhmun+oNrYazXyH584sV/INz2OIHAMhFKwf/sfLeqbZBlso3DNYXakQj8k9uzB0GAGBT891hsMJ1wJt0oIyCjzViq6Premxc/HQ0nP1qHlYAQG5f/mkUXOE+4E2yhMHZU97qGPqfKlaHxr+1Gs1+aePuMgAAjyPzymkUXOI64E0hUH5dAvjUgn/w1WLVKbiikWmLAQDYSG1RaZtq5H/fdcCbQlk81ZP9qqH/2QLU47ES+j+q9fc/lUcVAJCbauR/3nnAm/xX8k+metZ9NQwWFapOoX/+VOsEAMAWVSP//7kOeFMIlD+vDb1w+6nc4jTsO8V1PTYqYfBhHlkAQK5Gor5jinSgzcSKv3SqQ+TVQf8I2V5XlG1+svWwcXcXAIBNqIZzDixSXvuJBctgxZ39/TtP5cbeH/nPLUqSH8np34ishQAAbNHo4MG717eXuQ9+kwiW164+9NAZU7nFdx188NOqkX9DQeozmg76EY8sACBXMmeehsHVrgPf5Ip/3erD58ycahsU5XAjgj8AoGmqkf8514FvUiX0/5yGfT1Tr38w33ldCP4AgGaqDvS9shUX/aWRf9va/r5nTrX+o+GcZ1Qj/17n9WHYHwDQLKP9wR7VKLjLdfCbcAmDu0fC4IVTrX+W6a8AmQ4J/gCAppHgV438YdfBb3KH4PQGjWiDahiUXdcnjfyHZBSmEfUBAGCrqoN+7Dr4TeJLeZ3s02/E7ZUtg9XI/5frOo1EsxfyuAIAmqLa7+9WhHnviQV//+E0DIYa1QZpGHzUeZ0i//RG1QcAgK2SQ2VcB7+JBcpgQzX0dUNzHoRB1Wm9wuA7UzmpEACACZEhdNcBfcJlIHhPI2+z6yN+0zD4lRy1zKMLAGiK+qp3/xrnAX1iwfK/G9kGawZ798oW3rmqT+T/vRGJiwAAGDeZQ3cd0CdW/O83epg8jfxPOgz+a+W8BR5ZAEDT1IaGtq2G/h9aKPgvqx2571Ma2gZH9e5YDf17XNVpNAwWNLI+AABsVRr5b3Uf1Mdd/pTHMPnIoH+iqzqlkX8pi/4AAE1XDYPLCxDYt17C4O77B/uek0sbuDvt7z7ZeZBHnQAA2Kx07uwXOw/s4/lKDoN1I4f1HpLHrUzDvv2d1SvyT+bxBAA0XTXyv+Q6uI+njIb+CXm1gSTdcVMv/7paf//0vOoFAMAmyUK6ahisdh3ct/qVHPrn53kLq1GwylGn5nU8mgCApksHgrD4wT/4bW3OnB3yaoP7B2Y/z0ndwuD3LPwDADiRRsGZrgP8Vspdaw6fvWeebVANg9McdWxOyrNeAABsVhoG1xYgyG+2jEbB0XnfvjQMLm568I+CB0f6exWPJgCg6dK5B3VnB+kUINBvsoTBuXm3gQzBV8Pg382vm78877oBALBJaTR70HmQ32zxb5DMfHnfOskp4KiOZ/FYAgCcGIlmL3Qf6J9c0jB4oDoQHNCMNqgOBG9zUs9BP25G/QAAeJJqGHyhkB2AyD+9/XMg+EfxSAIAnEjD4Jeug/0mAuNNtf7+pzarDaqR/2sX9RwZ8F/erDoCALCRNPSvdB/wn1AG+l7ZzNtUDYMbnXQAwuBlPI4AACckDa3zgP/4EgYXNLP+sgMgjfw1bjo6weHNrCsAAI+S4XbnQf9xC//WDPbu1czbU+33d3NW34HgP3gUAQBOpJF/ayft+X+i0cP6+hzW97Rm1xcAgEw1DP7oPPCPZcVb29/3zGbfltEweK27Ovtf5zEEADiRRv5Vnfr17zQHQL3Ov3dRZwAAZBvgr1wH/zQM1rv4+hejoX+CuxGAYIOkYuYxBAA0XTXyv+e6A1CN/GFXt95lByDrBAz6b3RVdwBAB0sj/4wCdACOc1X/ahTMd9oBiPyvuKo7AKCDyVY0pwEwDKp3HXzw01zVfyQM3uC2AxDcUevvn+6q/gCADlWd67/E6dd/GHzXZf3XRP5BTusvZTB4lcs2AAB0oNqcOTukkf9QJw7/izWHz97TeQcgCha7bAMAQIdyuRVQArDLusvwexr6D7vOgHh/5He5bAcAQAdKQ/9TToJf6N9ZKoBCZEMMgw+6bgcAQIeROWhHQW9JqQDSyL/IfQfAv1OmY1y3BQCgg9x9ZLBLGgbrmh300ij4n1IBVEP/fc47AFFQG436EtdtAQDoMGkUXNL8DoB/RqkARgb7DnUd/OujAMGNtaGhbV23BwCggzhKiPPeUgHUjtz3KbIQz3kHQMpA8DbX7QEA6CCyCl1O5GvqCEAYvLNUELIewXnwr7fJX2u9vdu5bg8AQAdJI/8XTQ14g/77SwVRDX3tOvg/UkbDYIHr9gAAdJDRMHhtU792I/+TpYJYfficmS4WQm6mXW5jRwAAoLlJcZq5J95xGuAnSsPgYtfBv4ijIwCADpBG/ulN+9INg9+WCiQNgyHngf+xztHqkf5e5bpNAAAdYnTw4N2btSI+jfy1tf7+p5YKQrbgpaH/twJ1As523SYAgA6ShsFXmzYKEPUdViqQNPTf7TzwP9o2wYP3D/Y9x3WbAAA6xNpo9j7NOiEwjYIzSwXLiijD766D/+MKJwUCAJqnGgbfaUoHIAxurpVK04p0b2V3QgEC/yMdpA2jg8Ec120CAOgQI4f3Pr9ZowAjg7P7SwVyX/8BT6+G/j2ug/9jnST/yqJ1kgAAbSyN/K80J8j53ysVjGzDcx34H19Go+Bo120CAOgQ6dyDuquRP5L/F26wLg37ekoFIol4mpoTYetlVW1RaRvX7QIA6BBNywtQwMQ31cg/rgCB/7GO0qD/FtdtAgDoEHf29++chsEt+Y8C+H8r2heuzLtXw8C6DvyPFf8mDgoCADTNyODs1zclwIWzX1G025qGffs3azHk+NooKLtuEwBAB2lGnvw08i8qFVA18j9XoA7AjUUbKQEAtLG1c4NnpZG/JtcOQOg/vGawd69SwdSO6t2xGgV/cR78x8pI1HeM6zYBAHSQZqTJTcPgo6UCSgeCUJLyuA7+Y210tev2AAB0EBl6robB5bkGtyi4o6gL3dLI/1phRgEKljwJANAB5wRUIz/NtRMwEPxHqYAkQ2BxcgMUL3kSAKDNpZH/jlw7AKF/Zamg0mj2YBGmAuQo5dWHHjrDdXsAADqI7I9Po+BneQa40cP6+kqlTk+RvLWOUnCS67YAAHSYkSNf4qWhf3tuAS4MvlsqdHIk/2/OOwCRf43rtgAAdCBZiCZb9/IJbsGDo/3BHqWCGjms95A0DNa77gTImgzXbQEA6EBpGHyk07YEFilB0Migf6LrdgAAdOjWwNzWA4TBv2v9/U8tFZRcWzXyb3DZAUhD/0LX7QAA6FB3HXzw0+S42lyC3EDfvFKB3T8w+2C3UwH+SG3ohdu7bgcAQIe6f2D286phsLrhX7iR/zvZdVAqsGoYnO1yFEA6Ia7bAADQwaoDweG5LAocCA4vFZicFZCGwV+ddQI4IRAA4Fo1Cj6QQ4BbUiq46qB/hMNRgLNc1x8A0OFkuL4a+d9vfCdgzoGlgquGwY9ddADS0P+567oDAFCqzd1/J0lS09hA53+/6E27ZuCgvfM+Mnkz5S+u6w4AwKOZAqtR8KcGfuU+vHqg99lFb95qGCxqfgfAT13XGwCAR0mWOjnet2GBLgy+UPTmlQWB1cj/VzM7AHI4Ua2/f7rrugMA8Kh0cM5+1Si4rzGjAMHoSH+vKnrzppH/rmaPAkjHw3W9AQDYSDoQhGkYPNCYr13/jKI3r2QIzPWgpE11AEgGBAAootEoOLohOQLCYPV9/Qc8vVRw1Sh4b7OCv2QilJTMrusMAMAmjYb+CY0Jev7/K3oTy1RFo0Y9tt4p8u90XV8AALaoGvofakDAu0fOHyh6U1fD4IImdQCud11XAAC2qhoGpzUg8H2g6E2dRrMHm9MBCH7suq4AAIxLGvmnTzHo3V30UQDZmpfHAUlPLGkYfMR1XQEAGDdZ0T/F4Pfeojd3GvoX5t0BGA3917muJwAAEyJfr5MfBfDvvLO/f+ciN3ka+Sfn+vUfBRtaITcCAACN7QRE/n8VuUmr0eyX5tsB8H/nuo4AADS/ExAGq1cfPmdmUZteri3nDsDprusIAMCUh8slqc0khsHPLHLTVyN/JLcOwNzZL3ZdPwAApqw6ELwtjfyHJvgVvGY0nPOMojZ/NQpW5RL8w+C3rusGAEDDjA70vSaN/LUTC4j+l4p6C9Iw+E0+HYDZx7quGwAADZWGfXPlnPsJfA2vWzs3eFYRb0M18q9rfPD3b+cAIABAWxqNZvvVKLhr3IExDC4oFVA1DP7Y8BGAMPig63oBAJCbdMB/URr5/xjfWoBgw+hgMKdot6Ph2QDDYPX9kd/lul4AAOSq2u/vlkb+ynEOjV9ZK5WmFeWWpHMP6m748H8UnOq6XgAANEVt7v47pWFw8TjXAwwV5baMDPYd2tgOgH9Drbd3O9f1AgCgaWpDQ9tWw+CccYwC/K125L5PKcKtqQ4E72loB2DQP8J1nQAAcCIN+07ZWsKgNPLfVYTbk0b+Lxo49/9d1/UBAMApGeZPw2B0CwHzvjTs63F5jbJNr2FZAEP/z3cfGezisj4AABRCdSA4YEs7BNIo+IbL6xsNg9c2ZNFfGDxQDecc6LIuAAAUihyFW42CymY6ABtGBvyXu7q2auT/sBEdgJFB/0RXdQAAoLBkwV8a+V/fzND59bX+/ukutv9NPJ3xJuf9v9DsawcAtKGZJ1+1y8wFlz2jKzHP74qt3x2bQS8ePsZLKsd5sflPT9v3ebH9qIrNmVI8bc72YnOeFKXNNz1tFz9aYvvRLl0J9z7OPLVUALI/flMHCaVh8J8tc7zxRsX/Xm1RaZtmX3uR9Rx76U4zy5VAxXa+F5vTVWy/7mlzkRebpV5sV6rYXqm0XaJie6EXm6+p2H5YlStv6k7sfqWhxdu6vn4AaIju8mU98mLrLtu5XbryVqXNO5W2n8heirG9WGl7lafNDV5sbvFie58X29oUy61jnYC3SyeiiLdR9t1LnvwnjALcXz2id1azrqF2VO+OE0phvOnpi0vY718q7VJeMbMrsW9Rsf2yiu0qT5v1k39+zYjS5lKV2Hf0LDDPbNbzAAATs6i2Tfe85ftIcH/c1843lLaXebG5UcV2bQMC+paLtg952lRkVKC7vGz/VrmFI0e+xKtG/q83Dqj+15v171ej4ANTW/Tn/1w6EaUOHqXqiisLPG2tF9uH83m+zQYvNsukM7vvyZcUImcEgA6z63Hm6T3JcJ+8iLzYfFxp+yOlzfVK2wdyD/CbLvcpbb/tJXZIrq3UwkmD0sg//ZF8Ac1aELj60ENnVCP/3ikE/2916pd/9juoD9tXm/rMa3ubiu0pdAQA5EYCajbnru37VGx/qGLzN0dBfqOitL3b0+Z8FdtXlIZWbd9Oj0A18o96NCA3YUFgGgVfnnzwD/67SOcYNMUiM13Wn6jYXOf8dxDbm5Q2R7luEgBtoEcvfZF8WXixuUBp+xfXL7gnBP27ZGGfTDHIS7jUxtYM9u6VRsH/jQXZk/L6d9Ko7zAZaZj4fL+/phoF80udZFFtG69s5qnY/NX1b+HJvw3zTZmGcN1EAFqISiqzvNi8TcXmW15sbnf9IttEedjT5hJPmze025f+1tTmzNkhDf3zZDRAtujls/DPv2kS2/xuTAfn7FfqIF2JHVCxvbYAv4ctdZD/MnPBshe6bisABdaVmNlKm0+q2P6+sC+z2PxVafNfM7XZo9ThJDtfGvqfavTfrYbB2RNc5b8hDf3z7zr44KeVOkTPCVd0e7H9nuvfw7iLNvfLlJ3rdgNQIF6y9NnZgr0CDl8+7uW1XhYUyj79UqnWWfPKWyFbAmVEoFF/b2Rwdv/WDid6wlz/zZ12qp+MjHmxucf572LCnWe7NlsbA6CDDS3eVlbGj23D21DYF5Y2a5S253pls6/rJusEaw6fvWc18v81zrn+h6qR/8VOOtRHFr562ny3vsDO/jR7NuuJpk5V2iZdiX13lnxKmzNk94nSdrnS9o5i/absA0rbl7luSwBNJlnuurU5oWiL+Da5Zz825xU1QU87qvX3PzUNg6vHOdd/WafN9T+yLmZWsnLCOQ12m790b0luNZaB8s4i7JRRC+xz8mklAAVTm6a0+Q9Pm5tdv3zG8XL6pdLLnuu6xTpNNQr+dxzD/b+pDvS90vW1tv7oW+VwFdv/9bR50NnvLLbXkisAaHMzy/YFSpsVrgP7eL5KJIGQ6/bqRNUw+PBWEvpcSeBvPFnI6mlzVtOTBT1WPpdDtQC4V5smB+LIPLrr4D6Or5FVMkzqusU6keQS2MzX/vo0DC5Oo9msHM/ZjOMre3qx+UHTf3varJedP3nXD0AzLTLTxw7RqRU++Gu7fEayZFcekOarRsHbn5zsx79B8v+P9gedu83S0Ul72dRAsxcNanM1O2uAdjG0ansvNr9wHdjHV8ztckKa6ybrRNUwKKeh//BY0P9XNfI/PzrQ11vqMLueuHxGV9kcJlku6wdUmRVdZftql6diyhHAzf0dDh/jqr4AGqhVvvzHykJufvOlYfBOWfGfRv4Zo4PBHDlsqCPy9JfNvl7Zvj7bphfbC1Vs/7Hx17BdLZ2BThvBk7MLGAUAWpxs8StAUB93IT1p88npfPcO9rbplEttmsynS8Ko+m/BfMaL7cVy5PRWV9xrc3OxjomuTfO0/WyzfovZORoAWtPuJy3parnsZNqc7Lrd0Fp6jr10J+k4eok5UmkTK20/kZ1Gqe3vlDajk12HIql9S4VTm1Y/iyP/36Jk2nRdWwCT5GnzMecBfcLFbFDanDMjWb4XNx6y+E6SP3nl4UNUbN7safNepe0XPW1+JgE+lw6utv9T6MOksjU91jShM/6gfES4ri6ASZD0pO4D+uRfPiq2v5I1AaT9bT9d8y9/Wtf8pc+TFLSqXHmTSuw76udP2G/IgtXsND1t/pmd8Ni8zuc62SZbagFZp0ibe5vwOzzedV0BTJBkznMexBtYVGz+nc3davOxsS/Bl0wmBSvySSfdNf/y3bsTu58smJMV5JIHX2n7wbGkNt+of7GbK8ZObpzUsHzOwf+Wbm3mtNLzUU8lnPfvzl7oup4AJkiO+XT/Um1SDvNsKNheLAexZEEnNm+TQCQZD72FZjfSm25925tMufTMNy/24srB9bl0+0YJ4jLkLofbeNqcnW2Ji82P5cCosS/0mx1mrGtkkPvVrMSoVnzJqNhenmv7aLu6tPDlxNoAACAASURBVKi2jet6ApiA7rI51vWLtUgl++rU9jYV2997sVnmaXOR0uabkvpUxeZMLzHv92J7WvblGtv5cjJitx4+OutIyfyzHu6VIevuecv3eXzZbd4yTwLo48sep67Y9FG8i8z0J/63myo9uvIs+dsyiiP/rhS5BrmWrCTmtXJ9Y6c3JmPXfIqcOpctgNP20/VDZuy3PW0XZ1Mp2gx7sV0pGRbrX+H2LjkP3vV9KcCR0otaOcB1JXYg93ZasPQA1/UEMAHZ3mbXL1gKbVDkKaWkcng7vFSUtlfl2VayfdJ1HQFMgHytun7JUmiDIj4DktlPcgO0ywvF05WT8m0v+0XXdQQwQUrbv7h+2VJog0I9A9p8vpSs3K6dXiayfiHf3RJmqes6Apggpc07nb9wKbRBEZ6BbMtc++a3V9pcn1fbSXpk1/UDMEGy+j1bre365UuhDRw+A7L9sN2PlvZi+9X82s8+wLkAQAsaS7aSEoQJwh33DGizXvJGyO6LUptTsTk1z7bkhE6gRXl6+Ih22K9NoQ3G/wyY2+UAoFKH8JLKcbn+PpKlz3ZdRwCT1J3Yg5qSOpRCGzh/BswvJD9DJ70sumL7mjzbtEcvfZHrOgKYAunFyyln7l/QFNogl8C/TobCO3G+Ou+8H5KMynUdAUzV0OJt6yeqmTUEIToibfMMaPPnTg5Skv46z/btiq3vuo4AGnmaWGzOk1P3nL+8KbTBVL5OY/u/crpgJ78cslMzc/wdzVyw7IWu6wigwdQC+xxPm/MZESAIt0JHTLakedpco2L79ez8g/LwIbwUsqRfn8iz3XsWmGfSzkCbmpEs2bV++pv9o+uXPIU2yJ4Bbe7NTrvT5mxP27fLED8nO26aF9vv5fm7adXTEgFMxKLaNl5iDpX83yq2/yIYE4xzfwa0eVAy2clQvqxP6S7bud3ly3r44RbnQKBZycoduR9AJxlavK3spfa0/aynzQ10BugMTO0ZMLdnxxJr8xWl7btUMvwqmYLqhEQ9uVpkpuc8hXef6yoCcGxGsnwvlRjtxeYCL7a30iGgQ7CJr/n7vdiulCFppe0iFZs3q6RyYKcv0suTt2DpAXn+FiWduOs6Aihgh6ArsW9RsfmSp+1vVGzX0ilo705B/R6bG1Vsfu3F5msqth/O5ufj4X6VVGa5fiY7UVdcWZDrPdf2p67rCKDoFpnpPfPNi7vL5lhPm7OUtksYKWjJhXfXetpcJIvvuhL7bk+bN8wsVwJvodnN9SOGJ1Pa/ijn5+JztDuASZHhX1nB3aUrb5XDWTxtv6+0WeFp80/nAa8TirYPSVuPBfZLlDbfVLE5U46LlhGcrsQOyD5vhulb0CIzXebo83x+ZITBdTUBtKG9jzNP7UrM87MDi3SlLEPKSptzVGwvVLG9sj6CYNY5D6LFKvcpbf8+dtSzkSFaFdtvjI26vEtGYLpjM1gfjZHV9J2XGrdTSOct/w6keYnregLoYD3HXrrTTG326E7sfkrbl2WHnySV4+Qr1tPmDBXbLyhtv+3F9uKxveM3qNj81dPm5uwQpKzYh5oerCXTogyra3uHXI+K7apskZw2FZkiUbH5saftYjnPXergafuRbIV8bOdLfnfZhSGL6LrnLd9n1xOXz3B9H1AsWTbPHJ9fOUWUXRoA2keycjsJplJ2m790bwmuM8v2BTJNMZHSXV62v/y/TyzydyWxkutqos0Nrdrei809OXdgK66rCQAAHsdL7FD+o1jm4zQ6gGJbVNtGvrx7dOVZfH2jE8j6j7w7AD3JcJ/regLAo3Y/aUmX0uYomfuXOX8vtn/KDompv7TMzJOv2oXmQjuTKSsvNhtynf/X9g7pWLuuK4AOJ/PtXmxOH8t5/vBmFixdKLsKXF8rkDc5DbEJw//ncScBOCGZ5VRsPzTOcwhW7nHqih24VeiEDJzZ7pKcOwByKJPrugLoMN2JPciLzQ8m8JK7T1bzu75uoBmy1Ns5B38V25vIHwGguUlN5LS4ic9VLuI2oRPIItfmJMYy73FdVwAdQNLQSoraSb2otFlPghx0Ck+b7zbh63/trMQo13UF0ObZ/eSgkalk6JPseq7rATRDtzZzpMObewdAm3O4owByI7nqJZ99A4Yq/8BtQttbZKaPnf2Q+9e/pNx2XV0A7Who8bZebD/asC8ZWSi40OzsulpAnrzYnpZ38B/7PX2eOwmg4SRDnxyAk8NXy4e5XWhXPQvMM5U2o/l3AMyIt9Ds5rq+ANqMDCsqba7PZdhSXo7l4UNc1xGTJ9s4PW1OVknl5bTjxjxtftaMr38V21NoewANJV8Vsq8436FLu1q2EXLrWkVtmppvXyrZHb3Y/PZxX6EbJAPdrseZp7u+wiLoSuxbmhH8PW2ukek51/UF0EYkL7/S9ndNeomtV9r+N+mAi5vZ0dP27V5svqNi+6+t3Mt/evHwMaUOJkdLS8c2/9+Nfagrtr7r+gJoM15sLmhK8N+43Kq0TUrJyu1c17/Tp33kC1Zpe66K7e8ncy/lfIeZCy57RqkTV/1rs6IZvxfW0ABoOC+pHOcg+D+umNtlxwFpgvMnoy6Swlkl9h1jX/j/aNwXqrnfS8yJnXQynYxkNek3soyhfwANNStZueNYAHbYAXg0gKxX2lzhafNer2z25VZPTc8JV3R36Uro6cpJnjZfyebwm3A4jYrt5ZI1shNyZDQn4Y+9mz3/ABrOi81/Og/8mw0k5m+eNud7sXmbbLHi9m8h0GfnM1ROkmF8T1srQcPpvdP2gezsh6FV27fjfeuaf/nu9fUPebelWceOCwC5kK8114F+AkHlbqXNpUrbT6jYvNnT5iWdcLSwjNJk5zAk5khZM+HF5uMqtv+rtF2utL3L9X3ZYpEjotts66dMo3ix+b8mBP8NshjTdX0BtKF9T77kKc0Ywsw5wKyXkQKl7WUqNt/ytPmYzEN3le2rZftad/mynlJB7VJeMVPpZc/N5uS1OUrWYiht3yVZ3lRsfuLFdqWKzb+dt3Ej7pE258hOk1LLq03zYvu9JrXbGa5rC6BNecnSZzsPDs0ajpbpBAmo0lHQ9qdjX9Dnqtic6cXmA9lUiDbHe4kdeqTIHO/WinQ0sv9em+Pl67wrse/2tH3f2CiF/O3zvNh8Lfs3tV0uZyIobe70Yvuw63ZpetH2tm49fHSphanYfqg5bUWqXwA5mpEs38t5UKB0Yhtc3IqL2qTz0pQRM23/R0YaXNcXQFurTVOxrRYgIFA6rw3uy3JAtEig60mG+5ryW9Hm7FZpEwAtTr42ChAMKB3aBtmWwbJ9QanA1AL7nLFpmxzbIkutfLrrugLoIF2JeX4z9oZTaIMtdALWKm3+q4gZIWccX9nTi80tuT6/8vvT5njXdQXQgVRsTiVAE6BdPwOShrhbmzmlgtj9pCVdsmgz1zprexeHYwFwqDZNafNN1wGAQhvUt3XaL3TNv/xpLn8RM5Ilu+a+11/b38gIg8t6AkBJ8rfLXm2CMEHY8SjATUrbD7rM3yDBX2l7Vb4JfszZnIYJoFDkkBiZk6UjQEegaUFfm1FJ4qTi4X7XK+DzDv6ymFCSPrmsIwBslrdg6QEqtqvoBNAJyPMrWA5+kq2ARckQ2IQv/wvk3AbX9QSAcZxzbpPC55qntFYbyNkAsTldslAWLS1zbnP+2t7WFdvXuK4jAEzIbvOWeVluem1GnQcPSku2gdLm+iyFbkGPeJaT/XIZ8cq215rPyMiC6zoCwKTJ0KXkt/e0ud91QKEUvA20fcjTZjg72KigQf8RMhIxdk5Eo4P/JV3zlz7Pdf0AoLFHoSZ2qJWOEaY0I+ibez1tF8vxtbueuHxGK/zksiOWtb2twe1wdXcyHLmuGwDkqiu2vtL2i0rbOwiyHdbRqA9vL1PaLvLKw4fImpFW+rnJSY5yHkGj2kPF9lqvbF/vehcDADTX0OJt5atHzhXIP2c6xU0bmA0qNtd52n5Wle0rvYVm51b9mSldKTcq/bWMhMmR0AR+AJD1Anrpizxt31efJpBDTgjaLdcG9QC5UhLWyJTPrMSo1n+4a9OyHQiNaBttF8sImOsaAUChFw9mawYky2C2BawAwY3ypK97T5s/e9p+X2nzTjn6togH80xFz7GX7qRie+HUAr+sFzAfJ30vAEyCpHjt1vZ1KjZnetpapW1KQG7ql/36+gE35juySl+y7xUlEU+e2/wk7/7k2sys82J7sXRiW22dAwAUf/1Aedn+chyq7JlW2i5Rsfk3nYIpB/uHs7z6sb1Qtm926cpbVVI5cI9TV+xQ6iBS50mu9F+pYntKe0x9AEAL8Raa3cZWai+UeWil7S9VbP4qgY3OweOCvLZ/V9pe5sXmPC+2p8lKdEnlzEEzpZJsSRx3Aqv6KYSXZ2tXFtjnuH7+AQBPsO/JlzxF6WXP7S7bufXV3PYjSttve9pUvNj+yYvNSBsF9zs8ba7xtPmZis2X5JQ8CWpduhJKG5SGVm3PA/JkMsrhxeZrWw/6drXS9qeS8trl6YMAgAaZlazcUTK8yf70bL2BNrF8HStt/9vT5itebH4gUw2StKWeptb8Vc48aPx6BDOSJciJzS2yAFLF9kqlzaVZwpzYftXT5iwV2w9noxzx8DEqqbx8Ztm+QNIvs61sKpn97LWbm8+Xr/wsd0FcOZg5fQDARrrmX/40yWYnRQ6J6Z63fJ/xlEf+n9Ki2jY0afNJZ2+j5D7a/HNs5f9pXmIOZVoEAIB2sqi2jYrtfBXbb3iJeb+K7StkDYnrywIAjNciM707sfup2Lw5W4yV5Q6wi2XYXOZqWyXHPAAA2JJFtW1mliuBp80Z9bnZza3YNhs4Tx0AgBYnp7ApbT8tc7Tj3KL1XdfXDAAAJkm2r3mxWTrBlfQb2JcNAEALUnq4V2m7fJLb6f7k+vo7iUoqs+Q8gJkLLnuG62sBALTwdrps332Wf35ye+lVbH/luh5tb2jxtp4ePkJp+6PHHZN7n1c281xfGgCgxXQn9qCx1L1TS6ajzQ2u69KeatPGFmB+Pss4uPn2v2SmNnu4vloAQAtQidFjp6g1JKOedCZc16kdeAvNzvVkOeZr416A+WjK3EqZ7IQAgM3K0u02NJ1uthDwRsnIR7NPMjVuYt8xlkvhgancB5mOmZEs34v7AADYiIrtpxof/B8NPr/vSszzafItWGSmZwsuE/sOLzYXeLG9teH3Qpv75WwFRgMAABkVm1PzCv6PdgIkUZA2H5uRLNmVZq8fmewl5kg5EVG2Vzb+MKMtdcjMr3ebv3Rv7gMAdDA5mleOr21W8KnPSZtz5Gu31ClHICeVAz1tjvdi8xk5yVDF5t9Na+/NFjPSFVcWMBoAAB1o1+PM03MZah73l6j9h9L23O7EvLalz3RPVm7nlc2+sh3PS8yJkilRxeYnsgvC0/Yh98F+C/dA28t6Fphnum5CAEATKW2/6DoAbdwhMH8d289+htL2jV2JmS3JbVwe0SvH0EqAlDPopaPi6cpJcn2yGl+Cp9L2700dQcmnE5BKx4XRAADoAN3zlu/TyO1+uRb5itb2NhXbK+XLWsX2C9mOBTl1MLanKG0TOYVQtsl1x2ZwU6X+dW6HHimy3VHWPqjYfjg72yA259UX35lfeLFZ5sXmDxudT98JRZvhHl15lutnEwCQo3rQK0DQoRSqDZQ2a6Rj5XLUBQCQm9q0LWaQo9AG2lrJQ8CPEADa7EhfgjxBftyjAUOLt3X9zAIAGiCbBycA8pU/7mfALJNdDvz4AKDFdWtzAh0AOgATXBswKkcNszYAAFqYl1SOowNAB2ByiwTtcqWXPdf1MwwAmAQ5oY8OAB2AKe0UiO1CfnwA8Di7zVvmqaTycq9s5nmJeb+n7WeVtt9W2v5SxfbaLNnN44qnzb1Zic0tkjlOaXuVpIv1tF3saXO+is2ZWXa52L5CFu/tceqKHabc4IvMdC82t9MJoBMwyWfgYrIHAuhci2rbdCd2P/kSqmeFM1d4sbmnSXu17/S0qXSVzWGTvXwvNh+nA0AHYELPgDbXKG1f1tgfEgC0ADXfvtSLzQfq2eKKkiXOXDBTmz0mcxqd0vYu99dPKXwbaPvHLl15ayctAJRDnFxfAwCXFtW28RJzaDYMH5sbnb+It3TUbmxOl7z1E6leltu+ANdPKWYbjJ3NkMiUUanD7Hri8hmy/bErsQOurwVAE8kX9dg57S01T65ie5NKhl81kboqbT/h+ropxWoDpc0KVa68qZO++DfF0/bnWZto+/Pu8rL9XV8PgBx1l+1cFdsLW/10t+zFNYHELTJ64PyaKY7bwKzLFp7GlYN5ydQpXSk/ro0eVtqcIyMDtA/QRuS0uPoiPtcv4cYVpe0DstCv59hLdxpPG2Qn6tW3dzm/dkpT2+BPsq6lu3xZT/6/tNYytsj3Cb8rc6ecPOn62gBMUbc2c+pHv7Z10Lk1G84dhx699EVKm+sLcM2UPNtAm3tVbL8szz8vkS1YZKZvrlOsYvsNb6HZmfYDWszMk6/aRYbzPG3Wd1CwMfJFs9XGSVZup2J7SrO2NFKa1Abarva0+a5Xtq+f6GLRTpbl6th8u/6pe97yfVxfI4Bx6orta1ptcd9jxWxQsfmbJBWS3APZ3H1iTuxK7Fu6tX2dTGVk0xnJ8KuyA38k5a827/Vi8xkvtt/ztLladjTsepx5+tbaaZfyipmeNmd5sRlxX2/KZNog2+YpyaTK9pVsa5ucrY+ImdslQRcvYKDow3mx/ZQE0ZYJKNre5mn7fU+bk2eWK0FDhhwX1baZkSzZdbz/edf8y582NiJwi/P2oGytDWTx6krp5ElHsBO37zWaJD8aV0drwdIDXF8rgE3oOeGKbk+b4RYJICtVbD9UuG1Hycrtusr21bJSXMV2bQHaiSKdWUkfHdsvK23fKKM2rh+TduNp889xPWva3MxCSqBguuZfvnt9pXNxA4Z8QShtPy2L8EotQKYQsi1S2lykYlt13X4dU7R9KPsi1eZsmcuXcydcPwttbWjV9hNaJ6TNz1xfMoAxMxdc9gxPmz8X+IV+m5yxPt6tekUkC8q8xByptP2iiu3vW2qKpfhf93+WhXv1KZjKwQ05CArjJuceTPi+le3raWKgACv9JYe5+xf5k8vYEPpHWznwb87uJy3p6tbDR9dPQTRXMEIwrmfiPtmOqrQ9t1ubE7zy8CETWaeBfEzmwCwV21WlUm0a9wRwpjZNaftT14F+ky8Iba6fWbYv6JiHY2jxtrJKWg6TkV0FKra/Utr+vfNGCsy67DwJbX6WtYO2ieSZl1Eq17cImzC0eFul7V8mda/Lw4fQpoAjXmzeU8zgb3/EMG7drGTljnK6omRVk0x0spBNTlmULyilber6Xk2oaPNgfceGuVoCvHzJe9q+T2nzHzJ0L+tQOj2vfqvx4uFjptDZ+4zr6wc6kkoqs4oZQMwF8lXhun1ahWx5VAvsc+RrSnIceLFdqLRdJFML2d52bX+ktF0iuyZkkWf95Dpzp2S5ywLyxOba5f+5N1uTEdubsr+pTUVGK7L8+Nr+j9Lmk15i3i9f7p42b+jSlbBnvnmx7DBx3VZosKHF23qx+e3kO/rmCu4J4IC8rAv4hXiDfPHyQLgjc+pykIsUkuJgS5S275rK711pewctDDhYgDaxr78mlcQcycMAFF9XYp4/1YWrchCX63oAHScbnnUd7J9UzC2sCgZaI79FtlBz6r/7+1zXBeg4nrY/dx/wn/Q18EvX7QJg6/ksxtaUTP03H9ubaG+gyQq571+bYR4EoOA7UmLz6waO+i1zXSeg4xQy6Yw2/2QLGFDodUOVBv/mz3JdL6DjFPXoWtky5rptAGxMDtyS47Ub/psnHTDQfPUMc+4D/hOLiu3lLAQEikMOs8ojX4ik+Zatpq7rB3QcFdsrXQf7zb4YtH2X6/YBOp230Ozmxfbi/H7r5juu6wh0pOyY1AIE+02W7FjR4WNctxHQudn97EIvNvfk2tFPKi93XVWgI0mKVueBfoudAPuQ0iZ23U5AJ1HxcL+K7bV5/76Vtpe5rivQsWTuTWmzxnmg3/qL4lxSAwP56kmG+5Q2lzanc2/We9q8hHsKOKRi8y3XAX6c5U8MFwI5vAOSysubnRRMxeZL3EvAse7EHlSA4D7OYjbIKYG7zV+6t+t2A1raIjNdaftGLzb/1+zfsYrNdZJJ0HUTAKiPAvzEfXCfUEdgnReb83oWmGdyA4Hxk86zp+1HvNjc7uK3K1sJZ5btC7hnQEF0z1u+j+zHdR/YJ1i0eVDOuff08BFkDwQ2TdbPdCX2LZ42l9R317jruHeX7VzuE1AwXmze4zygT+XLIjZ/U7H9UNf8y3d33ZaAa/uefMlTVGxfobT9dh4JfCbRWV+vYvNm1+0CYJNq0zxtLnL+opjyi8Y+JPXoLptjyTCGTtJdvqxHxXa+TOkVIug/Fvwf9LR9u+v2AbAFEjBltb3zF0YjOwOxWapiewrrBdCOZCudjHwpba9yO7y/6aK0GVXJ8KtctxOAcZipzR5FPSNg6i8j+zsvth/tKpvD9jh1xQ48EGg1aoF9jlc285Q23/Ric4vr39SWi7m9W5s5rtsMwAR4ydJne7G91f0LJNfOwANyDrl0CGRhUs+xl+7EQ4JCWVTbpjux+3mx+U/Z/ipHZbv+3Yy7aDMsUxKumxDApEcCzPXOXyTNTTu8QsX2U9n+6GTps3lw0OyDd8YW7n3Q0+Zneefhz6k87MXm45JngKcHaGEzT75qFxWbXxfgpeKq3JetIdD207KCWellz+WYYjSCrEnxyvb1MgKVZeFrpa/7zRbzB0kn3BJPyNCq7V1fAtAap4JliUOkZ+/6BVOAos39StvlXmy/2pXYd8sXW4+uPIs8BNiUGcdX9uxOhiM5WU9p+0U5AMfT5l7nz3FjA/86pe0nWiW7n0z3qdj82PV1AC2jK7EDrrKHtUKRQ5WyE9S0/b6K7YdlGqErtv5u85Z5ru8d8k+04y1YeoDcc6XNf3nafNeL7cpCbcXLq2hzSdf8pc9rlWdsl/KKmTLVJ+8y19cCtBT58XjanF/PyV+Al0+LFBXbqortKi+2F499Bb5Lhn9VUjlw95OWdLm+rxhH0JhvX9qth4+WLaWetp+tZ6C0v1Ha3On6+XJStP2j0uaoVhuNkWmK7Dep7e9cXw/QsueFt1W+AMdF0jDL1kulzRUyNFnvJGRfksersn2lfF3KAjGmGRqr54Qrunv00hfJEH2XrrxVxebUbBFobL6ltP2ldNo64it+Is+qtn/JkvoMLd621EK6EvN8T5ubH/eb+6HrawJa19Cq7ZU271Ta3u36pdQ5xWyot7e5UcX2Slk8Jqlevdh+TiXm/2XzzLF5s2xrVHq4VxYtzlxw2TN2Pc48vdTmCayy8yySyoH1+fbhY1RitKfNe2VFutL23GxqRttfetpck01lSXY65/eztQK/0iYuJSu3K7UYWadTX9C70W/p466vC2h5ElzqX00teJhQhxX5mpUhaxWbv44FwmX1oGgXq9j+r5ywKGXsK/hMT5szPG3fJ6VbmxOUtomXVI7zEjs02ZJ9aWubPFoS+45H/o2x8hH5t1Vsv5xNN2m72IvNL5S2S7J59dj+Xq5fxebfsiDTdZu2fdHmarlvrfbF/4hsymYTC5i7yvbVrq8NaBsqqczytDlL5rudv7QotAHPwBSCvn1IpqIkY2apRcmOBJnK2UynZr2s63B9jUDbmZUY5WnzsRZNYkKhDTr5GbhVdrC0+omaWY6F2K7cXD3l3ATX1wi0Ncm1L/OwKjbXFeDFRqENeAY2HQwfyKaAZEV/G2Tvk/UfW8uzILtwXF8n0DFkKFH2RsteeQIRgYhnoAiLSc0VXXFlQbscme0tNDur2H5jHPV/eEayfC/X1wt0nBnJkl1lC9HYgi4CAW3AM9DMZ0CbG7zYnO6Vzb6lNtKVmNmeNn8eTxuo2PzE9fUCHU+yh8l8Y/2lRCCgDXgGcgj4D9bPsjDvlCQ4bffSSVZul21/ncCWzlZe2Ai0pZ755sVyKEqWSpcsg3QG6AxMZXj/nmy6rVx5Uzvnf/C0eUl9K+uE2maZ6+sGsJXsbLLveCzBzROSd1BoA56BjYa0tRnNptQkh0JiDm3FRD0TXlwsOSomdThZ5WDX1w9gvIYWbysZ7bJ5y2xbD2cQ0AHo8A6Atg/VEyKZM7tjM7jvyZc8pVNeKF5SOVzF5m+TbLvvub5+AFOw2/yle49lkPv2FF4EFNqgZZ6BemIts0xS10qaY/kC7rSXiCxarGeEnHSnaXWr5zYA8ARyQI6k9BxLHXt5tqe5AC9tCm0wyWfgYVkUW+/g2lOyIf2hVdt36g9/5slX7SJpqb3YrJvSbyqpHOe6LgBy1nPspTt1JXZAVgaPHfyyxYQgFNrA6de9tn/3YvODrsS+W2n7Mnl+eUmUSnLqZbZdOLb/mno7mx/QpkAHTxt0xfY1Y52CH2XHmbKWgM5PM4O9tqsl8U522JI2J3fpSigps13/NoqnNq1bDx+ttLm+MW1vbpRRBNe1AlAgXfMvf1q2uFDbt3vanF2fPjCjjAjQMZhiwFmX5bWon2B4uuxm6dFLXySBzfUzX3SyoDE7ebBhz6C5R47Ddl0vAK1gUW0bOUSku2znerFd6MX2c9kxtLG9aWzlNV/NtIEsylurYrvK0+YiT9vPerpykpeYI7Psei16ZK5L2ZRdbC9v7LNl1snfdV03AO2ScUwve65Khl+lYnOq0vZcFZtfe9r+kZGD9usYZXPP8jWq7fezky3LZp5KKi+fueCyZ7h+FNtpS5+nzXDD75901sv29a7rB6BDyNas7nnL95FhTNmmWM9bYM6rJ2jJVnWnroMa5ZGT78w/x46Kvbg+J2/fJ1NBcu9kuF4OlXH9PLWtRWZ6l668VWn7u1yeR23Wy710XU0A2Eh3+bIeRrryEgAACEBJREFUb8HSA2SKoSuxb1GJfYen7UfGRhN+7GlTqXcWzJ3Zi4ygvfUv9Wzbp7k9O3I6+5o0P1DanONpc4a0rwQbTw8f0Z3Y/Vh05/ykvlNUbP+R43P9MNv9ALSB2jRJiTxzwbIXeuXhQ7I55np65GRsy9giT5uzxr5gF8uWx2whY2yuyxIkyfbHbAtkQTMnyuEt9Wu82YvNH2S4XUZLpCOU7YGvd4rOVNp+UAK5iu18qb8MG88sVwJZq8GXevHJqJjS5pPZ+QQ5Pk9yzLjkA3FdXwAonL2PM0+Vc9+l9OjKs+TFPLNsXyA7IaRIhjkZAp9qkWNZs79XXrZ/NiUyb/k+kqzpkX+b1fAdYFFtm/qK/ixz3yTy9U80+Nu7s4RJAACg+Xabt8zzEvP+enKj5owkyW4M6dByvwEAaKZk5XZZkq16gq2mpuFWsf06mRMBAGgi2S0xdv5GA1L1TrSYEVncyQ0HAKBJKbXrWybNDc0P+o+WlVnCJQAAkJ9sEWdsT6un6HW6o0ROSTyrk09GBAAgV7LFcmzP/uXF2EZqfitbP7ntADZrpjZ7yItiVrJyR5oJGKdFZrqkOR6b0/+9+4A/VrRd7cXmPzlfAcC4zEiW7Kp0pezF9ntjSXLeLsOYNB/wmN1PWtI1lljq2/WEUQUI+BuXi2ccX9mTewZgUiQ5SJZVLrZrvdjcIge7ZOlhY+szl4hOsu/JlzxFxcP9WYpkba8qbqpp83+SlMp1ewFoq1EBm2T54h8bXnxo7JAe6SCcIp0FeUm6vlagIYYWbysZGbNV+3LokTb3uw/uWxruNzfIiASZIgHkOyoQm29t6nQ+ySeutLnC0+ZsLzZvk1S5ktaU24FWSPWcnRkRm/d42vysPn9egMC+laJie5McjMXvDEDTyEJBpc1/jH0dPbjZF5Q2ozIs6cX2q7IgSYZRdz3OPJ1bBZe65l++uxcPH+PF5jNKmxVebNa5DuYTCvza/kVpE8sCRJ4kAE4XRHVrc4IXm2Xj3fY0dqypnCf/caXtG7sS83xJi8ptRC7PZ9nOrQ/nmx/kfKRu3oF/ebe2r+OLH0DhzEiW7yUvWqXN9RN+wWUjCeYPcqStdAwkXanMw5KvHOOlksosVbavVNr8l4rNT1o52D/2u7APebG5gL38AFpGz3zzYgnkU099ajbIi1xpc6kX2895sV3o6eEjspSmjBp0pJ4Truju0pWwPq1kv+xpU/Fic4/zYN3QwG/ulex9kkLYdXsDwKSpBfY5ssBKhjAbesa5tg+p2PxNabvE0+YrnjbvzeZ2tXnJzJOv2oVb1trrTLoTu58Medfva5aXwmbn17sOzvkF/fXS0VWxebMsTHR9DwCg4eeeq9jOV7G9UHYO5PxSvS/Lzqbtz+VLUWn7QdmhIJnbsnPQyY3uTrJyu2zKKDGHykp2LzYf8GLzNQnynra3OQ/GzV7Ul5j/R/IeAJ31laeHj5azyVVs/t38l6/Z4Gnzz+yUtHon4eueNh+ThEeqXHmTdBRkgSKjCROzS3nFTNkGmqXIlXaUXBGx+Uy2CE9W3dcDfONGglqz3Ke0+WZX2RzG/n0AnW1RbZss+Upi3q+0vayegbBAX2ljGRFVbK/1YrNUxfaHMu2gtP1ENr0R2/ndiXmtBL3u8rL9JYWyBMJWHsqV5E7eQrObdIK6E3uQiu0r6l/rdqGK7YeUtp+WIObF5heeNtfUA3trbalr6jMk0xfanC/tyOgTAGzGHqeu2MFLKodnQaYedAtwstqUjmOVRV03y04HT9vfyLoFmQbxtF0saZazOe76PPdn5WCZ+gJKOT8+O0P+5Cwb4ziL/PeP/b/Z/39G/bCaepF/Jwvc2i5W2v7S02Y4GwWp78L4q1xrPYeD83Zr+aJi+y/pKHbHZpB9+wAwyZXfknwoG6aXswkK8HKn0Aab2bVybdbZSiov5zQ+AMgjm1tih+qph2UOv6gHtFDavQ2UtneNjaYkcqw2P3YAaPKhRV5ijvS0/cjYHH3VdWCgtGcb1J8ts1R2LqikciCZ+QCgSBaZ6bKoUFb0e9p819P2j4wSuA+erViUNnfWMwuaU7OMfOTgB4DW4i00O2envsmiOtl6qO3vtnSYEaUD20CmkrT9Y7bWpGzmdc1f+jzXzy0AIKetbl2JmZ2toK8nC7qq8Oe/UxoU7LNMktep2H4j2zmRmEOlk8gPDQA6mCzmkq1bY6MFkm9+ONvSRfBt2T349VTU5ryuuLKgK7Z+K+doAAA02a4nLp/hxZWDVWK05CjwtLlIviK92Iy4DnIU2YKXnQ3xS8k8OJYX4WWzEqP4oQAAcj17PstmqM0b6tkBzZfGsuTd0IRzDzopm941sihPToeUNMOSTloOgJLU0jzeAIDC6S5f1iNpgrPtiknlOEl77Gnz+SwToBxpW9+p0JHrD6SDpLT9e/2sAHORF9uvZls6deUkpc1RPXrpi5ifBwC0fRrkngXmmbI4MVuHkNghpU3sxfY0OXtAaXuudBpkqFvF9kovtn/yYnP7WArfNU4X1clcez2d8DVj6yYuVLH5ltL2i3LQ0lgdEq9sXy+L7pRe9lwCOwAADSIL3GS9gkoqs+RgopkLlr0wm54oDx8inYqJFhUP92d5FbIDm5Y+W/6m/G35NzgtEQAAAAAAAAAAAAAAAAAAAAAAAAAAAAAAAAAAAAAAAAAAAAAAAAAAAAAAAAAAAAAAAAAAAAAAAAAAAAAAAAAAAAAAAAAAAAAAAAAAAAAAAAAAAAAAAAAAAAAAAAAAAAAAAAAAAAAAAAAAAAAAAAAAAAAAAAAAAAAAAAAAAAAAlDre/wePzEsCzQiHmAAAAABJRU5ErkJggg==;" vertex="1" parent="1">
          <mxGeometry x="880" y="416" width="60" height="60" as="geometry" />
        </mxCell>
        <mxCell id="2qO8lxWROJ69_FPcfv2y-4" value="" style="shape=image;verticalLabelPosition=bottom;labelBackgroundColor=default;verticalAlign=top;aspect=fixed;imageAspect=0;image=data:image/png,UklGRiAdAABXRUJQVlA4WAoAAAAYAAAA/wAA/wAAQUxQSLsVAAAB8Ift/6E58v89C2Er2I2GyUw0tm3b3rFt27Zt7I7tmR4rGSvadKxOOuh64XEcVa9X3VUv1P1+718RwVCylSooReQNXxWp/QD9Ty+EURxFcRwG9ZmCKK8B6rKQSl1WP/yy226/+uQtW4iiOiwNuvQ3CTVMuWmxOiuEIUUnTwfAkzQwCcw8owsFYT01st0PQCJkFiClSICfd02VQb1Ejfw3wASkepAZEAx4fdUUVBel5qsWQXAorEcJziFu65cK9Q91yHiAyRwpRykZMO3EkMKwvmnX/zhXKiR8v11mo35JSzyQGSkg1bDxn+XrFCgMqMuZsyE1beEILpBc3zsV6pGRXX4ugCoMajuK6o2NVFrxlVxUWSEBvtois1FPpD43MHAOWZNL2XhmWJ0AqTfQkW01UCaUXGDB5c2pUB+MbPo5kBSRDNgYd0gdsJFKgx8vYsQc6NMNK95GGFD38+dBcE1rRXh0cAqqctSevxc0YtCGxLwLelIQVjVqtbcKoozb+HPfDFTFUr/bJDivJdkCvb9O5YLCkILjp+ahLAucA/ctngrVamSrbwpIVkESs8/sWp02UmnoMwWNWLbxy+4VaSMkarx0AQRHbXbAxhurpaAqRO0/xhkUUHtg7vb+VSfERGu/XwDlFGjayRGFYZUZGXgP8t61jgo/7JDZqKzJlFNnFhxYcs3GSyukoGoyssMoh4yUHZi7oU8qVA9quf8UMOIwaNIxWT+vFqnl6s68d60XwtdbVocNxR3814SCKLdtPDs8BVWFdoNPC0rO21h4RUsqVIG05ENFjPgCGn+o9zbCgLqePQeSa1oPhdaNvbYRpNpdfymI8snGY0NSkL+olV9zCGVzYO6inkShn1LfG3mByRQ/QX/t5x1IfdodNckdlAsDc+umIN+MbPYlkLgiuTEwd/8SqeATasgTRYz4DZKYc3Y3CkJf3rU9Luwo6GT7buPXPTIbXqD2/lMzYreiCgRIad/Gm6unIPdRa7xjFaVcT3CWJLxGviVPEsaFcjmrA3PyjgGp4Phkyu32BpaUniV4wnMykizomNvePq9jYZJTCp5woXRBe6AZp0TOuuJZccKTpttCKecYU+t2xjfP3XTGQdutu9xS/Xs3t/Ttv/QK6+5w8Jm3vPDdLLVNGFNWpFoTRikDc44a2eY7TbKiSUSWg7bXrth/leawcMP2Wm3/q96YDAAiURRWB+ZcRA1/3o4RKTN8ltdJz5+8VoPeiHEUhkEaiDJcGEWx3lea1jv9xalZhpnImtjWwFxf14SQqOmKhdq71nx6xgH8euO2LerQfFTmqZBZUTLQa4fb/gDAWZbcDmjysZTacAp10DgNZbwOBAMw9qYNumT5jw3VRBhnPbD7Fne0AciS2xAS4Out3LGRSut+aFNKXtqtIcu9yftAz2XLvm9I7VaXVmw8lw3MuSEtdh/AhXFJK/zk60YQkX6vWVCscvss7WFnZ2Duyhb7QhhSfPosG5MpmvT3qX2JAmtFV++bgRdM0gQrNiYoA3OWjez4oy0UA8ae0JClt9zuEVHvsydrRbdi4zNlYM4iaoWXska3ICHzAM9qzH3yWW77vldk33lZtGLjiSG2QCFRr2sTcOVda6O4t+d8AbghDHnMmpJLdFzcQBRa0R420SLq4zWIlNenQ8LmPyi9WVoamNvfQh8IaN3PbDW1YGg/NnP93ZvUvoCBSWugD1em0DSfZMvJBgPeGEwUOvnNu8rnkBxS2hiYY+AHUmi2kCdbfNSzk4licjAohblcS2XHET2EIpO8BWDtOf/TqjnDf04qt2gDk5aUwEbmYkA9/gCzwhx4vIeqdVfo9zaEsBMZxvyTAmOlOwOJFWbA6bkvW2dT3QBwK1EyHGCuTnr8DWGHO3agIHB+1JvoMIDZEeUGFJra7wJugxNMWIliP+Z8tpxrJya4giJTdCcSKS3wqEF57HqqFduQWIgcb5hr2i/AbXBrc8a+xKX/sBAlx/fGzvSclJ4xzx90z67vT+z/s4VokpraYYO7UETkU+xnIXJ8SibJ/NlU9m3Vw4A/jV+M4xOjZJYZRjXnsUeASUp0lgzzhEEZ+xdX6QBHBRA4OhR/w8e4FSAgPScJAexgg4NQm2fKmYcKAxvxKHAJ6SgZdedPN85BzlBs3L2hsamhe5wzyGr6VEg3Kxd3k0xe/TEKjA8kE0WDtjzh+mc+HDV+yqzZ08f/9NGzN56wzZJqjkKjDUj0IRi8JjD81N0oKR1ryGH3jZqPAmHB6PsPW1bJnNHdoKnZBZwkc4mSVY3Vkzb/stzZrQuVPLOEcZEGmeo5S5hS0kWt5y2vNI/BNNsjW6ziIplLdBLFJqXGA99hyuISpa7yqkvJhBTKBDV778BGk0JE14HBWwLDG+bOplL/c8cAYLxGWqBGUs4AjLugHxnrzQHFP2QqB8mUrn0whWYoJOp90TSA52uKKzgw/aJeZG6QZC0gVflIme5Yio1pj5oIqMuJTM3WTzzKmDKiq8DgI0kwfETGtGt+BiQixRudKmldw5AyoO6/ZirvSOlAa5ipmJjostw5HJOCvDhVmhomFA5uzOxvM1UtQ1tThsImo5LVT4dQZIJCehbMu42UAtP7m7hKENDO7UikpXHiBLN3pCAw8Do/4C8I/wgMZ1Fs5BrnKFpFMi2oyjOIysVUWv9jQHh3IQmBMQ0UmOC786dKLSi5xK1EYcmf3rQ1Ub6RZDiOIhP8LJhQ2FoUHI8Vj2FA3c5t19dEeUbp/u+eRs6+pFzD+g8FTxMFRY3s+RugSe6Rgf2p5fcB0TO2GYBy+YfTWOwHgLeQ06u9UwtM7ktBebrHAQYU8XoKi3zF3CH1HwDcpPL7a8vvIzoXTGEHIsfxFNVchHPydB3lJ6FzRGmXM6ZdIEXGLkQBbE5RvpHtR+VIfhLDi6U5pKHt4Bm7ETmmDNQLGtdYDOknScmxq4ErfwZmgk2Obr6u383U53pW5AcAiZp/cMmaOXFrIzCmZ/lEl6oz4+7EbIArUv92bSuEKtAKAGpkxLENw41l9yGtAUho7Eqa+UOpK9HmXxaUsiLObdfCPAklZ4vmaBmZIyBdoqwbb0ChIZ1LkeFVoqFPFTYiBf76R0NzUxp60f4QKQnsT72yjLR0XWWRWwSBX+LSuqNcY2VUFoed0akbKRAYns8p9gWqu9M5WM/IThBubRLcUPI4oN4TodhyayeBMu9ameAi6qIUOqQXskYX+LOr6hl2oYuRWKCSx1uXpIguQpKxc1GW+b6UArvpddH1TwipdMRA6wbPg8ElEpjUTCX3/adBSPdIwcsSrbJoGQrUUi+zCFLtiLHeEI4dMDxHQcn9eSbOO9Yo6l2ml3q3NKXWEfMawqWNibmmxjEQnjFy77I4u+ml1hFzGsItglyLwnL7A8GlZ6TdZfpTJidlXkO4RFJgYs+yZ94Bd3lvLaVDG8UBKkUhLc/gyV5C6kHkp1yYPfQ781J2+UO5D6QzmwRXUFzu+GwwX47zC/d3F73Ye0AJeSmHCiWTLh3sW9LroFZw+MJS/9SYJR+jIKfZZ7a3z5k3bYiecseFc+bMdWkDXu4XpoCGLIQ/+7mDejQ3KaG5a84/A1pWGnMy0rW5ucegue6QwIxmKnd8GLg/1N6DjIUe7c6Q5Pg6KEUh3YcE8IaaqVAdBIVy0uwQGfA6R0FIf6jJ3KbJHUKCm0qlDGjxBZB1jWSCMygudbxVxnWNOA4qtYnpBLA6RxLblbpWRNcjgV9JDFDgWhLIdUu6Hc8om3p2ISTLlWzsD8FT8s7vash1slQ/LKdq4jQjTvldEguWKkfxaAjAN797Fh7WqiKgJ+Ws9vbZi77ukjcGNDPN2lzpEHX0L0fdx3tEkDkGztFfhT3aoISncp4Nb+Rkzhma27scNUzxaqN9dAtsplZzSKtyKaRIcLLeEI2TwbWZN2eoveSga+MsCA/HXGZpayBiOlL7EWVDvSHWzuue9Yt4zvLXMFvpkTXE9F56QxwPplEdO+jMmwYKvgGTkuGdnIZ4AInMDupbEuyvDzEt0anm5xq9IaJf8jLpy4VG+XehOfOmD1VrIqTt0iGm9Fqdu+gNsdS0eXPaXbtQsnz1+F2Ntb2uppyKiVMvTPW76r7fXc+/u0j57vLtu7uuj7tsCSnx/5FxN5/GXX+AqG/E8U1YXePuQakk/2ecd4EEX6Va5t1qDTEpIe+10Njknt8FyStm3nX2ou+6Uq0Z1+mDKdC6gOJ1K353PZt3f5HUXUD/hhLG5q1Ayr9fPFp3sZxf6y46cSHFOQtOuJRJ9l7MWXDTqa+8dmkj0NZQHetuCiwvK7ICKSe4s5FAhay7KrC8rMgKJBeJ4eTKWHdXZHlZkQWYDhIYnq+OdZe1l5cVWoDp4kZgcmWsuy2yurb2Asw8qgvrrjnPTtXsA7uWSflCfsrKX3evYgWvFSU6l1XfAXFOyt1VCmqmdO2/iy4m/rtwjziue7L2XycCv+c8AS/UUi6lZ2RwJ6SjGymxoZf/3XxNtMfvtX69YHipW3Nz9mXR0vUlMEDg7741fr9xcyMZbvLuv6usrdejmLpfOD//15vcf6vaufpcTvR8zFkEmUuV/99dgqspyhp72afzQfkFk4Uy4ihJyRXnzojKJd03EQXqP7dbfZ8DqvVvZZGMyDry3+38kVpDhyGFp8yEzHkH18X/rqXA3jmufmZl4P25b6B6+N89wyVKKXOF9T8FkkzpJwECk7O1DiVDQHcrroADnODh2kVKhcP0/4+dpfK70ygqT/SMEh3gl0ht41rKPjdycJ5GHzeKg9OzfPZDopeUaJ3fCJVnXBFh1bc0G26Sgd3xFJmIz6jPR2tSygwv61wItPdfGsg/SndjGykwEe+G5Gm0xlxkiLB4sQLqeckC1RH17kCC4SyKjZw8B2CAtMQMuDjlci83Gvq8Uir/SArMGGBgR0FAO7erb0gbyRLM35vyylYctN2PkC5ujOxuzztdrmss26oqpWEJTOLrkSZKFoYUfQfuIWVVsyaFJkoRE10K1ZhRFgy4KqTYTMNuLuHixszuY0PFCInW+EwTzEkJ8OV6SpaNxNHp3kOClAzHUWyoZoiOnJgJ2eegiedNlmLy8URRQGa69YVgrm5MWJg7mEJjyt4XTgM4l7IcXKbEOTDz8r5EkakmXSmVpJNkSPVGdhFjyv7njgHAiiukomEAJlw0IJOMhS+UvZ+UxZPzVeXfkI0HvMMA8ERIJWmNtFIwDoC9d3CTgjJEMV2isJNkSsVWo4hMCrTcWa0LlTyzhHEuhJCpnrOEKSVd1HreCqRI5ngzSOkvIdv93MPcSb1Chxx63w/zUSAsGH3/YUOJjF6HQuo7ARwS/pJEgsdVMpucokFbnHDdMx+OGj9l1uzp43/86NkbT9hmSTVHodEyEL2u6PwlyMzUGVkas4qcuo2792xsauiuZztU7jeTFNGVGbtL5tJgByWaPhXG+ZUcRHGYd85gogMhskReEyQ4OlZKo4chpg0EBCRcJnOmJixGkY88fKZyBWfJcBzd7F+MaODYLJHjZPLin3WnyDfu8xMSt8fdjccPulLkF7d8a5ylSWqcCQHz8UOvxJh6a2yY3jVG3f6CkBZiawvF/vDA0eYZYHiEjDl174JLWIijF6PYFx42thgbmSqKTd3U1yKRVuJ/V/IjRrTBDBuylJCrmhsk2QRS2hkl79iBgsB1Con252AWGBytJkv3AbiUViLOJIpc19LlALcgZ8cHmKuSmE5EAiuRA4/3cDtVTH1ehhBWzjJ8afR7dqUFYHaiYPh5NQpCh5NtOA5MWmEOrE2hyd69B5DYKZ9MwE8hN5VKYS4EEsDKE0HiGIrM3t57MTAOW5d4YzBR6OQ1l//E0jUgEqQmQtOlXOkDqHPmVlLNVSYNHEOlfFanmsz8rcCA37amwEIz7/c3LBU0U368JlHskBBERBt/oxTIgsQl2s/pRqGVh1zDxR0QPBNsKHHnQKLIIWnphwEmbNXAw0vqNWBBuYyy1NmWcsbZyvyBG1KfS5X/BiGlDVTrhkSRzSJv/iUs3u3jTmjMBpLtP296nTkpK7sl6b+HEoWBzWKHREe12RIEA8ac/g+iwNql1V474DxlxtaCBM7ReU2L/Zs/6/U3MHALvV4Tplw3gmwlj7IKW+nWmTaN/Gc57dFnX1jxZVuFl1npk5d3b1Cq0YKmeZ/XhTpbbwc1escCL3+bNnb6MQNZEzD2lg27ZAWITX33Ki/sbpvfMRGKBBvPPImZp8UUuuP8hQHFp82CtCAgy6gynfz7Tdu2KGWIozLPwSDUemevHW77AwBnSnrjzDlw76AaKDdAg+4FuB1XXKbJs8xOfuHktRty5pmi1EoaiFJcVt8581BN653x4tQsw2l6W24vPlhH+/RxTVj7/RxX3EJykShDuZNeu+KAVVvCwt2712oHXPXGZAAQidDS2zAy5oAiXr8zNvbPccXtKBhT8sBnfvv8zWccvP16yy/dv3dzS9/+g1dYd4dDzrz1he9ncyVjjKkaCxK4wILLGs199dl3xW30Cil4wnMykizomNvePq9jYZJTCp5wIfVi2UE9N6yGERdBQ57IB1kxkyVlScJrZFzyJGFcXY5jc4k2vtu6FspR0KZf5IPs1VLtoBfEqjTtxKDGu9ZNkFKwI9usC+79k628EO/oZxDlgCt+fQLO4aZgz8jba2iSL8IKL2U2XIrWUX/uXcSI8zZ2HK2BvJe4QMeFPQwOdjvlip86U3PFvUc9MaQGyifQwHs0V9xjbQJ8uZmC8jLERGu9p9nw18iko6nAu9YzG/v+5aeNzE/hHPymvgVQ/tnoeZHuinto5LWVDUqeuOK+oX7Z1aQR913xz22D7EymnN3V4LvWC1f8iDZN8Ab10JI1UFUA6n19AqG44l6gPt3AoOSlK+6+NMHoZEq1ueKWBpYKTqZUho3MFTcsuD6Z4qkrfrfmiruKGr29yXett674msZccTuTKadGBp1sv13xPzWQU8w5cM8ggyjvXfELdVfcKSPvr2NQqjpX3IPJlGpzxa1NplxqcjKlSlzxiZrgAOrZoQZRFeOKX6e74pZR325lEFVhrrhNaerxRSZTKtXGDrorboMV/+22fxZAVa2NKMcVt2LkrdUMSpXoiptH/bGXSSNV54q/q9kwO7A074IikykVbmMf3RU3iHp8sEFUVbri8yB5JhiaTPlikwKo6rcx+HENZMJI25FU411bN0Cb6K542ckUdkMfg6jqdsVLGXllJYNSJbvi1+queGHUz7toRuqXsPyLmo1iA0tzzjI5mVLlrvgoDVQA9eASBlEV74qfMkMTaqA+Xr+WVNdAA+4COM/qW12XnADjD9GM1EdBdcVFwjjnLBHAoquandNW4ej0jzlnZj04MpPqawjTo80ueOzNj99/7po9+9VC1U1QLZ+sLocwDpV7ME3xP7xAAFZQOCB8BgAAUDAAnQEqAAEAAT51NJNHJKMhoSz5WViQDoljbuFuXk3+ADOU8b/afqd4JG3fE/3v8W+og5YkSvt/HPAF/mfUL/Ff8J7AHOA8wXnjenz/Q75V6AH6zdbf/acnH8AfwD8APr97/CfoF7/hHOLlQIRXxEpoIfLqbw9tH0DXeePwgvgWN3lMw0F0HJBczi+0c7YnK2TUxV+npFDqIvbidpLVcrUMo1VK46iB/2CDwhK8vaw/j6/uubCrdPhRqp1pWydIR9+YWSjkdTidSZA0q1DiLxSnZ6C7bjuGx6aGGgB7bsXJL7IBaeGt31r6Iifm0F0VptLvnHW7PsqpnEex42YbxEoNwOrDJUvMofsyZ/99co7PZ0bIp5NRlmEcUdcyIVNom/j2613ngbEYr2DLUnIWISEpzoe1Dkk3pWWip/I/5NfC1gmThSDjx9l5sgBiOzante7r/3rVc0pQ/QhmpQPaNgw0Mv9m3kI2ZxjGIFkUCnYfiqemm3xpWkbfOirp4rK+XSJlmLI3PoUwtwAA/rLwDMuEX//foJcTCtiJKz0s8/xp07q8aMBBKJAdbX2Jwk7cDjtWRHZ1Cvxk6RP95v//vzhTtM1OuRHfTMVv/KygAFzJ9uxQzwupW29+msMSUFlRm+aY8v2fZBI+2ieA2kqKPFD23SJ6z/o/5OY1HwRSQA3tc/sAW/7T/LX//OcAeBNDo24pIBu9APGaPDIMadoKltMoAAVsjGiKgLPpJW2IzkcIdSE0sLvNBFRz+GfnagNlNuKwkJpG2GMJMnKz+mzIvsBHk2p3DvAJgK2f1ZequCt2t5GctBdjQiDFvtweJ/tk0RwRdxM+RJoK0IHx/EdL+sBK7K1HMMd0qWuRuJSdgDz/O5u8F5EG7HpIstuqc8hoc02f2iDY1PnQau1iQKB8LkigZ5DRiRCQkru+9XTWUMHUdRqhvUaBGnETCnPl4DsRo7Gs+iVP0+isJxjoi3jXM2KUvAvPwUfNIqz59i3qsVGD8MSn3AqTnkWqSqEoHQPuWtll7oFIR5LoYYca/J8uylySXqVd6x7RafFuoAAO9OJuchHfjBn0u9RprHhBKKjb8XrRhL2ef3qnCYH/kdMF0wPl4aTeAAGky6BNAMhkTDbpSI93/af9Lf/85uW/JMtJaK+box/4bv3KhEPEIJnwlqylreGvI6cA4CPCIU7/8VHm9gYKhB2zT+/7nskEOnNQvxHzvPfPTAgJz3kFOHddRwre1E7+9iuUuCFf8YrlQC9758Vb7MPRhikSIVbXFB+K6KCPhzb24iO/lf/8a3phO8PlM7Tn+YQrlLltpySf5gAc0jdtoiSn0qUJfh7J+iOISWyRm2amFqLV0ILkcCvTiDH11fq2Q7/QjgzwHmqruQhTxspWWe4mn9sFYE+u6VDjYi+QA4ALRb9LPtI6RA00mZnxH/gaHtEBuO00hUSbFbg+Fa3K9zC2fJb7dUNBfDjLG+u9IqYOWnZIv1h7fn8Xl29HVmAwJuT2AgKYglzNJ3QnjLq1LC+OI379FOoL0HAN3Is/OGbYq05UMNVMHXC+f8/1j5p9zIJR4VK0eFSrc/i593S5j7OAsFHv55DfSI/fP1f1wtfxvsMlbhXUf7S12ALwvy/mDXmUIdAOhz/dHk0AtrMclNuyD2YFN6sUkwuna3FAuG3dU42NAs8qHpYXBOzzgGdIPgLfz6aPrCyKuuMMA29kUQyV7v2QJt1/4Xhv0cTMHsWvIQjPgkMwBZFrSgZ1b+3mo27j29mmAyZxwDs5tkOiGypqSdCEtruVxjHd15lXK1eVPquqq3CPjsHcq75mMSC5qVr98lPLfY0uUv5p9H6wgeoSE36R1WGzCaxd7lLEQcSZxXerZ3xaGFX7jqgvtwUlCx3bqjkz7Bl7uZtCVMgYKStYNzRfGCI2ADbWhaU4z1t9SA8bnQ75iUPooCH+l7RSgYr51ImcQylAbcuTT9wgfZWA4QhQYqVmHsX4YX3vwv83mXBpdPYhzDxdt0IAABapOC+xTKYNNm7KHVsAySlpwkYJUy54V4aFG9aSCX6o1NLgMMRdrBF3ZqMde6NLy+nHono58sSS9RWZt9d6JrHKrlUkmrReo1PGBv5X4P7pu6V2WQD+AaxrYA72UPJLIWlJ++/VMJtjwZKvqrGd/kdUivqqJQ98VPkKUzKwSCGNHanfuyX3QshSDeH6zLhrvk9iBDEFc0QAAEVYSUa6AAAARXhpZgAASUkqAAgAAAAGABIBAwABAAAAAQAAABoBBQABAAAAVgAAABsBBQABAAAAXgAAACgBAwABAAAAAgAAABMCAwABAAAAAQAAAGmHBAABAAAAZgAAAAAAAABIAAAAAQAAAEgAAAABAAAABgAAkAcABAAAADAyMTABkQcABAAAAAECAwAAoAcABAAAADAxMDABoAMAAQAAAP//AAACoAQAAQAAAAABAAADoAQAAQAAAAABAAAAAAAA;" vertex="1" parent="1">
          <mxGeometry x="889.5" y="190" width="41" height="41" as="geometry" />
        </mxCell>
        <mxCell id="2qO8lxWROJ69_FPcfv2y-5" value="" style="shape=image;verticalLabelPosition=bottom;labelBackgroundColor=default;verticalAlign=top;aspect=fixed;imageAspect=0;image=data:image/png,iVBORw0KGgoAAAANSUhEUgAAAPoAAADfCAYAAADfjc64AAAABGdBTUEAALGPC/xhBQAAACBjSFJNAAB6JgAAgIQAAPoAAACA6AAAdTAAAOpgAAA6mAAAF3CculE8AAAABmJLR0QA/wD/AP+gvaeTAAAAB3RJTUUH6AcSCAcvlHCKbQAAQOhJREFUeNrtXWmYVMXVfs+9dXtmYMBoNK6IyHQPiIoKiXGJYtR87tGYUUSB6YGgQVG/aNQsRrIbjSbGqBGhu8G4YuIaNTHu6xdBcRmY6R5AQHCPAoMz07fufb8fMyIuyK3u2zPdTb/P4/Ooc2/1rVPnrXOq6tQ5ggrWI57p2g20jgL5VYr1VQGHbOKVdRAsEZ8LKJgHS+Y5H6jnZ4wWtyLN3DFlHp2uWv01sThaiNEQ2QvAEAD9v+g9QpaK+P8RX563xL9/ZqxqUUWa3ZDNXqlauXUWeopYGAtijxCaXEPgIUv4AOHck4zKOxU12zTGt/ErynOPg8iRAA4DMDDfNgm8LMStnq9mzBku71WIvllab24j1OcROBNAbYF+xiXwL4Hc1F5j3zV3kHRUKL3BJLuK/bLt3vECngrgWwBUgX5qrQDXUtQVm+vEu1kSvTGjG4S8DsCXe/FnVwOYTU//ITW85rXNmeBNLdwBoqdQcFZvj4GAFyRikRkVope7e+jrJICj+vAzPAB3Evx1KhZZsHl5Udl9QPkJgG8DsPvwU+6DqKbNybpvNkSfmOkcasO+n0SsiD7r3yR/nKqPPF/Osp/Q0rWnsqyfEvhu8eicLBFfH5UYVt1aIXq5WJJ0dl9A7gOwdRF+HiG8ndq7qNxc+qZ0566AfWlxEfwTeEd8HpUYFplXIXqpr8dbu4aJWE8D2KrIP7UTwJ8cW/1mxlBZXdIyX8oviat/AmAagKoi/9x3Pc87YM7w6nSF6CWKKQu5vWu7z0JkcKl8M4E3BHJeMqZuKUmSd290Xg1g29KRuSyFY++fGiJvVoheYphOWssy+mEAY0q0C4+R/vdT9VUtpfCxk9o66zzfvka6j8lKEU+2R9Uhc0W8CtFLan3o/pDAZXk2k4XgZfhYSci7IvBAvx8gO0JkZ3RHzlkF7EYHiZ/uElN/nC7iF6OcG0h7QEb/gMAvAFQX8Kc8QJZCuBw+V0GsD0nYAm4tgp0I7AnAycuyE+el6p0rK0QvEfSEsr6Q4/owC/AWEbl5bVY9NneEZDf24NRm1nY5eh+POFAERwLYD4U5NnpS4DUmYtVLis2Kk3aKxAEFaF4DeFYE9/s+nu6n1YvXjpD2jT08LcOqdugxAMeBMhZAJIff7LLh712OobPlSfS0+w/kclZO3u4p54dzhsrynBS/mVv5jtsAyGkADghZvu0Az07GIsmikHFrdjJE/ohNxJ8bwifwlAXeJK5zx6wR8t+cxmEhB/u2exlETsrh9XuTMee4CtGLHBNb3UMtwb9NZ3IRmZSIqpvC+o7GxZ1R8eyzADQihLjt9XMRJBWptc+csYN82BfyHf8S+6t+7rWgTAix2dUEkhTvz7Oj1YtDG4OMHi/kDcaenWBMMuo8XiF6cVvzZwF83eCVTvg4OjnMeaQQ33NqhgMj1GcAOB/ANiGN2ivieQ29HezRc1R5B4ARITX5lhCXV2t1/Re55Xnu1RxG4D5Dsj+ZjDkHVYhetCTP7gvIc2YGUk5KRtUdvWEJnRo9lcBFCOdMfy0pU1L16tZeIXlajxPweoRzAehdEr+NDFB/6Q3PpLFVjxWh0XGlb3H07LrI/ArRixBN6ewthIwNzHKRa1JRdVZvfuO4ZdyyuktfSOBchBBMIuSNa/s5pxfqZty0DKvaqS8DcHYIzbkArqOjLkkNkQ961wjo6wFOMZFroj4yoUL0IkP3Rph+A8F3W1fqDlV/40hZ1yff29ZZR8++moIjQhjE+aLVibN2k2WhfuNCDqbSfyMwKoTm7hd40/rq5GBqM2s7HN0KYIeg+zZ01Ha9PSEVCla5EN2LuMfD5EiF8pO+IjkAzKqrbkvUO0dS5DiAK/Jpi8Ao39bPNbZmvxqad9SaHekr/XS+JCfwhlAmJmPO0X15PHjtCGkHeYnBK1VW1iub3feyIbpAvmuwMF/aHrP/WgzfnYqqex3b2QOQRJ4C2E5EHm3K6LyVs7FVH0+RZwDsmA/HReQGV9SwRL2aUwyyHrzKSQFcHrwD/G758KMM0OOWvRfUogtxfqLeuaLolh9pfbQH3iDA9vk4NwB/kIxF/pSTJc9kzyXlijyNwEpamJyqcx4sNhk3ZtwLhbg0qPvu1Kqt+uoos2LRP4WOiD7AwG3XtIrDwnzGnY+pf9iu2h3APXk0YwNyVTztXtVABo7SayDteEZfTcof8tELEdzVVaX2KEaSAwCUmt09GQZz33W73r/iuhcJ6BtdXHm0mDOLzBoh/01G1fEEz0X3LnWuOHtAWt/X1MIBm3pw/EvsX5vRd4LM5wRCC/HzRJ36zs2D5f1ilW/PDbUnDfYYDq4QvXjWH4GDG4S8u/g7JEzFIlcJ8U0AK3NfJOMI2vqRyUu40SujUxZye1WjnwBwbB5f/DosHJyod6ZDhEVvGMC7DB4fUyF6EWA6aUGwZ+BBtvhoqfQtUe885VDtJcSDeWj1aE/rxydnuNOn/xRv4yBX6ccB7JNH+4/SUV9N1jnPlIpcfd9IB0aClArR+xgrFnftiuDRWm8n6yIldTNpRr28u3NMHU3BdIO15adR79F7bNJCrk/AMbmlYwh973EA0Rzb9CC4ZHBMHVZqCRvm1EdeAfBuwMcHNGW6hpQ6T1Spd8Dz1Z6CgN6iYH4puJaf8Vq676L/PJ7W8wHegpzCUDnUt93HJ2Y6DxULludZDws4KMdParcgY2dF1T9Kc60nZNp9IWiSDIraA8CSUuZJyVt0Sxg4qyt9vFTKfU3G1H2e7x+Qc4CNyGDLt54Tz34KkJxITuAN3+KYWbESJfn6OR8vB+80oyXPk1LvACk7Bx5cS5pLvb9zhlW9DMs5AIJXciApILI1gK/kSPKXlaivlcVlD8qrJhNkheh9P2KBB8H3uBRlgGSdrKjJqv0JGFnVPHeUHorY6qCZUXm9HGQIi68FftbPeYlTIXqIPljgQaCjVqBMcO0IaY+sUSdAZGYvCPn6wSvVUaWehvoTuqD1MgMd27nU+6tKf8SwZdB5edflWIUyQk955u81trpLRfArhB/STAAXJWPqMpQZIuuqV7oDNQPJjNyq1PtbDgEzQYn+wfRDRKMMkap3fiPgGQD8UElOnp2MOZeVo8x6JslgWW1EtqgQvQ8xZR4dBE5OWB73ijeGRCwyQ0QmoDt7ar7wAE5K1kf+jLIGg+rEwOmkVSF6H6F9G5PzZK5GmSMRVTeJSKMgL89Fk3JasWSbLfDeQ1CdsN5eiH4VovcRqrJGewxd2Bzg2fcQ/mu56z6WWrT/sTmISgx04sN+pb2fVdJEd9zgwheBV+6K29DMiG/pOwCpy2NlHqXouxuXsrrc5eUbhBRHshWi991AOcGrovgsb6I3kHZ/R98cSu0zwSHi6tumP0pVzjITBt/PyEYqRO8zZH0wuO6WT9qsz0NtxrtBgBNDbPK4ZTt515W57172ZcPLgujVZuvuqnIdxHir+yOA8dAbJifH0+4FZaz/JsuTzgrR+whKGwhfUJZrzqa0PhHdwTKFwqXxVn1yhegVovcZ3tkNwYsWUGrKTUsntWa/RvDGAo+jQJhoasmOLjf5ERKU6EztUtqnNiVN9J6i9QFnWm5ZTko6YTF39iF3A+iNCayfb8k98bbSv9zxyRkssE58WIp5DMqG6D0IWlp3y1KPblrvrrdwgO3peyDYLofX/wTBFeakwPbw9QNTFnOLcpBhz4lCwL7wvVLv7+ZEdCu9HCWvpA2kTUvfBGBkDs7q7GRUnZusUz8kZVYOPz/C9fUt5XDstmwnbInAl4Byq9NeIXqo66zAREd1R9dXSr2/AzLeH5BbxtY726POJIgQItxllX0GgHtzEPiRy3bUV6Dkkd3GoM/vV4je9wico522vUspd7Qxk51KcFoOi9F5Tq06rWdPo9t1PUR0javGAXgxh085O57Jfr+k1+e+bZA1hu9UiN7XAyZ4Lfh4cZcSJvnXpbuKiilW2VAnfF5ZoWtHSLv46picctBRrmpqdQ8sVXn6lj8kuI7J0grR+3zEgqcEIqUkiT6+jV8RylyYVIvtRruQR31R+qfEMFllCb6NoHezP4bjC26fspDbl6TeGOgChcsqRO9zk24FJrolpWfRG0hb+fqvAHYynQIhclqiPrLJzLezopEXSTkZhnnjBdjetfVNpbg5ZwGBdUH84DpWIXqhDLp4gd0qQkouEX9tRl8K4HBjgwX+IBlVgctPperV/STMw10FhyzfUf+q1ORKA6L78Cque58T/cOIyWxbUhY9ntHfBnBeDhsXM1OxyFWmr6XqnSuFcm0OpLkgntGlVks86KTPyIDI8grR+xg3jpR1CL7zvu34l9i/FPo1YVFnDORsmCd8/Ofg1+2cd8TXxuyzAdxnbNfJxOR01/CS2PPo1oGtA85ib1XqoxePGxbYtXKq3bpi78/UZtbatn0nYBzg05oVdVI+STDniniOrU4D0Gr46gAP1u2lMJHaNW7wyismpzoVohcWQoOdd1h7FXt/OpQ7C8Buhq+1++KfeFNU1uT7+zOGymrxvW8DMG1rd6fGnVn8ChO8eqyAFaIXz7jJIoNZYe+iXpens2dD5CRzt0Ymz45WhVZyKjGsupWU0829Kxnb1Jo9s6iVnsEne1+kpUL0YnHdLTGJ7ipaiz4x0zUCkEuNJzrBlcl6dVvY35OqV7cCMN7Uo8jvJ7R07Vm0CiM0qAcvL1SIXiTwLNuE6HsXY2H7xqWsFlo3w/TaKfHM2qz6UaG+a/BKdT6BJwxfq7Yt6+aGFSy6HADTSYtE4EnI9+0K0YsFc4bKcgQvbD+wGAvbW1nvCgFMreBbQtUwd4RkC0aMQ0QrpU4CjMtZjajt0JcWm5yXt3ZFAQwI+Pi7c+plZYXoRbVON6l9ropqnd7Uqo+k0PRITFvASYlhUvB6cjN3lbdgoQGA6YQyrTGjjy0mWftiNPbzy4UfZZPO1wdeEODQYN4u9wbwt2L47vFt/Ap9nYTheTnBR32xGuKZ7CTpSZPF7ja+tMHavQb8OC8aIVt+cnLk+xv8Ryf5idRcH0hPSXUKO0BZA/IJCA4z2j4gZzUu5Z6pIfJmURgEg81YMqebfRWiF3gIFyB49uc+sehNLRzgS3ZHW6yveJCdINxOfG8agG3NPRg5HOThgGy01+Rnp4eN/hc/bzL56F/k42nEHNtYrvdMY8b9Myhv2uDrHv23++nI69eOkPY+GIa9DWS8oIw83vJAY2vXMBEr6DHbB+1RtfWG97PDwNRm1nYqdyjEqvOFdQKpg8+hEOwEYEegtOt3FQDrRLCSPlaKJW0+uNiitIF+W7V2Foc9EUx/lGrZjvo9AAMDWXTbi6WGVmcqRC8iTCetZRm9GghWeNES7jMrGjF2zaZlWNUOdwR8KwphHSF1AtaBqMsxh1sFG1+fvAlBGyFtAraRspi2nxHbaU4NEeP0y/F0dl9Angv4+JrBUbXldBG/HERZNq77dBE/nnbnAzg44Jp+DDaRXWXcMm5Z3alH+MJRFjEKIru1U+8OSBV6koKud5ylwssCmKHtAGwn4IE962uIL4CvdTytlwNcKMR835L5FnVzIla9ZBMNHmzw2/PKheRltkYHQDwOCUZ0UMYA+EPPYlbibdnhhD1KyD3RHVQzEl16G0p35R5WiFxkestdAexKwTFCgrART7tvo/v05SWIvGTTmz8zGmlZn6pZMCboNo4Qj5XXnFlGiLe434SFhwM+3g7hz4SyH4FDEPQ2U99NYhWvITesAfAf8fEsLZwXdJ+ExEGpeufJCtGLEI1LWS2ufh9AdUW/K8gDHbWitrw6Kl3l0qGyqjDas0HzfxU9rSBP6/dMOZG8rNbok5dwW9/1/of0t4FUfNwK8lgliezSmM6e49vOnT3h1RXXva/QQNq1rfpgWDgSwBEAdq+oaAUFYMgrJB6E4P51derJsGMvKkT/3KmWEl+s9wPlFJANyCGirISG5h2AbUKsJrgGYn0A8AMAa0CuFlhraGE1wdUUrgUAi6DQ/2C9u6arOtr7f1yE8ubB8omKI+OWfVxksHYdqrXqqvnYqllf8qVbP2zIQFIGio8tCH8gRLYgsIVAtgD9L0FkCwADAakDuE3ZDgnxpojMhfCWRJ16rpQKL5YE0SdmukbYvtVAkVMB1pWWbpgLmcDL61z11ULeSiuIl9XMSG1EzwOxx2bg4K8A5E4h5ibqnacqRM+Z3J1DbdrjCIyFeVqlvsJ/CXRHcUEWiy9LYfFCAPUGbWjf4tdn10VK8uZUY2v2qyLyDAz2fwi0wJfLxeIQgEO7PQMMBbBViXR7oQC3euLdPDtavbhC9E1gOmm91uYdLeSZAL5VpBORB6AN5EsQeYWUNsBfnK122j7tGsfT7k8B/NJoQAS/SUSdn5SyrWtKu5cSuNCw3z9KRJ1P3F+f1MytoNw6X6yhEEaF2B2CkSTqUJwnRgTwL4pcs0ud/Y9iiqwrCiI1LuWX4LoTAescAYspKcRaAdIgF/qC+RZlvtupXuxJMb1Jj8Si/SrMzvRb6Ki9c4njLiZMy7CqnfoFQ0+sy/O8PecMr04HWSL0i2Sjtm+PonBUz+/sheIKelopxEwF9ecZ9fLuZk30bjcPZwJyMvo+yKUTwPMQPEVf/mOJfjkRrVqa64ZLY9q9T4CjDV7xfR8HzR7mPF0OK9ieopBPAbANXvtnMuYckZstpTRluoaAaqQPfk0EBwIYXQx6Rcitlu9fkxgWmbf5EJ2UpjbvWJI/BrBvkeilL74aFFa2lsa0/o6AfzMciSuSUed8lBHiafePAM4xc+Hl24mouieM35+c4U4e9bIicvOfpchvU3X2fb29Y99rAphOWk0ZfVJjRi8geXcRkbxbDuIdFkZDDStYI/CvMFvYyVL9oboEZQanVv0YkDYzO+BfHVYRCB/u/xTZWn4/Ie+JZ/QL8Yz+7nTSKiuiN2b0scsy+iWSt+WQADFXaADvBVYwYSi5zWo79cWAUXlm3wYbg6z7Sw0zdpAPKfweDFL/ALKzqtEXheI8+hJ4TIV4t0dnegN7gZy7rE0vmJTWR/fGDxbUdY+3ufvDx+8AHNhLAlxFygNi4UHHsh9yPfc7gCQCvtvu1Kpt86mz1dTSWU/LfhkGdcwpck0qqs5CGaMxra8T8AyDVwJvzG0MU5tZ2+HotxDwtppQJvoR+x5o73AhjiB4pAC9UvudwBOW4KJE1Hm2UL9RkFj3Ca3c0Rb3cvgYW/B9AHIZRG6zhLd+OmPM+Db+Q/naC7ghVJtd6x0H4NacP8W2/wAGJzmAt6Dsn6LM4Yp9oUP9bQPiVNm2/Wd0H7HmhA8j3gnCwKm7PAX7/hlD5AMAcwHMBSkTF7v7iC8nC3gyIDsX0NoeROLpxnT2Zst3LihEZt9QSdjQzEito88FcDECpnTKEW9D5Hbf462z69UzX7SxEW91n4Zg/4Dt3peMOTm58I0Z3SDk7UbCFzktEVU3YTNAU6ueQOFsM+WU7yZiKqdsvfG0+yCA/wn4+OPJmDPmC4yJNKX1Ab4lY6U79PorBRTVWgC/cNaoq2aMFrfoiD6hpWtP27JSKFyG1dVC3uNb1tzIavvBoEJozLgXChG0kIDrUO1geu7Z4yYuArCTwWuPJ6PqkFKKl87T85J4Rj8O4BsGL62ocZ3dTJNETl7CbT2tXw/qsQpxfqLeCbSB2kDaA9J6PwoaAIxD4c7uXxWf8bCO5PLejJsyj05jxr3QtqznC0TyFwQ83alVOyTqIxNSUXWvyUxnu+pWg80gJ2u5xgUOOxx9sSHJtef7Z282JO92X+iL/30ABlZKBnU62nhp42n3ZINlqU9bBfbE5op4iXrnqWTMOadW1E4UOQnEMwWQ2O605NmmtHvptAyr+tSiT1rIwb7StwL4esidzApwN4AZiZjz73wbi6fdJxF0Q5B4JlnvHBDYeqS7hnuwXgLgGEi97M7MA49Fq3slBP9rogs2/L1mxqoWGYz3cwh+fPtYMuYckm+/JrZlR1m+NQXgeJjWzwtg7CzLO3lWXXVbrg3kbNGbWvUJvtILQib5KiF+DlE7JWLOSWGQvJtXvMng4f2a0p27BjbNsC43IjnxpmOpX2IzhVBdAsCknlnEg3VZYMJlOocC+JrBkiKUPZLZdZH5yZg6XVtqFwouQrh11ffxfXt+Y6se22tEbyDteKt7JYV/xwblf/Jk4iuknNIeVTsn6p3pyai8E6pyuc7tCF43TAj7lIDr/zGGYa4g5H9nDJXVmyvRE8NkLSEXGL52zMRW99BgCm2fauCpZi3t/D3M/t1YJ2+nos7v2qNOHSDjALwaUtMDRXhLPO1enkugjdELU5tZW5vRdxm6Xl/okpByQrJOjUzVq1sLlb1j1gj5L4AHDV45dVMPTCcti/i94YT2SE/N8T7D1GbWTm1mbV9+QyqmbgbxqMk7tuB3gcpdE+MMmv1Hj26EjrkiXjKmbhkcVSMJORHAgpCaPn9ZRt9pOoaB1+g9O5n/BDAyBBu7mMRPUzH7tt7akIq36pMhDEyyTVVyaczo8ULOKeRaMx80tXAH2t43BTiIPkdAUIfPHgu9LYIMKc0ieEK59iMzdpM3emU8Ml27gdYCk2XPpo4jm1qyo2nJ88GVP/fjO1NMJ63XMt5YAX7Zk5M+X7yoLXXEjXXydmhE7w6A0f8GMCw/Dx3v++AlkTXOX8I8IwzkZnengn4TwBYBleDqREydvdG2sm4LRAYb9P13iZhzUSH72H091B0HyEQAB8F8s9UH8ISAs/uLc0uhM6HG0+7vAJi48a+316jY3EHSsZF9o2sonBqwrTXtNWq7jbVVKDQ0MzIg4k4l5ZIQlr6LxFeHBQmw2aTrPmExd7bFezxPkvukzKKo+lQscnVvkxz4KBU07wq+lub4jV6u0PocE5KDeLPaVb8qVN+mzKPTlMme2069pCfk92DkdqJiARhDSLKdenE8nT17yjw6hfruGlf9EoRJOeWdBnTosza2JKHwNAOzc0dvkxwA5o6QbCIa+aO2VD0hKRjdA/gMhtPSj03OcKe8iD5uGbe0Pf1Ad3qfnNEiggNT9Wpy2JtspiDEZIf1S3Y/9+TPkKqVWwvxI7Pf5c8KVSK4qdU90B2oF5DyBwA7hNj0joBc5Q7UL0xscQ8oxLdfO0LaIZxuJkv8eEorPxOk0um44xCwSmqP6enTiMQb6+TtVEzFhTgIQD4VW6Me9QONS/mlnIjeuJTVVV36buSer80D8Pv2GrVPIYP1TbAuqh4hEHgNKpTPXMTQ4v0sqPvfg4W7rHKS4c9alMZ09hwKHkVhc+rtbll4vKnVnV6Ia5WDVzqzACw0mYBd+bwgGpli0MbKwfXqsWLQyUS981R7jRopgit7lk45jZG4+s4vCqyRjW+WZGeDMiE3y4k3xMdpyWHOIygyNLa6vxVB8LWycFQyGnkBWJ8eaiFMbqdRjk7Vq/vDXouvo76RQENvyk4Ed62tVuPCdnnjaX0MwHsNXnFpeyM+ql3ek5DyPwbv/yoZcy4uNt1sSruHEfgrck5jLslkTDUFtujxdDaeK8kheEQptXcxkhwAFPUMo5mT1npLYdG+3ITkAB4Lm+QNK1jTDn1/b5O8e9LC8bWd+r6GFQw18isZU/cJAhfHBADH8uxfb6DGpxvtF3l6VjHqZiLm/NvRam8Aj+c4QvHGjB4fyKL3hHTOAwJf8duwuRmDV9pnTj9ENIoYTa3uAxQEzU3WLr7agUrvAR8m+dx8CL/6kTcQCslJuzajbwfwnT4W4b2DV6rvhDnO3SGk8jyCbyIS4H6O7bS4nl4JIGhWmvuTMefoYtbPKfPouFt414KcnMPr7eJ7oxPDqls3btFJ8WBdnwPJCeDCZEydXuwk72Hg9QaP18JyTxUfvzCb8/jXMEkOALUZfWkRkBwAjl2+ow71FGF2XWQ+wZuNfEfIz7OeO8GA5KDIX4pdP2eMFjcZVd9Dd8ps0135Wlr2Xz4dXPQJoje2eafB6Brh+pn13GTMuQwlgl1W2ffBIN6aYp1H4FCDn+j0rHDXgD0ph84rFhkSuKCxzT0izDaVOBcBMFn//4/AOtfgq1esq7PvLxU97eYUvw/zTboxjRnvlM8l+pRV7Cc+jckq4NRkLPInlBCmHyJaiJkGi9M6Q6H8IcwqnFNWsZ9P/xoUV0ELEZ8zwgynnRmV1wn82XDK2TX4sMgNpVYkMRmLXC/k2TlMxb/fcC9lPdHddncyBNsZzuq/TMQif0EJwrLUTHQfAYaNdx1L/S7MBt12fYlRgE7vcX1Qh6PDjfZz1G9gkNTTABq+mlWKupqoj1wDwW/NbA22H/Ch2/QJok+ZRwfED8ymc9yVipZuiuKZUXkdwD8K4NT+MszbaRMW8csAphaxKM/9vACWXJEaIh9A+OsCfOe9hcjF1muWvU79BMC9Rpoo1g+mP0q1nuh6oHecWUgnl3VGVFOpZ0ghjTblgmBVe41zQ5gN2pY+G4XNv5cv+mctfWao46Kc62B2Zz2IYfpLKesqROh5Kt5dxTX4smbZTt7R64lO+mbpk8Q669MFBUsRu8TsB8NMEEDhr0MNJiEFwglFr4M+44GukAa36p0AQ9zclSU716l/l7q+zhku70GsaWY61M1tq2EFayBylMG6/B/JmLoPZYDpIn54xy1cMQBOqGvASRn9DcNiEH1lbQY3pXWo8fB0nBnhWXVeV0yVTfNy4aPqbqFJbgU5tmEFa6wBnfobJq6hgGWVBikbUTPQnWI3P10HfhP2tU5K4HTFfb8MAg4Ps73UEOkEeWkITa11bHVDOeksbaNS3AMGdOgDLPoYZfDSc8lY5P/KSWg3D5b3CeRpibmiv4R/cYU+xpTOGhLfDLvJWsu5AcDreTZzfbml7krWOc9AEDgNtC8YZVEMiC5mBQpKBp6+CnnU3SqENe9en2OPEpJi6DX1ro5Kl+Rn1V3PVleXpc4StwV91CJGWSKIBdc9szxfpYLU8JrXBLwjR4kvX+s6ibC/aUIaOwAYUEJiHDhlIUOvVbZWOzeAXJbjZHlbmIFLxeVB8ZHgcwJiFogtg86OkTVOM8oUnmWY6PFja/7ruSMkG/o42u52JSdDJ/xvnjtCsrSQ0w68ZeHKctXX9qzzanAvlFtZQGCiv98XKaB6C7PrIvNBPGdmMPDGWtdJFWbClgElJ8QCfXPPacZbRvITPP1FyT1LHT3GJeARt2xpIfj96izKHCLBMmpuwMa3CmHNe9ZVqtTkp4mC5Je7OipdEBiNjW+Wi65UEXRfKGIB+CDgw18qZ4k1LuWXCBqV5hHIyHgmu08hvscXtpeaDBW4thDtNrVkR4PY3XBJdfiUxdyizIm+VcDnPjAhem1TC3coV4lJVn8f5ptfgu60vQVgOj8oNRm6vl+Qb/YtmQ7zm3sDXU9/r1z1Nd7GQQieN+K/FoBVwQXufb0chTZlHh1IzhdHjmtszX419HWpFVmKwtyuK5jn3uFXvRZ2oxPbsqMEOCrH189taGakLJlOb9/gz+INC0TgLChC/4RylJke6J4Ks7LHn17bh55osPtcXpaWzv4GlhRiv8Ly5RfI/R7+jrUR76Ry1Fmhf6KB3znfgiUvGIzm8ZOauVW5CY2Qc/Ns4thCWHXAf7pkZEh5qhDWHMCReX7ZBWFeuCkGTFjELxNynMG08IJF7ZoMUC2dcK8k9jWaWvWRCKGenIj8LPxZ23qkVOQogtC/1aL8Evlm1SH2aMzow8pJZ5Wlpxmsz+nZ9tNWd1QY5geXG344oZU7lo01tzgtpKaOCduqd1bb9yL4EUpfotNXdqhJPOLp7L5gvtb8I88VZ5eLvk5ZyO0pMPFA/zNnqCy3AMAXzDV4cYANtywijiYs5s4gvhWiWQt1B77nwk3RXwkW4N7UEPkgXG9GpofY3FGTFnJwOeisq/SfYVApSNjNbQsAFNRNMAmIETmpMZNtKnWh2b4+A4AdosIfPak1+7VQ3VfBFSWwyRFqctDGTPbrBnn3A4nRU3pSqetrY2v2ezBL992lPHXzeqJ3508zKkAIoVxdqGCRXnGB5tEh0Rh2u75IqGmvE1HnWQJPFLE5fyRR7zwVbpNSiJxxkwtZGbbQaGrJjhaRqww9zBs/qne/Pgus+Pp3MMsf3Q+UBye1ddaVouCyW3jHC7B9AZo+uDGjjw15H+EHKM4zdc8Czw9VoTP6ODD8u+0CbJ8d6B1bkiRPd+5KS+4DYFIKy7fprV9iryd6dwkXSRl+wza+rx6YsJg7l5rwBDzD4PFOM2+Hl3+UfTMMzK6LzIfIdcXnsePqMC+ONJA2yd8avmYwNjy91PR00kIOJtRDMC28KJKYGata9Bmid//RvgjAfw2Hu8723Meb0p27lorwJmY6h4I4xEBoSRhEEAKoX7ajG+qakMr+IYAFRTRTvrKuRv04zCZr29wpMCgBTeANn/JXA6t+eOPizmgp6alvu4+bFKnowXuetj+Rb/8TRE9G5R0Bf5TDqO9C2M80ZrIlESJrwf4+DM5nqb3rIDS7r06Z3tTC0K5tpoZIp/jeWPOJuCB4j5Z3YpgZb5taOMD83gB/K+JfY2TnPHtyKehoU8bdz6L9dC6FOyi8YM5weW+jRAeARNS5AcCdOXzbtkJ5NJ7WpxSzAKdlWAViQnDNwNOp4VWvtGedawBZYmDxtvMt/cMwvz0xrLrVIo8EsK4PRdgBC8d9VJs8vH0IfaGJe0rI0gHizEjFIgsAmOQxbJqWYVUx62hjRo8n8Qhyq5N+RyoaSXzWuH1Ws0lHNTG3OOtqgDc3tWbnTFnFfsUoxHZ4DQC2Cbyj0VN5de4IyYrAKPpNgPN7bhmFhln1kf9QeBgKU7ZoU/15n8T/JOucZ0K1Xt23Is818soEF32cp48mhTi2bqf3naIk+FJWx9PuVULO6eaS8XS53HLV6Z/vxX6+m/gBLb8BQE53oiky3m3XT8UzXbsVmzBJmlxd/C+UvT6YKFFn32ySfRNADXxveth9SEUjz1mWPwZAptdILkh74n8jVe88GfqYWN4vYVL6GPhPou7jcWmvcW6VwNlWAIBTim893jVCXP0cco/iW2sJjp81Qv4bmOhA906vUE5C7tlR9watBU1p99JiOb+ctJCDxaAstAhS3VVDPvZ2ABgeJ7FxUia7d9h9mVVX9WpW1GiCNxWc5OSN8NTo2dGq0HMGTmjp2hPgRDOR4vwNy4HNHSQdBG40aOHgxkUduxSDTk5/lKox415o0ZqP3O9cuBA0fNEJiPWFa8J69QCFp8O8GPtHcAhcqAfqZ8OOGMsFvtKnwWQTDv5n8r0no87jMCt2Z9GX3xSiPzdFZU0qFjmNwLcALCrATyz0icMS9ZEJiWFSkOwxlmVdDoPoRBHc9XlehQ3/LwZ6KlDq5L5fi2e/vmxH/R8hLgWQ676BD8r3klHnn18o5wBuYkJExiOPgA0Co3yR55pas3PGt/ErfSjbcQbPPpaMVi38vD/Y8C808XQoOKKxzT2iUJ1KxZyHBkfV7qScYnJB6QtoME9ETh4cVXvMrnceLpiit7lHCIzuGmjf9z/3VGhmrGoRgSeDdxGn9pln2cytutfi8jSAfLw9D+DkZL2aHaC/AQelVY8V4Y1A3kkL2wW4Br76daGsxOcKN5Pd22fwu/eEnJqKdccJfx7iaf0XwwCMTK2oPUIv9PB5fW3r2t33rZMBHAZgdIAx0wCeJ/Bvin9bIVz0T2NahlXt1K8AMDjXluuSMbXRTEDxjD4NZGAX3vP9kXOGVb3cWzo4ZRX7ZdfpaUJchPxzMHpCaUrUqzlBHg5M2lS9urWxVa8R4a3Ir7BALYELYenx8XT2F+2ukyxUJtVP+jdiMoOv8zrsu7+QGZb9M+XrUwAMDNhmtJ36hwB+Vei+zqqrehXAqwAunrKK/bx1br3nW/Ww/K2Aj1Iyc6341nuW5aft/k7rjB3kw960auuoLzAjOdrp2L/4wjH50L5T1eh2BKwlqCxrHICCE72hmZHaiDsp264vDinseo1Qxibq1QMGHkwu1kLuDa/KJ1cQuGJdjTMj1JLDG254kNayjF4OINA9eiFvTNRHNnnW3pR2LybwC4NP6aCnd0sNr3kNmzEmt3QM8SzVDLPY7YuTMWeTk2RjOvtXCTypc/ngqDOkUJVWp2VYtY7uRAI/BSSsY9bXLeFxpqHHlumvzKqrelVbzr4ChLR2k0EC+WP/Dr04nnZ/Uog1/LJWPSYoyQGAVrCbfGtr1O/NCtOjRiz1R2zm8Cx1lSHJV+kO9YeAg3ezge7tvCKjDwx9IlvCbeNp9yftvn6NkOvDIjmBf0HUPrncL7By+cEb6+TtRFQdTvBcAKFUb+lxaX6lfL2iKe3e3pR2w0v/Yxm57W8Nfl0FmsTmDpIOCqYbdvTbk9L66M2V5D03+4xukVF48Y0jJVA04C6r7H8BeKdAS7ovxMS27Kh4Wl/vab0UwK8gCKtElSfEz3eJqiOTUXknR37lh3jGPRhkKjxX/hMfN98XXruu2rklV7e+cSmrxdVvGGx+XJWMOecaLgueBmAQ5y+L6di7f+KMfjNAwwrW1HZ4rxpd0hDMG1yn9jVxrxsz+s9CnhlQx97vL2r7XDdJu/vkjhXImYRRCfKgAlhCsjHfQCUr389IRp3Ha1xnD6Fci9zP2zfmqowSyqzaDr0i3upe2dSSHW3cQdc72oDkIM0CUKaL+L7Fs2B0/MihVlZftLlZ8/4d+keGN7E8X3iG+Rra/6uBjm3ZDs/46LOpJTu6KeNeUduhVwCSKADJfYFcrTvsPcOIRgw1DW5Tm3sIfVwHoL6A+pIhcKuCf8uG92036nGkszcDEvCijbQlYyqna4zxtL4W4PcNXunyPG/POcOr05sDySe1ddb5vv0KDGK4hXJtol6dmdt4uGkE3tXn7GQs0rhp77VrN9IaK8BYmJ0YmGKhBXx/VswJLbOQFebXJeqcR501ao+etfuaAgkhKsDFHqyF8bTb3NTqTt9Ylpsp8+gIJPhsLbwx14/qqrJ/AhgVAqyybftP2Ezg+/ZVMLuo8Z727ZxTaBO41cDeHbOxRCHxNg5qTGfPacq4T4FWswAXF5Dk64T4ea2ofcIkeegWfUNMaOWOCu5vKXJq2BPK548r/g/Afb7FB2cPdV6ACHs8jKD5xmlZXmxWXXVbzvsV6WwckITRAFC+k6hXd5YzyZvS+kSCd5gpJuOJWCSV82+2dNbTsluCL9lwUKreeXI6aS1vdfehJUcAOAbA1wrJk4/mQYA3iu/8ODFMVhXiBwpewSKe6dpNaE0n0NCLuvWOAI/5xFYiODSgIOYnYs7o/KYbSjytn4Jgf4O3VnVVqd1vHizvlyPJJzVzK1/pZpMdaBE8nahT39jw4kqO7vsCBL8oci8gbwA8GgZHsSHg3wR/2HOvvmAotKVFMlq1MBFzTrKAg0E82kvC24ZAQ1CSAwAF9+Q/bQrp+2fA7MbfDlVd3hUoU1C5fzQ8ZvJ88qx8Sd7j591t8PSxPddXe4XkAjwsxDeSMefwQpO8V4j+EWbFnCeS9c43YeEAdBclYFEpJHlPGO2khle9IjBN5Mh4T2moskJjqz6K3ReiTNZgV4el+ELeW4Ri+bcI9k/EnMPCTpPdp677xl367D6gdRbAU5BTNo1QkYUlM+jhaWXZT3Xnuc8dp2Y40KFuMYxrXklH7R52xZO+wqkZDozQfdUoKox401Fq2Iyhsjov3WrjIPjegbCwP3yeDqCv8yF0AHIL4V/dG9a7qIj+EaYs5hZZz20ErHMEHFIMSirA+xAsJDFfKPM9228eSOdVk6CKplY9gcLZhr98fTKmzigHoscz+gaQRokYN3Vj8NNoIO0Bma7BvqgRls9RFIwCZLccsqYWCiuFmKmg/jyjXt7tY50uDkwnrdfavKNBniXA4cX0betnZUEzIAvg+y9ZIi93VKlXNrqJRko8ox8BMMZI130clhzmPFLKJG9Ku4cR+JfJGArwcCKqDt/Y2nzcMm5Z06X38MCRoDVSLI4EsXsReIOfhi/EvyhyzeCofX+hLsyULNE3xIRFnTHbss+gYGyBqqmEifcILBawjZDFFqWNNts0VJvFrgEW7ZcRvMQtAFmiO+w9g8Z2FxumNrO2w3FfMQyJXmf7eg9Eqj/0fD0UnkQpHCrgUELqBBgK4MtF3vVVIrjVt7y/hJ0ht2yJvqFrVtuqD4Ytp4D8DoCtSkzv1xJYI+Y7uX9KxpxzSpHoJnHmHzs/WCmCgcgvz0GfTPKA/E0s3rrzUPV4sVjvkiP6J0jfzEit432L8McK5NsImFygFEGAIriSlBdsYLVHrvHpr3b8yOqO/ljT12fu45Zxy8iHnVv4Yg20xNrCFhnoAVtYFvfyfZwvJaRXuUzeIO+2xLrVXmP/a8ZocUvho0tyQKasYj93rXcshN9F93p+C2x+WA1wDSCrBehi93XhDdNzr5GeizYkuyDW52eQod9PRKp6Jhgbn8yYM0AARaAK4BaADNxMZf2BAA/5InPXVdv3FSpBSoXom3Dv+y1297I9ORaCYwjsg/K2KBXk5iUZKoUsAXifAPeuddUTvZHurEJ0A8TT7t8BnFBR7QryIMXfEjHnu+XUJ6sMx2nfiqpWkKf1LzsdKiuiN7V01gPYwcCba62o9WaDtxA87HqniZnOoRWiF+tMbFljDNyzF5IxZ5gtahApp0DkzwCeQ99WKq0gHLQDeFYgV4My1hY1KBlztoNBamcbwXWpFKDKbIAPDjwpCB4DgJ649luxQaKCphbu4NveKMvnKAh2IzACwHBUNvmK0c1+Q4BmAAuFMt+zvPlD6iKLNnKm/RgCXluljzEAZlWIXpwInrqX8tjG/tRz+X8VNqixNm4Zt6x29V6+zz0F1p4AYyDqQsz0WcEXM/pNCDKkpCH+KxB5KRtRL5nEFJDymAiDBSIJDiwn8ZWNhYpnuA2og6Zy8uiorcO4KdadpL9rR8De1QdHCKyeSxWyK8DBMCgguLmjp/TxEpALfUuaAVlC8ZdoOpmbopJ3arJJzdzKd/Q7QZeslqu+vLEyxBWi9xGaMu63SPwzYKfzzyYTAI1LWS06uytgDYIv2wHcoccD2EEE2/uUQSIcBJb3kqA70s9aLvBfJ/EGgFUg3gRkFSy+adNfXiORJb1Rl84o64yPQ0v9glHZue4+sLcEflae741v6snbvrDnn8+fDFr18SK804w4pEDWInjdt5AYyzWwpBY028QVkROSUfvuoph0KPNEODLYd2NvABWiF5drwr2DOigW/BeL5btT9equeFrP6EljFLCvIiJ4U1lqZwBoV7BsF47jd9V+rKTWFlp6CKml2ra6SyD5PUKyeo6aPB8dUOwEAEX4pL8+6YNrVbV7DtxaDV+78Gnp/wMx3GhcKNcmYuruYpG3Bf/FoA6UL9y7XPhRRkSXvRlY+bCgqFxbxz5HtN4PxB7BLRNirtazkzF1wgZ3uN8uzAdS4hl9O2BGcgAL1QD7h0Ula1tehB9Yp/YpF36UxTn61GbWkqgL+LhnD3BeLabvTw2RTkv8cQDMSjQJvh3P6PMKvtfQpi8AYBoS2kXw1N4ux7wp6HXqJQSvqhMb/xL7V4heJFhn65EGfWkpNuUDuqvUCvHTHF69tDHtHl6o72pqcw8Rmtd0J3hhX+VH+yL0JPQImhjCdvrpPStEL5ZOmKylyBeLtR+JmLoSwP2Gr9kC3DihlaGnKZ6ykNv7Pm7KYYn3z1TUKeIqNMF1wEd5rNPLIwRWrMBrW4EsKN5+CG2lmgCsNHxzWxv69inzGFq204ZmRlyl/5ZDKq/XtaUmhJKXvVBihgQmutCqWPTiGTgGv4Bg44Vi7svMXeUtdifUyBoKYX89MLxCEP0j3pUA9jN8zfV9jL2xTt4ucpUJTHQWSWbiCtEB0CARoW+rRcXen1Q08hzB83NYF0/rrv+WHxoz2SbTvG8AQOG5s4c5Txe7fJVWzcHnT1SIXgxoIG2AQYsEdKR2wVul0K9ULHI1YJoXHgDk+omt7qG5/u6ktHuQ0LTSDADw5lQ0cm0pyHbGcLwJIGg6qMHTSatC9D5GzRLsCCAS8PGlxbx2/DTaa5zvm7iZPXAswe09d/PNLHlr1zACdxnI8yOz94pT63yvdNZ6QgDLAz4dWZIu+pTj5U90x9O7GDz+Win1be4g6bAs7yQAHxi+upVvqQfiGW4T9IUJi/hlEeseAlsa/tYHlnjfKcYjyy/kOrE0+LNGOlYheiHgUwKvoSiytNT6N6uuuo0iE2BYlFLAIaD++7QMqza5/GlmxLb1HQCipv46IZPyqSnfZ3ojEnjSt2wZUiF6H4MWA8+2Qr5Win1MRdW9EFyaw6sHrqObAilfQFUZoNyZMCsd9RF+k4qpv5ek4guXGUxnFYve90w3KP1jMIsXGwbXqZ8Cwa7hfkI8kLHxjP7Jxv7elNaXmJY27vYY8HB7VF1SsmrjG3h3IoMrRO/rtRaCR4SJ55cs0aeL+J6nTkXw8M0N8Yt4qz75MyTP6FMp+JmxzAVpcdVJc0W80lWc4LogPneqEL3PiR68HpvynZWl3Nc5w+U9z/OOAfBfYzEJU/EW95sf/Y/GtHs4yVkwTz7ynm95x5R65hVbguuCLyVX868M1+hg4Cqb7xPvlXp/5wyvTpM4HoBpNpZqWLh3Yot7QDyd3VeAvwOoMmzDhY+TirFaqClWVwfXBYFUiF4ENj3oIKwt9bI6HyFV7zwp4Bk5vNrPEjwAkX8ihyKVJM8sl9RKPfXTAgbNsEL0vjXnFAQutcv3UUZIxCIpMoedeMEAMKdCib9O1UduQHkh6PJjiwrR+xANr6M6+BpT2stMSZGKqR8DvKUXfuqOwVH1s3KTn0jgYh12mDcDK0Q3RH9ttMbsRPlpKttrnEnorjBToN/APKdWTdxIQYSShs/gOqFqjPczKkQPEdXB3fwyJHrPWpOOOgHg8vBb52u2rY4ptfDWQkz+WhnoWoXoIRsbD8HdKYFbpsqK1BB507J4NMyP3b4I70F49Mxd5a1ylZtloBOahhd9KkQPkegaJgEbZV0xZVZd1asWeSSAtSE0t5bkkclo1cJylhkZXCdcBV0hel99fKRC9E+QvT7yH/g5nbFviKwIvpuqjzxf7vKCBM+FF+mqEL3PkDUTvsJmADuimiHyZs66L7LSFbVgc5AVGFwnOiMVovfdOGWNNtgGlLveTmjljp7Wj4HM+RIGySHK149OWcjty5/pEjhoKJst7c3ckiZ6T47uYNFuxJfKmuSLubMt3mMAhoXQ3G5Z5T09uaVjSHkTnUGTbHxY6lGV5ZAccnXA9diW5aqujYs7o7Z2nwBYF1abAg7RlvPwxEzn0PLkOAUBI94YVMcqRC8oPgj4XNWk5tKPWf404m3u/uLZzxTizrSAQyzazzRmsl8vN7lNSePLCLhvIxWiF8HEDLwR+FnlDionZW1K6xPh498Ati7gz3xFKI/F0/qUcpJdl+0GnxgFqypE7+sOMHhKIN+ydi4bS552LyA4F+guh1xgVAH8azztnl8u8hPPCjzpk7K8QvS+tugSfBCEHF7q/W0g7aZWfQ2A38E8aUS+unJ5PKNvKPULHj3LksC6YGJMKkQv1IAJg+f+Ivco5b42tXBAbZu+l8Kpuc6LJM4T4ILcZ1ZOdgfqu6Y2s7a0FYe7Gzz7WoXofW3RiVcNZoW9SrWfEzOdQ2npJ0EcmbOohGel6p0rEzHncoJnwzCF9AY4qsPRTzalO3ctYaYH1wXfQMcqRC8MdIfzKoCgVyh3m7AoeOqporHkGX2cTft5ACNzbMKncPKGJZNSscjVJE83kN2nsRdhv9iY0Q2lJs8eHQgab+Cpgc7CCtH7GD1BM4uD9teyvG+USt+mzKPTmHb/QPKuHCqofARXRCakopHEp/+Qqo/cIJQ4kHN450Ahb2vKuFeU0rpd2d4YA91vK4druuVRNpkMnHhBBEeUhNVZzJ3dgfoJAc5F7ptuqwkcnYiqmzb2QKJezYHgGABrchc/fuAO0I/F21gSx5e+wfKHkGfLgSNlQXTfwmMGS9UTpz/Kor7gMrHVPdT29H8A5BOospLgmFTMeWhTDyajzj8tyz8gr+QVgv3h6xebWvWRxSzbKfPoiPD4wAQhHq0QvVg6Qd+A6Nj6tUH6sGLsR8MK1sRb3SstwUMAts2jqRccrb6aikUWBH1hVl3Vq+I7+8G8euuG+DKF98Uz7u8bl7IoM7J4A71vAQi8T6OV/ViF6EWCRKx6iQjSwV0AnFVsfWjKuPvVdugXIfhf5Hc+fl+Nqw6esZu8YSzHYbKqxlUHAbg/L50izhNXvzCpNfu1oiN692lDUCycM7T0g2XKhugAQGJucC8TR8YzXbsVw3dPbWZtU8a9gsSTAOrzkoHINe1Rdfy1I3LPeHvtCGlvj6rjALkuz64N90Wejqfd301ZxX5Fse/R0rWnAIcH33wIrlMVovcW0cE7zKyO9bu+t+L6uA7HbSbxA+SXAccjcV4qqs4Kox7aXBEvGVNThTgfQD7tKQAXuO1uczytj+lredu2damJt+RZftkQXVBGiKfdVwAEjniiyHGpqLq3t79zcrpruAfrMgBhKP9b8DGuUBVUJra6h1qCm/LcM/gI94jvXZAYVt3a67qR0d8GeZfBKwuSMWfvikUvSvedfzKa5cgbJi/htr31fePb+JWmVn2NB+vlkEj+uKPV3oUskzS73nlYfLUPgSdCaO44WvYrTWn9p3iG2/Sa59TCHUAaVpkx06WKRe9FNKxgTW2HXgGDXVUB5le7akw+69pNWxNuI74+k90bbQNDWakAVztr1PkzRkuvpLFuIO0BaX0xBReHZCDWAZjlaHVpLhuHBiQfQEs/DsDEOr9DR+2cGiKdFaIXr/v+UwC/NBKC4GnJquPCLgXc7aLb0wBOBBDWhtS7QpmQqFcP9IV8J6X10T44BwitlPA6iqQsT18dtks/pZVbu6LvAbCfoT78KBF1Li0nXpQd0ce/xP6qRqcB7GAoisUW2DQr5uTlojasYE3/Du8EAeMADg1Zxs/CUicn62RFX8p40kIO9pW+DcC+oa68gIdASa7rZ9/dU+00jwnJPciHJAGaXrx5vb1GxfL9/QrRe2NNlslOImVmDq/6AP5O8jKTvOYTFvHLtu19C/SPgshxIbnnG8IV4jdqrfp1b7nqm5zQmhmpdfTFAC5C+Km01wh5N2H9w9L2Qyae1qTW7Nc8kQsEOCGXJYaA8UQskio3TpQl0aeT1rI2/RCIb+bRTEYoD8HyXyDkdV/4LgDYlAghO9LnzhDZQ8CvovsmVKEKRLwK4cRkNPJCUU6qLdnRtGQ2gELFJXgAFhEyT8R/WWgt98VfyZ5yShZla/gcRLFGCXBYPgkyBXh456j6VjkWlCxLogNAvI2D4OuXgZJN85wFcFmtqF9dHZWuYv7QxqWsFq1/hu5z91LNPvNfW9TImVF5vRz5ULZEB7qTJ/bkVSu1fj5uw//+zFjVolL66ImZrhEWrb8AOLDE5O0L5buJenVnuXKhrIkOAD0JDS8vhW8l8IYF/jgRdWZDhCUpcFIa29y4UH6DcIJseoEF/EEyGvlDOfOg7IkOAPFW98qeyyLFig8JXNHPVZcV8jy/d9fuHABbX0Tif9E7mWpzxe+TMeeH5c6BzYLo3W68ezGBnxdZn7OApDzav5hTLyvLcpJt4yB63iUinFBk63eS+Gmq3vnN5qD/mw3RAaCpVU+g8HoAfX1XOktIwtb2pbN2k2Wbg+wbF3XsYinnxyQnAoj08ed0QGRKMqr+urno/mZFdGD9hZIkwg32CIp3AMwQX12bGCarsBlicoY7edBTQXwPha0wszH8H+k3puqrWjYnucvmqGwNpN0/rc8RwUUACn25ggCeEjDhO86t5RQ/ndcYrGBN/073lJ7klAf0gi6+Q+LSdTF1VRhXeStELyGMf4n97Wp9unRv1O0UMrlfAvA3evqvqeE1r1Wo/QVWvqVjiGepUwGciO6U1iHqJVeQ8kevU13fkzF4s4RU1Kw7km5FRh/oiZwE4igBTeuC+wDSIOeJ4GHfcR5MDZE3K5I1x5SF3N5V7hEEDhXIaAAxUz0lZCkE98PnbbvE1NPlGOlWIXoYytbKrbO2Hi3kcFC2A7itQPp1M5pZgbVGwDdAWSbC1zpFLbgpKmsqkivAWCzmFq6v9xJfBkM4GJTtfPG3sCCR7vGQdRb4FoVvUWRRxFPzZtTLuxXJfRL/D/ovLE6y8BHDAAAAJXRFWHRkYXRlOmNyZWF0ZQAyMDI0LTA3LTE4VDA4OjA3OjQ3KzAwOjAwF4TS1QAAACV0RVh0ZGF0ZTptb2RpZnkAMjAyNC0wNy0xOFQwODowNzo0NyswMDowMGbZamkAAAAASUVORK5CYII=;" vertex="1" parent="1">
          <mxGeometry x="635.16" y="242" width="44.84" height="40" as="geometry" />
        </mxCell>
        <mxCell id="2qO8lxWROJ69_FPcfv2y-6" value="" style="sketch=0;outlineConnect=0;fontColor=#232F3E;gradientColor=none;fillColor=#232F3D;strokeColor=none;dashed=0;verticalLabelPosition=bottom;verticalAlign=top;align=center;html=1;fontSize=12;fontStyle=0;aspect=fixed;pointerEvents=1;shape=mxgraph.aws4.mobile_client;" vertex="1" parent="1">
          <mxGeometry x="594.5" y="272" width="41" height="78" as="geometry" />
        </mxCell>
        <mxCell id="2qO8lxWROJ69_FPcfv2y-15" style="edgeStyle=orthogonalEdgeStyle;rounded=0;orthogonalLoop=1;jettySize=auto;html=1;exitX=1;exitY=0.5;exitDx=0;exitDy=0;entryX=0;entryY=0.5;entryDx=0;entryDy=0;entryPerimeter=0;" edge="1" parent="1" source="2qO8lxWROJ69_FPcfv2y-12" target="2qO8lxWROJ69_FPcfv2y-11">
          <mxGeometry relative="1" as="geometry" />
        </mxCell>
        <mxCell id="2qO8lxWROJ69_FPcfv2y-16" value="" style="edgeStyle=none;orthogonalLoop=1;jettySize=auto;html=1;rounded=0;" edge="1" parent="1">
          <mxGeometry width="80" relative="1" as="geometry">
            <mxPoint x="530" y="330" as="sourcePoint" />
            <mxPoint x="390" y="330" as="targetPoint" />
            <Array as="points" />
          </mxGeometry>
        </mxCell>
        <mxCell id="2qO8lxWROJ69_FPcfv2y-17" value="Request" style="text;strokeColor=none;align=center;fillColor=none;html=1;verticalAlign=middle;whiteSpace=wrap;rounded=0;" vertex="1" parent="1">
          <mxGeometry x="430" y="260" width="60" height="30" as="geometry" />
        </mxCell>
        <mxCell id="2qO8lxWROJ69_FPcfv2y-18" value="Response" style="text;strokeColor=none;align=center;fillColor=none;html=1;verticalAlign=middle;whiteSpace=wrap;rounded=0;" vertex="1" parent="1">
          <mxGeometry x="430" y="340" width="60" height="30" as="geometry" />
        </mxCell>
        <mxCell id="2qO8lxWROJ69_FPcfv2y-19" value="" style="shape=cylinder3;whiteSpace=wrap;html=1;boundedLbl=1;backgroundOutline=1;size=15;" vertex="1" parent="1">
          <mxGeometry x="1180" y="388" width="60" height="80" as="geometry" />
        </mxCell>
        <mxCell id="2qO8lxWROJ69_FPcfv2y-20" value="" style="shape=image;verticalLabelPosition=bottom;labelBackgroundColor=default;verticalAlign=top;aspect=fixed;imageAspect=0;image=data:image/png,iVBORw0KGgoAAAANSUhEUgAABAAAAAQACAYAAAB/HSuDAAAAGXRFWHRTb2Z0d2FyZQBBZG9iZSBJbWFnZVJlYWR5ccllPAAAM+9JREFUeNrs3U9uG8faL+BOcOeHdwVpr+DIgCYcuTXRNPIKQq0g9gpsr8D2CsSswMqUEzEjTQiIWYGZFVydHdwusZjQjv5STbKq63kAonPw4Zu8gNz1/uqt6qoCAAAAAAAAAAAAAAAAAAAAAAAAAAAAAAAAAAAAAAAAAAAAAAAAAAAAAAAAAAAAAAAAAAAAAAAAAAAAAAAAAAAAAAAAAAAAAAAAAAAAAAAAAAAAAAAAAAAAAAAAAAAAAAAAAAAAAAAAAAAAAAAAAAAAAAAAAAAAAAAAAAAAAAAAAAAAAAAAAAAAAAAAAAAAAAAAAAAAAAAAAAAAAAAAAAAAAAAAAAAAAAAAAAAAAAAAAAAAAAAAAAAAAAAAAAAAAAAAAAAAAAAAAAAAAAAAAAAAAAAAAAAAAAAAAAAAAAAAAAAAAAAAAAAAAAAAAAAAAAAAAAAAAAAAAAAAAAAAAAAAAAAAAAAAAAAAAAAAAAAAAAAAAAAAAAAAAAAAAAAAAAAAAAAAAAAAAAAAAAAAAAAAAAAAAAAAAAAAAAAAAAAAAAAAAAAAAAAAAAAAAAAAAAAAAAAAAAAAAAAAAAAAAAAAAAAAAAAAAAAAAAAAAAAAAAAAAAAAAAAAAAAAAAAAAAAAAAAAAAAAAAAAAAAAAAAAAAAAAAAAAAAAAAAAAAAAAAAAAAAAAAAAAAAAAAAAAAAAAAAAAAAAAAAAAAAAAAAAAAAAAAAAAAAAAAAAAAAAAAAAAAAAAAAAAAAAAAAAAAAAAAAAAAAAAAAAAAAAAAAAAAAAAAAAAAAAAAAAAAAAAAAAAAAAAAAAAAAAAAAAAAAAAAAAAAAAAAAAAAAAAAAAAAAAAAAAAAAAAAAAAAAAAAAAAAAAAAAAAAAAAAAAAAAAAAAAAAAAAAAAAAAAAAAAAAAAAAAAAAAAAAAAAAAAAAAAAAAAAAAAAAAAAAAAAAAAAAAAAAAAAAAAAAAAAAAAAAAAAAAAAAAAAAAAAAAAAAAAAAAAAAAAAAAAAAAAAAAAAAAAAAAAAAAAAAAAAAAAAAAAAAAAAAAAAAAAAAAAAAAAAAAAAAAAAAAAAAAAAAAAAAAAAAAAAAAAAAAAAAAAAAAAAAAAAAAAAAAAAAAAAAAAAAAAAAAAAAAAAAAAAAAAAAAAAAAAAAAAAAAAAAAAAAAAAAAAAAAAAAAAAAAAAAAAAAAAAAAAAAAAAAAAAAAAAAAAAAAAAAAAAAAAAAAAAAAAAAAAAAAAAAAAAAAAAAAAAAAAAAAAAAAAAAAAAAAAAAAAAAAAAAAAAAAAAAAAAAAAAAAAAAAAAAAAAAAAAAAAAAAAAAAAAAAAAAAAAAAAAAAAAAAAAAAAAAAAAAAAAAAAAAAAAAAAAAAAAAAAAAAAAAAAAAAAAAAAAAAAAAAAAAAAAAAAAAAAAAAAAAAAAAAAAAAAAAAAAAAAAAAAAAAAAAAAAAAAAAAAAAAAAAAAAAAAYIt+UAKA9FweHx60j4FKAJm6Hk5mc2UAEAAA9K1ZD436Qfyf6/8d/NT+6u/+XxpVA7gx/e5/L9rfX2v/O4QI16v/Hk5m10oGIAAA2FZzv9qJr+PvP2sNvkYeYD+mawHB/6plcBB+Jg8ABAAADzb5dWzsf1pr9mvVAcjSYu33VwwKFsIBQAAAUE6j36w19q80+QBFhwN/rP57OJlNlQUQAADk2eivzuGHhv+n+N8HKgPAPebxFyYGQiDgzgFAAACQYMPfxAb/VXzWqgJABxYxFPgjBgJTJQEEAAC7a/bD7n6z1uw3qgLADk3XQoGpKQFAAADQXcNfrzX84VmrCgAJWcRQYBUILJQEEAAAPK7hH3zX8Du7D0BO5t8FAiYEAAEAwFrTH5r8k7WmHwD6YhUGnPsMISAAAEps+Fe7/D/Hxn+gKgAUIEwDnLe/3yvTAYAAAOhx019/1/QDQOnWw4CFcgACACD3pj80+79UzvIDwH3C8YDfquVRAWEAIAAANP0AIAwAEAAA+2v6B7Hp/1XTDwCdhwGfYxjgzgBAAADsrfFf7fQ70w8A2xfuDPhtOJmdKwUgAAB20fQfxKZ/VLm9HwD2IUwCjGMY4NOCgAAA6LTpN+IPAGlyRAAQAACdNP4HsekfqQYAJG8cwgBTAYAAAHhs02+3HwDyZioAEAAA9zb+dfXPbr+z/QCQv9VdAZ99ThAQAACh8W9i4+8mfwDor/MYBEyVAgQAQHmN/6gy5g8ApZnHIGCsFCAAAPrd9IfR/lXjX6sIABRrUS3vCRi7JwAEAED/Gv83sfF3vh8AWLmOQcAnQQAIAACNPwAgCAAEAIDGHwAQBAACAEDjDwAIAgABAKDxBwAEAYAAAND4AwCCAEAAAMU3/6P28VHjDwDsOAh4O5zMxkoBAgBg+43/SWz8a9UAAPZkEYOAc6UAAQDQfePftI937a9RDQAgEdP292E4mU2VAgQAwPMb/zo2/iPVAAASNY5BwEIpQAAAbNb8v69c8AcA5OHmosDhZPZeKUAAADy+8XfOHwDI1aJyPwAIAIAHG//Q8J9VzvkDAPmbtr9TxwIgHT8qASTT/L9vH181/wBAT4Q1zde4xgESYAIA9t/4h5dj2PWvVQMA6KlFtZwGmCoFCACgxMY/XOwXzvmPVAMAKMS4Wt4PcK0UIACAUpr/cMlf2PV3uz8AUJrQ/J+6JBAEAND3xr+ulrv+J6oBABQuBABvXRIIu+MSQNhd8/+mfVxp/gEAboQ10VVcIwE7YAIAtt/415VP+wEA3Gfa/l67GwC2ywQAbLf5v0m2Nf8AAPcKa6Wvce0EbIkJANhO4x8u9wu7/l5iAABPE+4GODUNAAIAyKH5b9rHl8oN/wAAmwrNfzgSMFUK6I4jANBt8x9u+L/Q/AMAPEtYS13EtRXQERMA0E3jf1AtR/4PVAMAoFPzankkYK4U8DwmAOD5zf+oWu76a/4BALoX1lgXcc0FPIMJANi88Q+jaWEszcsIAGA3xu3vrQsCQQAAu2z+jfwDAOyHIwGwIUcA4OnN/6gy8g8AsC+OBMCGTADA05r/sOvvZQMAkIbxcDI7VQYQAECXjX/dPr5Udv0BAFITjgIcuRcAHuYIADzc/Dft40rzDwCQpLBG+xrXbIAAADZu/kfV8rz/QDUAAJIV1mruBYAHOAIAdzf/zvsDAOTHvQAgAIBHN/43CXJl5B8AIFfuBYBbOAIA3zb/oel33h8AIG83a7q4tgMEAPCv5v+kWu7816oBAJC9sKa7iGs8oHIEAFbN/6h9nKkEAEAvnQ4ns7EyIAAAzb/L/gAA+s/lgAgAlICCG/9w2d9HzT8AQDkhQPt763JABABQXvPvpn8AgPL4QgACAND8AwAgBAABAPSl+T+Izf9ANQAAinYdQ4C5UiAAAM0/AABCABAAgOYfAAAhAOTjRyWggOZ/1D6uNP8AANwirBGv4poRes0EACU0/2cqAQDAI5wOJ7OxMiAAAM0/AABCABAAgOYfAAAhAAgAQPMPAIAQAAQAoPkHAEAIAAIA0PwDACAEAAEAaP4BABACgAAAzT8AAAgBEAAoAZp/AAAQAiAAAM0/AAAIARAAwN6a/4P2caUSAADswcvhZDZXBnLzoxKQafN/oRIAAOzJRVyTQlZMAJBr8z9QDQAA9ui6/R2ZBEAAANtp/kPT/1XzDwBAQiHAi+Fkdq0U5MARAHJq/u38AwCQkps1alyrggAAOmz+nbMCACA17qdCAAAd+qj5BwAg5RDg8vjQ56lJnjsASFr8h3SkEgAAZGA8nMxOlYFUmQAg5eZ/pPkHACAjo7iGhSSZACDV5v+kfXxRCQAAMvR6OJmdKwMCAHi4+V9dpOI2VUq3iL+7hE8O/alMwI7994F39IF3ONy8o4+Gk9lcKRAAwN3Nf1gwXLW/WjXoqXlcFITn/9b++2axYKEA9PDdvh4INPH5U3zX19759Nii/b1s3+3XSkEq/o8SkJgLCwF60uSHl/6f1T+7+HMLAKBE3wWb0ztCglUQsAoLXgkH6IE6rm1fKgWpMAFAMtz4T4ZWu/d/rDX5dvABul0fNLGR+m8MCBpVITO+DIAAAL57uYfG37dTSd10reEPzf5CSQD2sm44iGHAq/g8UBUSd9quG8bKgAAAL/Flsn+hEiTa8Idmf9q+tKfKAZDsWiIcG2hiINAIBEjUkfUEAgC8sKvqa+W2YNIwj03/717QAL0IBH6Oz1pVSEA4OvjCnUAIACj5BR1u/JfSs0/hG72/V8td/oVyAPRyvbG6O+AX6w72LBwhdCkgAgCKfBm79I99uF41/e0L+Fw5AIpbf4TpgJNqOR1woiLsgUsBEQBQ3Ms3NP4u/UPTD4AwgBK5FBABAMW8bMPoXbj0z7l/tm3V9HvBAvCYMGBUOSbAboTNiSOfD0YAQAkv1wsvVrYovEh/q5bjdS7ZAWCT9UrdPn6tllMBtYqwxTXLkfUKAgD6/EJ17p9tWI34f5akA9Dx2iWEAL9UjgiwHe4DQABAb1+gofF37p8uLULTX9ntB2D765i6Wk4FhPWMY4x0yX0ACADo3UvTuX+6NK2Wu/0u9ANgH+uaEAK8qxwPoBvuA0AAQO9elFeVc/8837j9fWhfkAulACCB9U0Tg4BGNXimebu+eakMCADow8vxY/t4oxJsaHW+X+MPQKprnbDJsToeAJv61K513ioDAgByfiE21XL0HzZp/D/Hl6Hz/QDksO6pq+VEgCCATYWjAFNlQABAji/BcN7/a+XcPxp/AAQB8Nh10AtrILblRyVgi840/zzROL703nvxAZCrcGQtftrtRXy3wWMNKl/NYotMALAV8Zu5X1SCJzT+zvgD0Nd1UVO5LJCnee1rRwgAyOUlZ/Sfx5q2v7c+ewNAQUFA2N2tVYMHOArAVjgCwDZ80fzzgEW1TLZ98xaAYoTL3dpfOBbwNjZ4cJdBZZqWLTABQKcujw/D5/4+qgR3uLngL5zxVwoACl8zhQYvHAvwqWTuEyYlPykDAgBSfJHV7eOqsvvP7c7jS2yhFADw9/rpoFpunjSqwS3C5slL6ye64ggAXfqo+ecW4YUVxv1fe3kBwLfCUbhwJK79z9PKsQD+bVCZrqVDJgDohFv/uUMYWfvgAhsAeNR6avUJuBPV4Du+CoAAgKReVm79Z1242O/UBX8AsNHaqql8LYBv+SoAnXAEgC4Y/Wdd2PF/qfkHgM2ErwW0j5fVcpIOqspRADpiAoBniQn1hUpQ/XPWX+MPAN2utXximZWjGBDBRkwA8FxnSkC13KGw6w8AHYvN3otq+TUdsPbmWUwAsLHL48P31fL7tZQrnEM7dSkNAOxk7TWqHL1kedzyvTIgAGCXL6C6Wl78R7mm1XLk32U0ALDbNVg4EnCgGsUKa6+XPq/MJhwBYFPGj8oWkucjzT8A7FZo+sJlu5ULAks2sBZnUyYAeLLL48PwbdovKlGk0PC/dvkMACSzJjurHAko1WvHMHkqEwBswidIyhQu+Huh+QeANMTm7yi+o7EmBwEA3YoX/9UqUZxxGDc08g8AyYUA8xgCjFWjOHVcm8OjOQLAU5r/0PhfVcbMShNu+beoAID012pvKrvCpXEhIE9iAoCneKf5L/KFovkHgAy07+xwMeBRfIdThkHls9w8gQkAHuXy+LBpHxcqUYwwTvhamgwAWa7bwicCw+WAPhVYjiP3NPEYJgB4LMliOabxJaL5B4AMrd0L4HJAa3X4hgkAHuSzf0UJl/2dKgMA9GYdFyYBRipRBJ8F5EEmAHgMl8mU4ZPmHwD6Jb7bxyphzQ4CAB50eXw4qnz2rwThpv+3ygAAvQ0BhPz9V8e1O9zJEQDua/7DraJfKzf/l9D8j5UBAHq/tgvN4ZlK9Fr4AsSLdm3nSxDcygQA93mj+e/9C+K15h8AyhDf+SYB+m0Q1/BwKxMA3MrufxHN/1G8JRgAKGudFz4PeGGd1+t1nikAbmUCgLvY/df8AwA9tPaZQA1iP5kC4E4mAPgXu/+afwCgiDWfSYB+r/lMAfAvJgC4jd1/zT8A0HMmAXrNFAC3MgHAN+z+a/4BgOLWfyYB+rv+MwXAN0wA8D27/5p/AKAgJgF6yxQA/2ICgL/Z/e+tU5/6AwAesRY8aR9fVKJXTAHwDRMArLP7r/kHAArVrhnOw9pBJXrFFADfMAHADbv/mn8AgLguHLWPM5XoDVMA/M0EACt2//vlk+YfANhEXEN8UIneMAXA30wAYPe/f8bti9v4HgDw3DVimAIYqUQvmALghgkAghPNf29MNf8AQBfimuJcJXphENf8CACgeqcEvRA+4fNaGQCADp3GNQbW/AgAyF285KVWieyFca5TY10AQJfi2uIorjXIWx3X/ggAKNivStALr9sXtHQeABACcJ9flEAAQKEujw+b9nGgEtkLO/9TZQAAthgChI2GtyqRvSb2AAgAKJDd//yNfe4PANhRCBDWHJ9UInumAArmM4CFujw+rKvlp//I17x9Eb9UBgBgx+vIi/bRqETWwicBF8pQHhMA5bL7n7dwBs+N/wDAPoQ1iOZRL0CGTAAU6PL4MHwHNOz+D1QjW0fO/QMAe1xPhnukrlQiW2Ez6YUvSJXHBECZTjT/Wfug+QcA9smlgNkbxJ4AAQAFMPKTr2n7wn2vDABAAiFAuBDwXCX0BAgASFQc1/Lpvzw59w8ApOa0ch9Arg5ib4AAgB6T9GX8gnVOCwBISVybnKqE3gABAImJl/8565OnT+0L1ogdAJBiCDBtHx9UIksnsUdAAEAf/8Arl//laOGlCgAkHgK8bx9zlciODUIBAD1mxCdPRv8BgCzWLEqgR0AAQAJc/pctn/wDALLg04DZchmgAIAe+kUJsjP3yT8AILMQIHwacKoSegUEAOzXSAmyI0EHAHLkKIBeAQEA+3J5fOjyv/x8MvoPAOSoXcMsKhcY52YQewYEAPSAkZ68eGkCALmHAO8rXwXQMyAAYLfidz2leXl569Z/AKAPaxolyMpJ7B0QAJDzH7ISZOW8bf7PlQEAyF08zvhJJfQOCADYHaM8+Qi7/pJyAKBPPsQ1DnoHBABs0+XxYd0+GpXIxud4aQ4AQC/EY402OPLRxB4CAQAZMsKTj0W8LAcAoG8hwLh9TFVCD4EAgO0ywpMPyTgA0Ge+cKSHIAE/KEE/xdGdryqRhelwMjtSBgCg5+vTs/YxUoksvHA0tZ9MAPSX0Z182P0HAEpgCkAvgQCALTG6k4fxcDKbKwMA0HdxR1kIoJdAAECXLo8PB+3jQCWy4CUIAJTkU+WzgDk4iD0FAgAyYGQnkxegs1UAQEniZwE/q4SeAgEA3flZCZIXXn52/wGAEpkC0FMgAKALcVRHWpe+zzEBBwAoSlwDuQQ5fSeOAQgASF+jBMkLL71PygAAFBwCjNvHQiX0FggAeB6jOumz+w8A4Dik3gIBAM/WKEHS7P4DAFSmAPQWCAB4lsvjw/Dpv1olkmb3HwDgH78pQdLq2GMgACBBjRIkb6wEAAB/80UAPQYCADbkjE7izf9wMlsoAwDAUpyM/KwSegwEADxB/ERHoxJJc9ENAMC/uR8pbY3PAQoASPAPUwmSdm73HwDg3+IUwFgl9BoIAHi8V0qQNKNtAAB3Mymp10AAwBM0SpCsxXAymyoDAMDt4qSk9ZJeAwEAD4lncnyeI10SbQCAh5mYTNeBewAEAKSjUYJkhTNt58oAAHC/4WQW1kwLldBzIADgfs7kpOs8XmwDAMDDflMCPQcCAO7XKEGyjP8DADzeWAn0HAgAuIPz/0mb+/QfAMDjxbWT45Npcg+AAIAENEqQLBfZAAA8nWMAeg8EANzBWZw0ufwPAGAD8TJAdyjpPRAAcAvj/2ly+R8AwObGSqD3QADAvzVKkKTflQAAYGOOAeg9EACw7vL40B9gmhZxdA0AgA20a6l5WFOphB4EAQD/MIKTJs0/AMDzuVBZD4IAgDX/VYIkGVkDAHg+myp6EAQArJG+pWcRR9YAAHiGdk21aB/WVXoQBABcHh8O/PElSVINANAdk5UJBgCxF0EAwC7/8JTASwoAoOdsruhFEADgjy5J18b/AQC6E48BLFRCL4IAoHQu30iPhBoAwBpLL4IAgM5J3dLzuxIAAFhj6UUQAOCPrueGk5l0GgCg+zXWtH1cq4ReBAFAkS6PD/3BpUfzDwBgraUnQQBA5/yxpecPJQAAsNbSkyAAoGu1EiRnqgQAANZaehIEAHTtlRIkZeHzfwAA2xM/B2i9pSdBAFCkgRIkZaoEAADWXHoSBABsg/M2aXEmDQDAmktPggCAbrltM0lTJQAAsObSmyAAoGtGbdKyiGfSAADYonbNdV25B0BvggCgMI0SJMVLCADA2ktvggCArfiPEiTFWTQAAGsvvQkCALbCOZu0SKEBAKy99CYIANiKWgnSMZzMpqoAALCztZcAQG+CAMAfGXuh+QcAsAbTmyAAoHuXx4f+wNIigQYA2D33AOhREAAUwR9XWv5UAgCAnVsogR4FAYA/Lrx8AAD6zxSmHgUBgD8udssFgAAAe1mDCQD0KAgAiuA7m+nw4gEAsBZDjyIAYGt8ZzMdCyUAABAAoEcRAED/uQAQAGB//lICEAD0nXQtHVJnAABrMfQoAgC2ZqAEybhWAgCAvVkogR4FAQDshC8AAADsdS1mAgAEAP11eXzYqEIy7P4DAFiToVcRAEABJM4AANZkIACAAkibAQD2b6EEIADoq0YJkuETgAAA++dTgHoVBAAAAEABTGWCAAC2bqoEAAB75w4AEAD01k9KAAAA6FUQAPRfrQTJWCgBAMDemQDQqyAAgO0aTmYCAACA/a/J3AEAAgAAAABAAADPY9QMAMDaDAQAbNWBEiTBqBkAgLUZehUBAFs1UAIAAECvggAAAAAAEABAR5wzAwCwNgMBABTgf0oAAGBtBgIAAAAAQAAAAAAACAAAAAAAAQAAAAAgAAAAAAAEAAAAACAAAAAAAAQA7Nfl8WGtCgAAAAgAem44mS1UAQAAAAEAAAAAIAAAAAAAAQAAAAAgAAAAAAAEAAAAAIAAAAAAABAAQH5+UgIAgGT8RwlAAADbUisBAEAyDpQABAAAAACAACBL10oAAADoVRAA9N9cCZJQKwEAgLUZehUBAHjJAABgbQYCAAAAAEAAAFm4PD502ywAwP7XZLUqgACgrxZKkIyBEgAA7J0AQK+CAKC3/lICAQAAAOhVEADA7jgCAACwf40SgAAAAAAAEABka6oEyXilBAAAe/dfJdCrIACAbXMHAACANRkIAKAA7gAAALAmAwEA2zGczKaqkA7fnQUA2DsTAHoVBACwEwIAAIA9uTw+bFQBBAB9d60EyTByBgCwP7US6FEQAPTdXAmS8ZMSAAAIANCjCACg/0wAAADsj08AggCg96RrAgAAAEwA6FEQABTgf0qQjIEvAQAA7I3NGD0KAoDeWyhBUgQAAAA75gsAehQEAP642AcvHwCA3auVQI+CAMAfF7vm8hkAAGswPQoCALo3nMz8caWlUQIAgJ1z/l+PggCgGP7A0uEiQACA3WuUQG+CAMAfGfsggQYA2BEXAOpNEACUxnc20/JKCQAAdsbmi94EAUBRfGczLY0SAADsjM0XvQkCgKJMlSApB5fHhwNlAADYzdpLCfQmCABKcq0EyWmUAABgu+Lly7VK6E0QABRjOJk5Z5Meo2gAANvXKIHeBAFAifyheRkBAJTGpoueBAFAkYzapMU9AAAA29cogZ4EAUCJ/lCC5JwoAQDAdlweH4bL/2qV0JMgACjRQgmSYyQNAGB7GiXQkyAAKJXzNukxAQAAsD02W/QkCADK5LbNJA3iaBoAAN2z2aInQQBQNH9w6flFCQAAunV5fKj514sgAPBHpwTJaZQAAKBzPyuBXgQBQOn+VILkhM8B1soAANApEwB6EQQAxZO6eUEBAPRavGNpoBJ6EQQA/uhIkXsAAACsrfQiCADoznAyu/aHlyTHAAAAumO6MsHmP/YiCADY9R+fEnhRAQD0URz/r1VCD4IAgCWXb6TpVyUAAHg24/96EAQArJG+pamOiTUAAJszVakHQQDAynAym6pCsiTWAAAbujw+DM1/rRJ6EAQAfMsfYJpGSgAAsLGflUDvgQCAfzOCk6ZBTK4BAHiCdg01qIz/6z0QAHCrP5QgWY4BAAA8XWj+B8qg90AAwL9NlSDdl9fl8WGtDAAAT+KLSnoPBADcZjiZXVdGcVI2UgIAgMeJX1LyNaU0zWPvgQCAPZsqQbIcAwAAeDy7/3oOBAA8wFmcdNWXx4cjZQAAuJ/L//QcCAB4nKkSJM0UAADAw1z+p+dAAMBD3AOQvOby+LBRBgCAe71TgmQ5/y8AIDFTJUiaKQAAgDvEzZJaJfQaCAB4HGdy0jbySUAAgDvZ/ddrIADgCaZKkDy32gIAfCdukjQqoddAAMAjxTM5/jDTNoq32wIA8A+7/4k3/87/CwBI0+9KkLTQ/L9RBgCApbj7P1IJPQYCAJ5uqgTJ+9UUAADA3zT/egwEAGxiOJmFTwEuVCJppgAAAKqb3f+wLnJHUtoWscdAAECipkqQPFMAAADLTRFrIr0FAgCewRmd9JkCAACKZvdfb4EAgG5MlSALpgAAgJLZ/ddbIADgueInOs5VInmmAACAItn9z8a5z/8JAMiDUZ08/Bo/fQMAUJJ3ld1/PQUCADpjAiAPg/gCBAAoQtz8MAWpp0AAQFfiqI7PdeRh1L4ID5QBACiEzY88zI3/CwDIy29KkI2PSgAA9F3c9BiphF4CAQDdM7KTj6Z9IZ4oAwDQczY99BIIANiG4WS2qBwD8EIEAEhA3OxoVCIL89hLIAAgM0Z38lG3L8b3ygAA9JTNDj0EAgC2zOhOXnwWEADonbjJYY2jh0AAwDbF0Z2pSmQjfBZQOg4A9Kn5D43/ryqRjanxfwEAeTPCk5cTFwICAD0SNjcGyqB3QADAbhjhyfBFeXl86EUJAGQtbmrY2NA7IABgV4aT2bU/5OzU7e+dMgAAGTf/jjZm2PzH3gEBAJkzypOfN+2Ls1EGACBTYTOjVgY9A2n5QQnK0DaT/69y/io3i/b3UhILAGS27mzax4VKZOW6XXP+X2XoPxMA5RgrQXbqylEAACA/Rv/1CggA2DMjPXlyFAAAyEa7bnnfPg5UQq9AmhwBKOsf5Cv/IGdpUTkKAACkv9ZsKqP/OZq368yXylAGEwBl+awEWaoro3QAQNrNf7hr6kwl9AgIAEhH+BygXeQ8jeK3dAEAUuTW/zz5ZLgAgL6KI+T+wPN1dnl86MUKACQlblK8UYksnTtmKgCg34z45MtoHQCQWvNvfaI3QABAqoaT2bx9zFUiW028XRcAIAVfquUmBfmZx94AAQA9J+nL2zv3AQAA+xY3JRqV0BMgACBtLgPMn/sAAIB9Nv+h8X+nEtlyN5gAgFLEiz7GKpG1MGr3JZ67AwDYZfNfV8vRf/I1dvmfAICyGPnJ30H7+6gMAMCOOfevF0AAQE6Gk9miMgXQB6PL48ORMgAAu9CuO8KN/wcqkbVx7AUQAFCY35SgF87iOTwAgG02/6P2MVIJPQD5+kEJiv+H/KqS4vZBOMN15FMuAMCW1oxN+7hQieyFT/+9VIZymQDA+Z9+COfwzlwKCABsofkPm0Uu/bP2RwBA7oaT2bh9LFSiF8LLWTIPAHTZ/N9sMlQu/euDRVz7IwCgcB+UoD8hQLycBwCgC2FzwXFRa34EAPTIebU8Q04/hC8D+DwgAPAsbvzvleu45kcAQOmGk1n4B8F5oH554/OAAMAzmv+wmWAt0R+f45ofAQDc+FSZAuibMyEAALBB8x/WD29Uojeu41ofBAAsmQLodQhwogwAwBOaf/cJ9YvdfwQA3MoUQH9DAOf3AADNf3ns/iMA4HamAHorfLbnQggAANzT/Id1gkuE+8fuPwIA7mUKQAgAAJTX/F/E9QL9YfcfAQD3MwUgBAAANP/0gt1/BAA8iikAIQAAoPknX3b/EQDwOKYAhAAAgOafrNn9RwDAk5gCEAIAAJp/8mP3HwEAT2MKoKgQYKQUAFBM8z/S/Pee3X8EAGzEFEAZIcCZEAAAimn+zzT/vWb3HwEAm4nJ4VuVKIIQAADKaP7pt7d2/7nPD0rAI14YX9tHrRJFGLcvjVNlAIBereU+to83KtF7i3Yd90IZuI8JAB7DFEA5Ru0iIUwDGA0EgH40/2eaf2t2WDEBwGNfHuGymEYlijFvf0dGyAAg27VbCPO/WL8VY9qu246UgYeYAOCxPihBUcLnga58JhAAsmz+62p507/m31odBAA83XAym7aPsUoU5Wbx0C4iTpQCALJp/m9C/GoZ5lOGcVyrgwCAToVk0Uh4WW7GB9vFhLODAJB+8z+Kzb+7fMpxXdn9RwDANgwns0X7+KwSRfrockAASLr5D5f9+cxfeT7HNTo8iksA2eQF47OA5QqXA562L5q5UgBAEuuyEM6H8/5G/svjs388mQkANuETI+UKiwv3AgBAGs1/0z6+av6tyUEAwNYMJ7Pz9jFViWKt7gX4qBQAsLfm/3213Pl3PK9M07gmhydxBIBNXzp1tUycKZsjAQCw2zXYTRBf+cRf6V44+88mTACwkfgPjhtHWR0JGCkFAGy9+Q9H8L5q/ov3QfPPpkwA8NwXkQsBWQljaGEawKciAaDb9VbY9X/X/nyWFxf/8SwmAHiuUyUgutmVcEEgAHTa/IdpuyvNP9bedMEEAF28mMI3Z0cqwZpP1XI8zTQAAGy+xnpfLXf+IRi3aysBAM9iAoAuhE+QaPRYF3YprkwDAMBGjf9B+7vS/LPmuvLZPzpgAoCuXlSh0fuiEtzC3QAA8Lj1lLP+3OW1z/7RBRMAdCL+g+QfJW6zuhtgpBQAcGfzH96Xzvpzm3PNP10xAUCXL646vrgGqsEdpu3vbfsSmysFAPy9fvpYLQNz+F6YoHxhkhIBAKm+xN7ElxjcxyWBAFg3LS/5+7WyecLdwsbJJ2VAAEDKL7OL9tGoBA+4ji+1sVIAUNhaKez2hw2TWjW4x7RdJx0pAwIAUn+phRT7ayXN5nEW1fKSwKlSANDzNVJTLS/5a1SDBxj9RwBAVi84XwXgqUIA4H4AAPq4Lqpj4z9SDR7Jrf8IAMjuZRcCABfa8FTjank/wEIpAMh8LRSmIT9q/HmicOv/a2VAAECOLz1HARAEAFDiGihcjOyCP57K6D8CALJ+ATbt40IlEAQAoPGHBx25FwkBALm/DD/GlyEIAgDo41qnrpZn/E80/jzDp3ad81YZEADQhxfjVfs4UAk6EC7E+SwdByCB9U1Y24Td/pFq8Ezzdm3zUhkQANCnF2Q4CiAVpyshAPitfVmOlQKAHa9rTmLj36gGHQjn/Y98CQkBAH17WY7ax5lK0LFFCAKq5dicC3MA2NY6JmxijGLjX6sIHTq1oYEAgL6+PM8qY3JsT3h5/uZ4AAAdrl1WY/7O97OVtUu7bjlVBgQA9PUlGl6c4SiA+wDYpkX7+1wtv6O7UA4ANlivjCq7/WxXGPk/MsGIAIC+v1TdB8AuhUsDfzdaB8Aj1iih6f+5Wu72wzY5948AgOJesO4DYNcv2lUYcK4cAMQ1ycla029zgl1x7h8BAMW9cN0HgDAAAE0/pXHuHwEAxb6Aryr3AbD/MGAawoBqeWeAc3gA/Vtv1NXyk33G+9m3ebvWeKkMCAAo9YUcUvevlfSdhF7MMQyY+poAQNZrjNDov4qNv80GUhA2GV7YbEAAQOkv6PBSvlIJEhWOCPxRLRN7gQBAuuuJJjb7q6YfUvPSpX8IAKByKSBZma4CgWo5JSDFB9j9uqGulrv6dvjJhUv/EADAdy9zlwKSo0UMA/6M4cCifcEvlAWgs/XBQWzw69jwh/92dJCcuPQPAQDc8ZJ3KSB9MY3hwF/xv6+N/QHc+f4frDX54fff+LQmIHcu/UMAAA8sAK7iSx/6KBwZmMfnn6vFQfzflXsGgB6+29d37Ff//VN81w80+fTYolqe+3dcEAEAPLBQuKiM98EqLLjPH8oE7NirB/7vdSXIh/AOPzL9hwAAHhcChE/3fFEJAAAy9Lpt/s+VgdT8qASkKP6D6bIUAAByc6r5RwAATw8Bxu1jrBIAAGTik8/9kTJHAEiezwMCAJABn/tDAAAdhQA+DwgAQKp87o8sOAJALo6qh29DBwCAnTf/ca0KyTMBQDYujw/DZwG/Vj4PCABAGsLn/l4MJ7NrpSAHJgDIRvyH9Sj+QwsAAPtu/o80/+TEBADZuTw+DHcBXFQmAQAA2G/z74gqAgDYUQhwpRIAAOzBS80/OXIEgCzFf3B9ZgUAgF071fyTKxMAZO3y+HDUPs5UAgCAHTX/Y2VAAABCAAAANP8gAAAhAAAAmn8QAIAQAAAAzT8IAEAIAACA5h8EACAEAABA8w8CAIQAAACg+UcAAEIAAADQ/CMAACEAAACafxAAgBAAAADNPwgAIJkQ4KB9XLS/gWoAALDmuv0dtc3/XCkQAIAQAAAAzT8IAEAIAACA5h8EAJBiCDCIIcCBagAAFGkem/9rpUAAAEIAAAA0/yAAgB6FAB/b30g1AACKMG4b/1NlQAAA5QYBZ0IAAIDe+9Q2/2+VAQEACAFCAHCmEgAAvXTaNv9jZUAAAKxCgJMYAvhCAABAP1zH5v9cKUAAAN+HAOFSwC/tr1YNAICsLdrfa5/5AwEA3BcC+EIAAEDe3PQPAgB4UhDgckAAgPy46R8EALBRCBACAJcDAgDkwWV/IACAZ4UATbW8F8DlgAAAaQqj/uG8/1QpQAAAzw0B3AsAAJAm5/1BAABbCQLcCwAAkA7n/eEJflQCeLz4ggk/CTMAwP6Etdip5h+exgQAbODy+DAcBQjTAI4EAADs1jw2/3OlgKcxAQAbiC+co/Y3Vg0AgJ0Ja68jzT9sxgQAPFP8VODHylcCAAC2JYz8v/WJPxAAQAohgCMBAADbYeQfBACQZBAQJgHeqAQAQCc+tY3/W2UAAQCkGgI07eNL5UgAAMCmwsj/67b5nyoFdMclgNCx+KJ60f7OVQMA4MnCGuqF5h+6ZwIAtujy+PCkWt4NYBoAAOB+Ydc/nPW3iQICAMg2BAjNfzgS0KgGAMCtptVy5P9aKUAAAH0IAsLlgO8q0wAAACuh4f/QNv6flAIEANC3EKBuH+FLASeqAQAULoz6v22b/4VSgAAA+hwEuBsAACiVs/6wJ74CAHsQX3jhSwFj1QAAChLWPi80/7AfJgBgzy6PD5tqOQ1QqwYA0FOLarnrP1UKEACAIOD48H21vCQQAKBPwiV/75UBBADAtyFAXS2nARrVAAAyN62Wu/4LpQABAHB3EBAuCQxfC6hVAwDITGj43zrnDwIA4GlBwPv28WvlawEAQPrC7f6fjfuDAADYPASoq+XdACPVAAASNa6WZ/0XSgECAOD5QUATg4BGNQCARExj4z9VChAAAN0HAe4HAAD2bVE55w8CAGBnQcAoBgHuBwAAduU6Nv5jpQABALDbECA0/28qFwUCANtv/D+3v09t83+tHCAAAAQBAIDGHxAAAIIAAEDjDwgAAEEAAKDxBwQAgCAAAND4AwIAQBAAAGj8AQEAsBYEjGIQUKsIABRrERv/scYfBABA/8OAVRBwoBoAUIx5aPzbpn+sFCAAAMoLApoYBJyoBgD01nls/KdKAQIAQBBQxyBgVLknAAD6IIz2j2Pjv1AOQAAAfB8EhOb/pHI8AABydTPm3/7One8HBADAY8OAg+qf4wGmAgAgXaHRX435z5UDEAAAmwYBpgIAIE12+wEBALC1MCAEAL9U7goAgH1Zne3/zW4/IAAAdhUGnMQwwBcEAGD7zmPTf64UgAAA2FcQ4IgAAGzHNDT9lRF/QAAAJBgG1DEM+EUYAAAbma81/QvlAAQAgDAAADT9AAIAIMkwoGl/P1fuDACAIJzl/739TTX9gAAA6GsYMPguDPA1AQBKcP1d0+9MPyAAAIoLBA5iEPAqBgMA0BfT9vdHtRzt98k+QAAAsBYGrKYDVmGAuwMAyMl8rem3yw8IAACeEAjUa4HAgUAAgAQb/vlaw79QEkAAANBNIDD4LhBoVAWAHZp+1/Db4QcEAAA7DAWaGAasQoFaVQDowCI2/H+Gpr9t9qdKAggAANIKBAbVP9MBP1WODgDwsNUo/1+x6Z/b3QcEAAD5BgMhEKjj79XafwNQjkX8/RGfc7fzAwIAgHKCgdWxgfD8aS0YEA4A5N3kh1/Y0Q8N/kKjDwgAAHgoHBisBQL/qf45TtCoEMBeTOMzNPT/W2v2rzX5AAIAgG2GBIO1UGD9v4PVRMG6RtUAvmnkV0IT/9fa/w7N/OocvjP5AAIAgP5ZmzwAyJGdeAAAAAAAAAAAAAAAAAAAAAAAAAAAAAAAAAAAAAAAAAAAAAAAAAAAAAAAAAAAAAAAAAAAAAAAAAAAAAAAAAAAAAAAAAAAAAAAAAAAAAAAAAAAAAAAAAAAAAAAAAAAAAAAAAAAAAAAAAAAAAAAAAAAAAAAAAAAAAAAAAAAAAAAAAAAAAAAAAAAAAAAAAAAAAAAAAAAAAAAAAAAAAAAAAAAAAAAAAAAAAAAAAAAAAAAAAAAAAAAAAAAAAAAAAAAAAAAAAAAAAAAAAAAAAAAAAAAAAAAAAAAAAAAAAAAAAAAAAAAAAAAAAAAAAAAAAAAAAAAAAAAAAAAAAAAAAAAAAAAAAAAAAAAAAAAAAAAAAAAAAAAAAAAAAAAAAAAAAAAAAAAAAAAAAAAAAAAAAAAAAAAAAAAAAAAAACA/88eHBAAAAAACPn/uiEBAAAAAAAAAAAAAAAAAAAAAAAAAAAAAAAAAAAAAAAAAAAAAAAAAAAAAAAAAAAAAAAAAAAAAAAAAAAAAAAAAAAAAAAAAAAAAAAAAAAAAAAAAAAAAAAAAAAAAAAAAAAAAAAAAAAAAAAAAAAAAAAAAAAAAAAAAAAAAAAAAAAAAAAAAAAAAAAAAAAAAAAAAAAAAAAAAAAAAAAAAAAAAAAAAAAAAAAAAAAAAAAAAAAAAAAAAAAAAAAAAAAAAAAAAAAAAAAAAAAAAAAAAAAAAAAAAAAAAAAAAAAAAAAAAAAAAAAAAAAAAAAAAAAAAAAAAAAAAAAAAAAAAAAAAAAAAAAAAAAAAAAAAAAAAAAAAAAAAAAAAAAAAAAAAAAAAAAAAAAAAAAAAAAAAAAAAAAAAAAAAAAAAAAAAAAAAAAAAAAAAAAAAAAAAAAAAAAAAAAAAAAAAAAAAAAAAAAAAAAAAAAAAAAAAAAAAAAAAAAAAAAAAAAAAAAAAAAAAAAAAAAAAAAAAAAAAAAAAAAAAAAAAAAAAAAAAAAAAAAAAAAAAAAAAAAAAAAAAAAAAAAAAAAAAAAAAAAAAAAAAAAAAAAAAAAAAAAAAAAAAAAAAAAAAAAAAAAAAAAAAAAAAAAAAAAAAAAAAAAAAAAAAAAAAAAAAAAAAAAAAAAAAAAAAAAAAAAAAAAAAAAAAAAAAAAAAAAAAAAAAAAAAAAAAAAAAAAAAAAAAAAAAAAAAAAAAAAAAAAAAAAAAAAAAAAAAAAAAAAAAAAAAAAAAAAAAAAAAAAAAAAAAAAAAAAAAAAAAAAAAAAAAAAAAAAAAAAAAAAAAAAAAAAAAAAAAAAAAAAAAAAAAAAAAAAAAAAAAAAAAAAAAAAAAAAAAAAAAAAAAAAAAAAAAAAAAAAAAAAAAAAAAAAAAAAAAAAAAAAAAAAAAAAAAAAAAACAmwQYAASIulYlj2AwAAAAAElFTkSuQmCC;" vertex="1" parent="1">
          <mxGeometry x="1180" y="408" width="60" height="60" as="geometry" />
        </mxCell>
      </root>
    </mxGraphModel>
  </diagram>
</mxfile>
